<mxfile host="65bd71144e">
    <diagram id="1EU1iBESqHQrNVoSHfkj" name="ページ1">
        <mxGraphModel dx="2888" dy="1604" grid="1" gridSize="10" guides="1" tooltips="1" connect="1" arrows="1" fold="1" page="1" pageScale="1" pageWidth="1169" pageHeight="827" math="0" shadow="0">
            <root>
                <mxCell id="0"/>
                <mxCell id="1" parent="0"/>
                <mxCell id="2" value="&lt;div style=&quot;font-size: 30px;&quot;&gt;金庫警備システムの仕様は以下のとおり。&lt;/div&gt;&lt;div style=&quot;font-size: 30px;&quot;&gt;・ 金庫が1つある&lt;/div&gt;・&lt;span style=&quot;background-color: initial;&quot;&gt;&amp;nbsp;金庫は警備センターと接続されている&lt;/span&gt;&lt;br&gt;・&lt;span style=&quot;background-color: initial;&quot;&gt;&amp;nbsp;金庫には非常ベルと通常通話用の電話が接続されている&lt;/span&gt;&lt;br&gt;・&lt;span style=&quot;background-color: initial;&quot;&gt;&amp;nbsp;金庫には時計がついていて、現在の時刻を監視している&lt;/span&gt;&lt;br&gt;・&lt;span style=&quot;background-color: initial;&quot;&gt;&amp;nbsp;昼間は9:00〜16:59、夜間は17:00〜23:59および0:00〜8:59の範囲である&lt;/span&gt;&lt;br&gt;・&lt;span style=&quot;background-color: initial;&quot;&gt;&amp;nbsp;金庫は昼間だけ使用できる&lt;/span&gt;&lt;br&gt;・&lt;span style=&quot;background-color: initial;&quot;&gt;&amp;nbsp;昼間、金庫を使用すると、警備センターに使用履歴が残る&lt;/span&gt;&lt;br&gt;&lt;div style=&quot;font-size: 30px;&quot;&gt;・ 夜間、金庫を使用すると、警備センターに非常事態の通報が行く&lt;/div&gt;&lt;div style=&quot;font-size: 30px;&quot;&gt;・ 非常ベルはいつでも使用できる&lt;/div&gt;&lt;div style=&quot;font-size: 30px;&quot;&gt;・ 非常ベルを使用すると、警備センターに非常ベルの通報が行く&lt;/div&gt;&lt;div style=&quot;font-size: 30px;&quot;&gt;・ 通常通話用の電話はいつでも使用できる（が、夜間は録音のみ）&lt;/div&gt;&lt;div style=&quot;font-size: 30px;&quot;&gt;・ 昼間、電話を使用すると、警備センターが呼び出される&lt;/div&gt;&lt;div style=&quot;font-size: 30px;&quot;&gt;・ 夜間、電話を使用すると、警備センターの留守録が呼び出される&lt;/div&gt;&lt;div style=&quot;font-size: 30px;&quot;&gt;&lt;br style=&quot;font-size: 30px;&quot;&gt;&lt;/div&gt;" style="text;strokeColor=none;align=left;fillColor=none;html=1;verticalAlign=top;whiteSpace=wrap;rounded=0;fontSize=30;" vertex="1" parent="1">
                    <mxGeometry x="40" y="30" width="1190" height="530" as="geometry"/>
                </mxCell>
                <mxCell id="4" value="" style="shape=image;imageAspect=0;aspect=fixed;verticalLabelPosition=bottom;verticalAlign=top;fontSize=30;image=data:image/jpeg,/9j/4AAQSkZJRgABAQAAkACQAAD/4QCeRXhpZgAATU0AKgAAAAgABQESAAMAAAABAAEAAAEaAAUAAAABAAAASgEbAAUAAAABAAAAUgEoAAMAAAABAAIAAIdpAAQAAAABAAAAWgAAAAAAAACQAAAAAQAAAJAAAAABAAOShgAHAAAAEgAAAISgAgAEAAAAAQAABMagAwAEAAAAAQAAAvgAAAAAQVNDSUkAAABTY3JlZW5zaG90/+EJIWh0dHA6Ly9ucy5hZG9iZS5jb20veGFwLzEuMC8APD94cGFja2V0IGJlZ2luPSLvu78iIGlkPSJXNU0wTXBDZWhpSHpyZVN6TlRjemtjOWQiPz4gPHg6eG1wbWV0YSB4bWxuczp4PSJhZG9iZTpuczptZXRhLyIgeDp4bXB0az0iWE1QIENvcmUgNi4wLjAiPiA8cmRmOlJERiB4bWxuczpyZGY9Imh0dHA6Ly93d3cudzMub3JnLzE5OTkvMDIvMjItcmRmLXN5bnRheC1ucyMiPiA8cmRmOkRlc2NyaXB0aW9uIHJkZjphYm91dD0iIi8+IDwvcmRmOlJERj4gPC94OnhtcG1ldGE+ICAgICAgICAgICAgICAgICAgICAgICAgICAgICAgICAgICAgICAgICAgICAgICAgICAgICAgICAgICAgICAgICAgICAgICAgICAgICAgICAgICAgICAgICAgICAgICAgICAgICAgICAgICAgICAgICAgICAgICAgICAgICAgICAgICAgICAgICAgICAgICAgICAgICAgICAgICAgICAgICAgICAgICAgICAgICAgICAgICAgICAgICAgICAgICAgICAgICAgICAgICAgICAgICAgICAgICAgICAgICAgICAgICAgICAgICAgICAgICAgICAgICAgICAgICAgICAgICAgICAgICAgICAgICAgICAgICAgICAgICAgICAgICAgICAgICAgICAgICAgICAgICAgICAgICAgICAgICAgICAgICAgICAgICAgICAgICAgICAgICAgICAgICAgICAgICAgICAgICAgICAgICAgICAgICAgICAgICAgICAgICAgICAgICAgICAgICAgICAgICAgICAgICAgICAgICAgICAgICAgICAgICAgICAgICAgICAgICAgICAgICAgICAgICAgICAgICAgICAgICAgICAgICAgICAgICAgICAgICAgICAgICAgICAgICAgICAgICAgICAgICAgICAgICAgICAgICAgICAgICAgICAgICAgICAgICAgICAgICAgICAgICAgICAgICAgICAgICAgICAgICAgICAgICAgICAgICAgICAgICAgICAgICAgICAgICAgICAgICAgICAgICAgICAgICAgICAgICAgICAgICAgICAgICAgICAgICAgICAgICAgICAgICAgICAgICAgICAgICAgICAgICAgICAgICAgICAgICAgICAgICAgICAgICAgICAgICAgICAgICAgICAgICAgICAgICAgICAgICAgICAgICAgICAgICAgICAgICAgICAgICAgICAgICAgICAgICAgICAgICAgICAgICAgICAgICAgICAgICAgICAgICAgICAgICAgICAgICAgICAgICAgICAgICAgICAgICAgICAgICAgICAgICAgICAgICAgICAgICAgICAgICAgICAgICAgICAgICAgICAgICAgICAgICAgICAgICAgICAgICAgICAgICAgICAgICAgICAgICAgICAgICAgICAgICAgICAgICAgICAgICAgICAgICAgICAgICAgICAgICAgICAgICAgICAgICAgICAgICAgICAgICAgICAgICAgICAgICAgICAgICAgICAgICAgICAgICAgICAgICAgICAgICAgICAgICAgICAgICAgICAgICAgICAgICAgICAgICAgICAgICAgICAgICAgICAgICAgICAgICAgICAgICAgICAgICAgICAgICAgICAgICAgICAgICAgICAgICAgICAgICAgICAgICAgICAgICAgICAgICAgICAgICAgICAgICAgICAgICAgICAgICAgICAgICAgICAgICAgICAgICAgICAgICAgICAgICAgICAgICAgICAgICAgICAgICAgICAgICAgICAgICAgICAgICAgICAgICAgICAgICAgICAgICAgICAgICAgICAgICAgICAgICAgICAgICAgICAgICAgICAgICAgICAgICAgICAgICAgICAgICAgICAgICAgICAgICAgICAgICAgICAgICAgICAgICAgICAgICAgICAgICAgICAgICAgICAgICAgICAgICAgICAgICAgICAgICAgICAgICAgICAgICAgICAgICAgICAgICAgICAgICAgICAgICAgICAgICAgICAgICAgICAgICAgICAgICAgICAgICAgICAgICAgICAgICAgICAgICAgICAgICAgICAgICAgICAgICAgICAgICAgICAgICAgICAgICAgICAgICAgICAgICAgICAgICAgICAgICAgICAgICAgICAgICAgICAgICAgICAgICAgICAgICAgICAgICAgICAgICAgICAgICAgICAgICAgICAgICAgICAgICAgICAgICAgICAgICAgICAgICAgICAgICAgICAgICAgICAgICAgICAgICAgICAgICAgICAgICAgICAgICAgICAgICAgICAgICAgICAgICAgICAgICAgICAgICAgICAgICAgICAgICAgICAgICAgICAgICAgICAgICAgICAgICAgICAgICAgICAgICAgICAgICAgICAgICAgICAgICAgICAgICAgICAgICAgICAgICAgICAgICAgICAgICAgICAgICAgICAgICAgICAgICAgICAgICAgICAgICAgICAgICAgICAgICAgICAgICAgICAgICAgICAgICAgICAgICAgICAgICAgICAgICAgICAgICAgICAgICAgICAgICAgICAgICAgICAgICAgICAgICAgICAgICAgICAgICAgICAgICAgICAgICAgICAgICAgICAgICAgICAgICAgICAgICAgICAgICAgICAgICAgICAgICAgICAgICAgICAgICAgICAgICAgICAgICAgICAgICAgICAgICAgICAgICAgICAgICAgICAgICAgICAgICAgICAgICAgICAgICAgICAgICAgICAgICAgICAgICAgICAgICAgICAgICAgICAgICAgICAgICAgICAgPD94cGFja2V0IGVuZD0idyI/PgD/7QA4UGhvdG9zaG9wIDMuMAA4QklNBAQAAAAAAAA4QklNBCUAAAAAABDUHYzZjwCyBOmACZjs+EJ+/+INIElDQ19QUk9GSUxFAAEBAAANEGFwcGwCEAAAbW50clJHQiBYWVogB+gACwAbABYAFAATYWNzcEFQUEwAAAAAQVBQTAAAAAAAAAAAAAAAAAAAAAAAAPbWAAEAAAAA0y1hcHBsAAAAAAAAAAAAAAAAAAAAAAAAAAAAAAAAAAAAAAAAAAAAAAAAAAAAAAAAAAAAAAARZGVzYwAAAVAAAABiZHNjbQAAAbQAAAHqY3BydAAAA6AAAAAjd3RwdAAAA8QAAAAUclhZWgAAA9gAAAAUZ1hZWgAAA+wAAAAUYlhZWgAABAAAAAAUclRSQwAABBQAAAgMYWFyZwAADCAAAAAgdmNndAAADEAAAAAwbmRpbgAADHAAAAA+bW1vZAAADLAAAAAodmNncAAADNgAAAA4YlRSQwAABBQAAAgMZ1RSQwAABBQAAAgMYWFiZwAADCAAAAAgYWFnZwAADCAAAAAgZGVzYwAAAAAAAAAIRGlzcGxheQAAAAAAAAAAAAAAAAAAAAAAAAAAAAAAAAAAAAAAAAAAAAAAAAAAAAAAAAAAAAAAAAAAAAAAAAAAAAAAAAAAAAAAAAAAAAAAAAAAAAAAAAAAAG1sdWMAAAAAAAAAJgAAAAxockhSAAAAEgAAAdhrb0tSAAAAEgAAAdhuYk5PAAAAEgAAAdhpZAAAAAAAEgAAAdhodUhVAAAAEgAAAdhjc0NaAAAAEgAAAdhkYURLAAAAEgAAAdhubE5MAAAAEgAAAdhmaUZJAAAAEgAAAdhpdElUAAAAEgAAAdhlc0VTAAAAEgAAAdhyb1JPAAAAEgAAAdhmckNBAAAAEgAAAdhhcgAAAAAAEgAAAdh1a1VBAAAAEgAAAdhoZUlMAAAAEgAAAdh6aFRXAAAAEgAAAdh2aVZOAAAAEgAAAdhza1NLAAAAEgAAAdh6aENOAAAAEgAAAdhydVJVAAAAEgAAAdhlbkdCAAAAEgAAAdhmckZSAAAAEgAAAdhtcwAAAAAAEgAAAdhoaUlOAAAAEgAAAdh0aFRIAAAAEgAAAdhjYUVTAAAAEgAAAdhlbkFVAAAAEgAAAdhlc1hMAAAAEgAAAdhkZURFAAAAEgAAAdhlblVTAAAAEgAAAdhwdEJSAAAAEgAAAdhwbFBMAAAAEgAAAdhlbEdSAAAAEgAAAdhzdlNFAAAAEgAAAdh0clRSAAAAEgAAAdhwdFBUAAAAEgAAAdhqYUpQAAAAEgAAAdgAQwBvAGwAbwByACAATABDAEQAAHRleHQAAAAAQ29weXJpZ2h0IEFwcGxlIEluYy4sIDIwMjQAAFhZWiAAAAAAAADzFgABAAAAARbKWFlaIAAAAAAAAHHAAAA5igAAAWdYWVogAAAAAAAAYSMAALnmAAAT9lhZWiAAAAAAAAAj8gAADJAAAL3QY3VydgAAAAAAAAQAAAAABQAKAA8AFAAZAB4AIwAoAC0AMgA2ADsAQABFAEoATwBUAFkAXgBjAGgAbQByAHcAfACBAIYAiwCQAJUAmgCfAKMAqACtALIAtwC8AMEAxgDLANAA1QDbAOAA5QDrAPAA9gD7AQEBBwENARMBGQEfASUBKwEyATgBPgFFAUwBUgFZAWABZwFuAXUBfAGDAYsBkgGaAaEBqQGxAbkBwQHJAdEB2QHhAekB8gH6AgMCDAIUAh0CJgIvAjgCQQJLAlQCXQJnAnECegKEAo4CmAKiAqwCtgLBAssC1QLgAusC9QMAAwsDFgMhAy0DOANDA08DWgNmA3IDfgOKA5YDogOuA7oDxwPTA+AD7AP5BAYEEwQgBC0EOwRIBFUEYwRxBH4EjASaBKgEtgTEBNME4QTwBP4FDQUcBSsFOgVJBVgFZwV3BYYFlgWmBbUFxQXVBeUF9gYGBhYGJwY3BkgGWQZqBnsGjAadBq8GwAbRBuMG9QcHBxkHKwc9B08HYQd0B4YHmQesB78H0gflB/gICwgfCDIIRghaCG4IggiWCKoIvgjSCOcI+wkQCSUJOglPCWQJeQmPCaQJugnPCeUJ+woRCicKPQpUCmoKgQqYCq4KxQrcCvMLCwsiCzkLUQtpC4ALmAuwC8gL4Qv5DBIMKgxDDFwMdQyODKcMwAzZDPMNDQ0mDUANWg10DY4NqQ3DDd4N+A4TDi4OSQ5kDn8Omw62DtIO7g8JDyUPQQ9eD3oPlg+zD88P7BAJECYQQxBhEH4QmxC5ENcQ9RETETERTxFtEYwRqhHJEegSBxImEkUSZBKEEqMSwxLjEwMTIxNDE2MTgxOkE8UT5RQGFCcUSRRqFIsUrRTOFPAVEhU0FVYVeBWbFb0V4BYDFiYWSRZsFo8WshbWFvoXHRdBF2UXiReuF9IX9xgbGEAYZRiKGK8Y1Rj6GSAZRRlrGZEZtxndGgQaKhpRGncanhrFGuwbFBs7G2MbihuyG9ocAhwqHFIcexyjHMwc9R0eHUcdcB2ZHcMd7B4WHkAeah6UHr4e6R8THz4faR+UH78f6iAVIEEgbCCYIMQg8CEcIUghdSGhIc4h+yInIlUigiKvIt0jCiM4I2YjlCPCI/AkHyRNJHwkqyTaJQklOCVoJZclxyX3JicmVyaHJrcm6CcYJ0kneierJ9woDSg/KHEooijUKQYpOClrKZ0p0CoCKjUqaCqbKs8rAis2K2krnSvRLAUsOSxuLKIs1y0MLUEtdi2rLeEuFi5MLoIuty7uLyQvWi+RL8cv/jA1MGwwpDDbMRIxSjGCMbox8jIqMmMymzLUMw0zRjN/M7gz8TQrNGU0njTYNRM1TTWHNcI1/TY3NnI2rjbpNyQ3YDecN9c4FDhQOIw4yDkFOUI5fzm8Ofk6Njp0OrI67zstO2s7qjvoPCc8ZTykPOM9Ij1hPaE94D4gPmA+oD7gPyE/YT+iP+JAI0BkQKZA50EpQWpBrEHuQjBCckK1QvdDOkN9Q8BEA0RHRIpEzkUSRVVFmkXeRiJGZ0arRvBHNUd7R8BIBUhLSJFI10kdSWNJqUnwSjdKfUrESwxLU0uaS+JMKkxyTLpNAk1KTZNN3E4lTm5Ot08AT0lPk0/dUCdQcVC7UQZRUFGbUeZSMVJ8UsdTE1NfU6pT9lRCVI9U21UoVXVVwlYPVlxWqVb3V0RXklfgWC9YfVjLWRpZaVm4WgdaVlqmWvVbRVuVW+VcNVyGXNZdJ114XcleGl5sXr1fD19hX7NgBWBXYKpg/GFPYaJh9WJJYpxi8GNDY5dj62RAZJRk6WU9ZZJl52Y9ZpJm6Gc9Z5Nn6Wg/aJZo7GlDaZpp8WpIap9q92tPa6dr/2xXbK9tCG1gbbluEm5rbsRvHm94b9FwK3CGcOBxOnGVcfByS3KmcwFzXXO4dBR0cHTMdSh1hXXhdj52m3b4d1Z3s3gReG54zHkqeYl553pGeqV7BHtje8J8IXyBfOF9QX2hfgF+Yn7CfyN/hH/lgEeAqIEKgWuBzYIwgpKC9INXg7qEHYSAhOOFR4Wrhg6GcobXhzuHn4gEiGmIzokziZmJ/opkisqLMIuWi/yMY4zKjTGNmI3/jmaOzo82j56QBpBukNaRP5GokhGSepLjk02TtpQglIqU9JVflcmWNJaflwqXdZfgmEyYuJkkmZCZ/JpomtWbQpuvnByciZz3nWSd0p5Anq6fHZ+Ln/qgaaDYoUehtqImopajBqN2o+akVqTHpTilqaYapoum/adup+CoUqjEqTepqaocqo+rAqt1q+msXKzQrUStuK4trqGvFq+LsACwdbDqsWCx1rJLssKzOLOutCW0nLUTtYq2AbZ5tvC3aLfguFm40blKucK6O7q1uy67p7whvJu9Fb2Pvgq+hL7/v3q/9cBwwOzBZ8Hjwl/C28NYw9TEUcTOxUvFyMZGxsPHQce/yD3IvMk6ybnKOMq3yzbLtsw1zLXNNc21zjbOts83z7jQOdC60TzRvtI/0sHTRNPG1EnUy9VO1dHWVdbY11zX4Nhk2OjZbNnx2nba+9uA3AXcit0Q3ZbeHN6i3ynfr+A24L3hROHM4lPi2+Nj4+vkc+T85YTmDeaW5x/nqegy6LzpRunQ6lvq5etw6/vshu0R7ZzuKO6070DvzPBY8OXxcvH/8ozzGfOn9DT0wvVQ9d72bfb794r4Gfio+Tj5x/pX+uf7d/wH/Jj9Kf26/kv+3P9t//9wYXJhAAAAAAADAAAAAmZmAADypwAADVkAABPQAAAKW3ZjZ3QAAAAAAAAAAQABAAAAAAAAAAEAAAABAAAAAAAAAAEAAAABAAAAAAAAAAEAAG5kaW4AAAAAAAAANgAAp0AAAFWAAABMwAAAnsAAACWAAAAMwAAAUAAAAFRAAAIzMwACMzMAAjMzAAAAAAAAAABtbW9kAAAAAAAABhAAAKAnAAAAAM3cGQAAAAAAAAAAAAAAAAAAAAAAdmNncAAAAAAAAwAAAAJmZgADAAAAAmZmAAMAAAACZmYAAAACMzM0AAAAAAIzMzQAAAAAAjMzNAD/wAARCAL4BMYDASIAAhEBAxEB/8QAHwAAAQUBAQEBAQEAAAAAAAAAAAECAwQFBgcICQoL/8QAtRAAAgEDAwIEAwUFBAQAAAF9AQIDAAQRBRIhMUEGE1FhByJxFDKBkaEII0KxwRVS0fAkM2JyggkKFhcYGRolJicoKSo0NTY3ODk6Q0RFRkdISUpTVFVWV1hZWmNkZWZnaGlqc3R1dnd4eXqDhIWGh4iJipKTlJWWl5iZmqKjpKWmp6ipqrKztLW2t7i5usLDxMXGx8jJytLT1NXW19jZ2uHi4+Tl5ufo6erx8vP09fb3+Pn6/8QAHwEAAwEBAQEBAQEBAQAAAAAAAAECAwQFBgcICQoL/8QAtREAAgECBAQDBAcFBAQAAQJ3AAECAxEEBSExBhJBUQdhcRMiMoEIFEKRobHBCSMzUvAVYnLRChYkNOEl8RcYGRomJygpKjU2Nzg5OkNERUZHSElKU1RVVldYWVpjZGVmZ2hpanN0dXZ3eHl6goOEhYaHiImKkpOUlZaXmJmaoqOkpaanqKmqsrO0tba3uLm6wsPExcbHyMnK0tPU1dbX2Nna4uPk5ebn6Onq8vP09fb3+Pn6/9sAQwABAQEBAQECAQECAwICAgMEAwMDAwQGBAQEBAQGBwYGBgYGBgcHBwcHBwcHCAgICAgICQkJCQkLCwsLCwsLCwsL/9sAQwECAgIDAwMFAwMFCwgGCAsLCwsLCwsLCwsLCwsLCwsLCwsLCwsLCwsLCwsLCwsLCwsLCwsLCwsLCwsLCwsLCwsL/90ABABN/9oADAMBAAIRAxEAPwD+/iiiigAooooAKKKKACiiigAooooAKKKKACiiigAooooAKKKKACiiigAoopCQOpoAWikyOmaNw6ZoAWikyM4oJA6mgBaKbuXOM0b1oAdRTN60u9RwTQA6imhlPGaN60AOopm9aXeo4JoAdRTQynjNG9aAHUUzetLvUcE0AOopoZTxmjetADqKZvWl3qOCaAHUU0Mp4zRvWgB1FM3rS71HBNADqKaGU8Zo3rQA6imb1pd6jgmgB1FNDKeM0b1oAdRTN60u9RwTQA6imhlPGaN60AOopm9aXeo4JoAdRTQynjNG9aAHUUzetLvUcE0AOopoZTxmjetADqKZvWl3qOCaAHUU0Mp4zRvWgB1FM3rS71HBNADqKaGU8Zo3rQA6imb1pd6jgmgB1FNDKeM0b1oAdRTN60u9RwTQA6imhlPGaN60AOopm9aXeo4JoAdRTQynjNG9aAHUUzetLvUcE0AOopoZTxmjetADqKZvWl3qOCaAHUU0Mp4zRvWgB1FM3rS71HBNADqKaGU8Zo3rQA6imb1pd6jgmgB1FNDKeM0b1oAdRTN60u9RwTQA6imhlPGaN60AOopm9aXeo4JoAdRTQynjNG9aAHUUzetLvUcE0AOopoZTxmjetADqKZvWl3qOCaAHUU0Mp4zRvWgB1FM3rS71HBNADqKaGU8Zo3rQA6imb1pd6jgmgB1FNDKeM0b1oAdRTN60u9RwTQA6imhlPGaXcOmaAFopMjOKCQOpoAWikyOmaMgnAoAWiiigAooooAKKKKACiiigAooooAKKKKACiiigAooooAKKKKACiiigAooooA//0P7+KKKKACiiigAooooAKKKKACiiigAooppdV47+lADqKhLt1HAppyeCaAJyyjqaYZABxUXbjj8M0Z54/wDr0ASGQ+nHam73pmMc9OnNKfyHSgBckc5PamnpyaNwI4/xpN6545PtnNADj796P84qMMB83T3/AM//AF6UuKAH9Bz7Uh6c9qbvz0HX8aTzOeB+XX8qAJD796P84qPdjnp7/wCf/r0F/oB9KAJOg59qQ9Oe1M3seg6+2eaTzDnjGfbr+VAEp9+9H+cVFuIG79f/ANVLvPsPwoAk6Dn2pD057Uzex6Dr7Z5pPMOeMZ9uv5UASn370f5xUW4gbv1//VS7z7D8KAJOg59qQ9Oe1M3seg6+2eaTzDnjGfbr+VAEp9+9H+cVFuIG79f/ANVLvPsPwoAk6Dn2pD057Uzex6Dr7Z5pPMOeMZ9uv5UASn370f5xUW4gbv1//VS7z7D8KAJOg59qQ9Oe1M3seg6+2eaTzDnjGfbr+VAEp9+9H+cVFuIG79f/ANVLvPsPwoAk6Dn2pD057Uzex6Dr7Z5pPMOeMZ9uv5UASn370f5xUW4gbv1//VS7z7D8KAJOg59qQ9Oe1M3seg6+2eaTzDnjGfbr+VAEp9+9H+cVFuIG79f/ANVLvPsPwoAk6Dn2pD057Uzex6Dr7Z5pPMOeMZ9uv5UASn370f5xUW4gbv1//VS7z7D8KAJOg59qQ9Oe1M3seg6+2eaTzDnjGfbr+VAEp9+9H+cVFuIG79f/ANVLvPsPwoAk6Dn2pD057Uzex6Dr7Z5pPMOeMZ9uv5UASn370f5xUW4gbv1//VS7z7D8KAJOg59qQ9Oe1M3seg6+2eaTzDnjGfbr+VAEp9+9H+cVFuIG79f/ANVLvPsPwoAk6Dn2pD057Uzex6Dr7Z5pPMOeMZ9uv5UASn370f5xUW4gbv1//VS7z7D8KAJOg59qQ9Oe1M3seg6+2eaTzDnjGfbr+VAEp9+9H+cVFuIG79f/ANVLvPsPwoAk6Dn2pD057Uzex6Dr7Z5pPMOeMZ9uv5UASn370f5xUW4gbv1//VS7z7D8KAJOg59qQ9Oe1M3seg6+2eaTzDnjGfbr+VAEp9+9H+cVFuIG79f/ANVLvPsPwoAk6Dn2pD057Uzex6Dr7Z5pPMOeMZ9uv5UASn370f5xUW4gbv1//VS7z7D8KAJOg59qQ9Oe1M3seg6+2eaTzDnjGfbr+VAEp9+9H+cVFuIG79f/ANVLvPsPwoAk6Dn2pD057Uzex6Dr7Z5pPMOeMZ9uv5UASn370f5xUW4gbv1//VS7z7D8KAJOg59qQ9Oe1M3seg6+2eaTzDnjGfbr+VAEp9+9H+cVFuIG79f/ANVLvPsPwoAk6Dn2pD057Uzex6Dr7Z5pPMOeMZ9uv5UASn370f5xUW4gbv1//VS7z7D8KAJOg59qQ9Oe1M3seg6+2eaTzDnjGfbr+VAEp9+9H+cVFuIG79f/ANVLvPsPwoAk6Dn2pD057Uzex6Dr7Z5pPMOeMZ9uv5UASn370f5xUW4gbv1//VS7z7D8KAJOg59qQ9Oe1M3seg6+2eaTzDnjGfbr+VAEp9+9H+cVFuIG79f/ANVLvPsPwoAk6Dn2pD057Uzex6Dr7Z5pPMOeMZ9uv5UASn370f5xUW4gbv1//VS7z7D8KAJOg59qQ9Oe1M3seg6+2eaTzDnjGfbr+VAEp9+9H+cVFuIG79f/ANVLvPsPwoAk6Dn2pD057Uzex6Dr7Z5oEnOcfl1/KgCQ+/ej/OKj3Y56e/8An/69LvH0oAf0HPtSHpz2pu/PQdfxo8wZyOvt1oAeffvSjI6cVEGA+bp7/wCf/r04sv0oAkBK85o3sBkn/CmZBHHf8aXPPH/16AJPMPcU4OO/FQYxz06c0pHbp2oAsAg0tVu3HH4ZpQ5B4/z+FAFiioxJxlvzqTINABRRRQAUUUUAFFFFABRRRQAUUUUAFFFFAH//0f7+KKKKACiiigAooooAKKKKACmswXrTHf8AhXr/AFqM/kSe9ADy7E8Uwkf15xQBnGOtIMAf5zzQAoHb8OKTOBn2phbOQOvTp/Smkknngk55oAeWUN6+vFI0n+POP/11GSOOefTrTA4xhf8A6/PagCb5uh9un+NMySPwqFiTkH6dKaXGeepOeaAJyVz1H5UNIo659f8APeq3mA4x19//AK9NEnHyjH8+aALYYA9+w4pnmHH4fSqpfPHfpQZeeuCT3/yaALe8E9P0pDKR16def85qp5gPQ8/59aaJRjAz/I4PagC8GYH8hxTfMbH4fSqRkzxz6U4y89wSc8/5NAFzfz2/Kgykde3PP+c1RDg4x19//r0B1xgZ/rg9qAL4ZgfyHFN8xsfh9KolgeMEnp0pxkGfQk55oAu7+e35UGUjr255/wA5qiHBxjr7/wD16A64wM/1we1AF8MwP5Dim+Y2Pw+lUSwPGCT06U4yDPoSc80AXd/Pb8qDKR17c8/5zVEODjHX3/8Ar0B1xgZ/rg9qAL4ZgfyHFN8xsfh9KolgeMEnp0pxkGfQk55oAu7+e35UGUjr255/zmqIcHGOvv8A/XoDrjAz/XB7UAXwzA/kOKb5jY/D6VRLA8YJPTpTjIM+hJzzQBd389vyoMpHXtzz/nNUQ4OMdff/AOvQHXGBn+uD2oAvhmB/IcU3zGx+H0qiWB4wSenSnGQZ9CTnmgC7v57flQZSOvbnn/OaohwcY6+//wBegOuMDP8AXB7UAXwzA/kOKb5jY/D6VRLA8YJPTpTjIM+hJzzQBd389vyoMpHXtzz/AJzVEODjHX3/APr0B1xgZ/rg9qAL4ZgfyHFN8xsfh9KolgeMEnp0pxkGfQk55oAu7+e35UGUjr255/zmqIcHGOvv/wDXoDrjAz/XB7UAXwzA/kOKb5jY/D6VRLA8YJPTpTjIM+hJzzQBd389vyoMpHXtzz/nNUQ4OMdff/69AdcYGf64PagC+GYH8hxTfMbH4fSqJYHjBJ6dKcZBn0JOeaALu/nt+VBlI69uef8AOaohwcY6+/8A9egOuMDP9cHtQBfDMD+Q4pvmNj8PpVEsDxgk9OlOMgz6EnPNAF3fz2/Kgykde3PP+c1RDg4x19//AK9AdcYGf64PagC+GYH8hxTfMbH4fSqJYHjBJ6dKcZBn0JOeaALu/nt+VBlI69uef85qiHBxjr7/AP16A64wM/1we1AF8MwP5Dim+Y2Pw+lUSwPGCT06U4yDPoSc80AXd/Pb8qDKR17c8/5zVEODjHX3/wDr0B1xgZ/rg9qAL4ZgfyHFN8xsfh9KolgeMEnp0pxkGfQk55oAu7+e35UGUjr255/zmqIcHGOvv/8AXoDrjAz/AFwe1AF8MwP5Dim+Y2Pw+lUSwPGCT06U4yDPoSc80AXd/Pb8qDKR17c8/wCc1RDg4x19/wD69AdcYGf64PagC+GYH8hxTfMbH4fSqJYHjBJ6dKcZBn0JOeaALu/nt+VBlI69uef85qiHBxjr7/8A16A64wM/1we1AF8MwP5Dim+Y2Pw+lUSwPGCT06U4yDPoSc80AXd/Pb8qDKR17c8/5zVEODjHX3/+vQHXGBn+uD2oAvhmB/IcU3zGx+H0qiWB4wSenSnGQZ9CTnmgC7v57flQZSOvbnn/ADmqIcHGOvv/APXoDrjAz/XB7UAXwzA/kOKb5jY/D6VRLA8YJPTpTjIM+hJzzQBd389vyoMpHXtzz/nNUQ4OMdff/wCvQHXGBn+uD2oAvhmB/IcU3zGx+H0qiWB4wSenSnGQZ9CTnmgC7v57flQZSOvbnn/OaohwcY6+/wD9egOuMDP9cHtQBfDMD+Q4pvmNj8PpVEsDxgk9OlOMgz6EnPNAF3fz2/Kgykde3PP+c1RDg4x19/8A69AdcYGf64PagC+GYH8hxTfMbH4fSqJYHjBJ6dKcZBn0JOeaALu/nt+VBlI69uef85qiHBxjr7//AF6A64wM/wBcHtQBfDMD+Q4pvmNj8PpVEsDxgk9OlOMgz6EnPNAF3fz2/Kgykde3PP8AnNUQ4OMdff8A+vQHXGBn+uD2oAvhmB/IcU3zGx+H0qiWB4wSenSnGQZ9CTnmgC7v57flQZSOvbnn/OaohwcY6+//ANegOuMDP9cHtQBfDMD+Q4pvmNj8PpVEsDxgk9OlOMgz6EnPNAF3fz2/Kgykde3PP+c1RDg4x19//r0B1xgZ/rg9qAL4ZgfyHFN8xsfh9KolgeMEnp0pxkGfQk55oAu7+e35UGUjr255/wA5qkJBxjOf8+tAl4wM/wBcHtQBeDMD+Q4pPMOPw+lUTJnjn0p3m5PXBJzz/k0AXd4J6fpQZcdc+vOP/wBdUxJ0weffn+dCycYB/ocHtQBeDAHv2HFJvGOuOPeqe/Py9TyOlP8AMPcck55/yaALeVJ7flSlsfz/AC/WqgcHHY/n/OnK4xhTj9Dg9qALgLD9Bx/jQJOPwqtuJ46np0p/mAnkYJOeaALAKk//AFvWnEj+vOKgBDYweaVSQMD8u/PagCYDt+HFJnAyKbkNx36dKefyJPegCRXI4PNSgg8iqwGcY60Lx0+vvzQBZopquDx3p1ABRRRQAUUUUAFFFFABRRRQB//S/v4ooooAKKKKACiiigAqB3yCO1K7E8Dp+dMzzx/9egAPv3o/zikxgbunTmmM2eBwOlADiwX9KibJHzHpn6UhPGemfbPJqMyZbI/Tr+VAD2bB571GXPQ8deKhJAGR+fb9OtRM47/TGKAJy4HqRxUTvgfMR6VXaQ9uM+nNQmYBsjr7dfyoAtF+fXPc96YZMcfXiqJkwMn8+36dajMw6dB9KAL5l9SccVE0gA5x3HPSs8zZxjv7Z60z7QN2RwfbrQBpGX1796TzSOPrxWV5uBnOPft+nWmGcd8Y+lAGv5vHJOOKYZuOT6jnpWT5+eRxn2B60n2n5sjt6dfyoA1/O9e/fP8A9ajzscfXjNY4nwM9Pf8A/V1pDcA8ZxQBtedgcnjjvTTNx8x9Rz0rH8/PTv8AjyaBcjdkdfbOaANjzR370eaBx9eM1jiYAZ6e/wDnrR546ZwKANnzQBz04700yDHOO49qyPPz07/jyaBcjdkdfbOaANjzR370eaBx9eM1jiYAZ6e/+etHnjpnAoA2fNAHPTjvTTIMc47j2rI8/PTv+PJoFyN2R19s5oA2PNHfvR5oHH14zWOJgBnp7/560eeOmcCgDZ80Ac9OO9NMgxzjuPasjz89O/48mgXI3ZHX2zmgDY80d+9HmgcfXjNY4mAGenv/AJ60eeOmcCgDZ80Ac9OO9NMgxzjuPasjz89O/wCPJoFyN2R19s5oA2PNHfvR5oHH14zWOJgBnp7/AOetHnjpnAoA2fNAHPTjvTTIMc47j2rI8/PTv+PJoFyN2R19s5oA2PNHfvR5oHH14zWOJgBnp7/560eeOmcCgDZ80Ac9OO9NMgxzjuPasjz89O/48mgXI3ZHX2zmgDY80d+9HmgcfXjNY4mAGenv/nrR546ZwKANnzQBz04700yDHOO49qyPPz07/jyaBcjdkdfbOaANjzR370eaBx9eM1jiYAZ6e/8AnrR546ZwKANnzQBz04700yDHOO49qyPPz07/AI8mgXI3ZHX2zmgDY80d+9HmgcfXjNY4mAGenv8A560eeOmcCgDZ80Ac9OO9NMgxzjuPasjz89O/48mgXI3ZHX2zmgDY80d+9HmgcfXjNY4mAGenv/nrR546ZwKANnzQBz04700yDHOO49qyPPz07/jyaBcjdkdfbOaANjzR370eaBx9eM1jiYAZ6e/+etHnjpnAoA2fNAHPTjvTTIMc47j2rI8/PTv+PJoFyN2R19s5oA2PNHfvR5oHH14zWOJgBnp7/wCetHnjpnAoA2fNAHPTjvTTIMc47j2rI8/PTv8AjyaBcjdkdfbOaANjzR370eaBx9eM1jiYAZ6e/wDnrR546ZwKANnzQBz04700yDHOO49qyPPz07/jyaBcjdkdfbOaANjzR370eaBx9eM1jiYAZ6e/+etHnjpnAoA2fNAHPTjvTTIMc47j2rI8/PTv+PJoFyN2R19s5oA2PNHfvR5oHH14zWOJgBnp7/560eeOmcCgDZ80Ac9OO9NMgxzjuPasjz89O/48mgXI3ZHX2zmgDY80d+9HmgcfXjNY4mAGenv/AJ60eeOmcCgDZ80Ac9OO9NMgxzjuPasjz89O/wCPJoFyN2R19s5oA2PNHfvR5oHH14zWOJgBnp7/AOetHnjpnAoA2fNAHPTjvTTIMc47j2rI8/PTv+PJoFyN2R19s5oA2PNHfvR5oHH14zWOJgBnp7/560eeOmcCgDZ80Ac9OO9NMgxzjuPasjz89O/48mgXI3ZHX2zmgDY80d+9HmgcfXjNY4mAGenv/nrR546ZwKANnzQBz04700yDHOO49qyPPz07/jyaBcjdkdfbOaANjzR370eaBx9eM1jiYAZ6e/8AnrR546ZwKANnzQBz04700yDHOO49qyPPz07/AI8mgXI3ZHX2zmgDY80d+9HmgcfXjNY4mAGenv8A560eeOmcCgDZ80Ac9OO9NMgxzjuPasjz89O/48mgXI3ZHX2zmgDY80d+9HmgcfXjNY4mAGenv/nrR546ZwKANnzQBz04700yDHOO49qyPPz07/jyaBcjdkdfbOaANjzR370eaBx9eM1jiYAZ6e/+etHnjpnAoA2fNAHPTjvTTIMc47j2rI8/PTv+PJoFyN2R19s5oA2PNHfvR5oHH14zWOJgBnp7/wCetHnjpnAoA2fNAHPTjvTTIMc47j2rI8/PTv8AjyaBcjdkdfbOaANnzRn696POxx9eM1jCYAZ6e/8AnrR546ZwKANrzsDk8cd6aZuOT6j2rH8/PTv+PJpRcjdkdfbOaANjzvXv3z/9alEvb68ZrGE+Bnp7/wD6qXzweCQBQBtedgck44oMvHzHpkc9KxvPHbv7Zp63HzZHB9s5oA2fNyfr3PenLJ/XjNY6zYGc46c/5608TA8cY+lAGyJcDknHHWneZxzg9RWSs2cY4z+PJqVZxuz3/WgDVD+uee9Sq5HHXrxWUsmBnp057fpUwkHsBQBphx3Pp1//AF0/cQPm5xkVnrJnkd/bPWp0k+bK9R6dfy/+vQBeBz+PrTwSvH14qmuMZ6H1/wA9amDdjwOnSgC0CMflQenPaoeTyO/tnrUiuCff8c/lQA/nr+tSo2eD1qHGOenTmlI7dO1AFmimI+etPoAKKKKACiiigAooooA//9P+/iiiigAooooAKikb+EU9jgcde1QH8iT3oAMc/wD1qQkDr0684pQM4x1qInPyr0/I80AKSc4+nT/Goi2B+HTpQ3THU8gcVC7Y5PUnPNAAzAnccflUDy45OcDnH+eaaz5+vof/AK9VjIMcf4cHtQBKzEfoOOv51VeUgdcZHTpUEj5yO/I6c1Vkm59CTnmgCw8oz2/L/wDVVd58de3P+e9ZV/qVrYW7XV5IIo0G4s5wABz3rh7bxB4p8Tr5ng3Ts2rDK3d4/kRMD/dADSMD2YLtPrQNK56KZcH8unX86rNcfy+lcenhj4mXOTc6rp9tkdEt5Jv1Lp/Kp28GePicjxFadc/8g9v/AJIouh8rOja4GeSOfb/IqFrrHUnjnn2/WucbwR4/PTxFaf8Agub/AOSajPgXx90HiK0x/wBg9un/AIE0C5WdIbjH6dOv51EbrA/D6Vzp8B+PiMHxFadD/wAw5v8A5JpreAfH+SV8R2nXPOnN/wDJNAWZ0P2oE9RSNeY9eOefb8c1zx8AePv+hjtPx05j/wC3NJ/wr7x70HiO0x/2DmHB/wC3mgLM6AXBB79unX8+Kb9q98cfSudPw88fn/mZLTof+Yc3/wAk04/D7x/k48SWp5zzpzf/ACTQFmdB9qUnqPy60G8A6n35x2/Wuf8A+Fe+P+3iS1/8FzH/ANuaQfDzx+OB4ktcf9g5uh/7eaAszoRdYP0x0/x4pv2vj8K5/wD4V54/I58SWnQ/8w5v/kmnH4feP8nHiS1POedOb/5JoCzN/wC1rntQbwDr9ecf45rA/wCFe+P+3iS1/wDBcx/9uaQfDzx+OB4ktcf9g5uh/wC3mgLM6EXWD9MdOv58U37Xx+Fc/wD8K88fkc+JLTof+Yc3/wAk04/D7x/k48SWp5zzpzf/ACTQFmb/ANrXPag3gHX684/xzWB/wr3x/wBvElr/AOC5j/7c0g+Hnj8cDxJa4/7BzdD/ANvNAWZ0IusH6Y6dfz4pv2vj8K5//hXnj8jnxJadD/zDm/8AkmnH4feP8nHiS1POedOb/wCSaAszf+1rntQbwDr9ecf45rA/4V74/wC3iS1/8FzH/wBuaQfDzx+OB4ktcf8AYObof+3mgLM6EXWD9MdOv58U37Xx+Fc//wAK88fkc+JLTof+Yc3/AMk04/D7x/k48SWp5zzpzf8AyTQFmb/2tc9qDeAdfrzj/HNYH/CvfH/bxJa/+C5j/wC3NIPh54/HA8SWuP8AsHN0P/bzQFmdCLrB+mOnX8+Kb9r4/Cuf/wCFeePyOfElp0P/ADDm/wDkmnH4feP8nHiS1POedOb/AOSaAszf+1rntQbwDr9ecf45rA/4V74/7eJLX/wXMf8A25pB8PPH44HiS1x/2Dm6H/t5oCzOhF1g/THTr+fFN+18fhXP/wDCvPH5HPiS06H/AJhzf/JNOPw+8f5OPElqec86c3/yTQFmb/2tc9qDeAdfrzj/ABzWB/wr3x/28SWv/guY/wDtzSD4eePxwPElrj/sHN0P/bzQFmdCLrB+mOnX8+Kb9r4/Cuf/AOFeePyOfElp0P8AzDm/+Sacfh94/wAnHiS1POedOb/5JoCzN/7Wue1BvAOv15x/jmsD/hXvj/t4ktf/AAXMf/bmkHw88fjgeJLXH/YObof+3mgLM6EXWD9MdOv58U37Xx+Fc/8A8K88fkc+JLTof+Yc3/yTTj8PvH+TjxJannPOnN/8k0BZm/8Aa1z2oN4B1+vOP8c1gf8ACvfH/bxJa/8AguY/+3NIPh54/HA8SWuP+wc3Q/8AbzQFmdCLrB+mOnX8+Kb9r4/Cuf8A+FeePyOfElp0P/MOb/5Jpx+H3j/Jx4ktTznnTm/+SaAszf8Ata57UG8A6/XnH+OawP8AhXvj/t4ktf8AwXMf/bmkHw88fjgeJLXH/YObof8At5oCzOhF1g/THTr+fFN+18fhXP8A/CvPH5HPiS06H/mHN/8AJNOPw+8f5OPElqec86c3/wAk0BZm/wDa1z2oN4B1+vOP8c1gf8K98f8AbxJa/wDguY/+3NIPh54/HA8SWuP+wc3Q/wDbzQFmdCLrB+mOnX8+Kb9r4/Cuf/4V54/I58SWnQ/8w5v/AJJpx+H3j/Jx4ktTznnTm/8AkmgLM3/ta57UG8A6/XnH+OawP+Fe+P8At4ktf/Bcx/8AbmkHw88fjgeJLXH/AGDm6H/t5oCzOhF1g/THTr+fFN+18fhXP/8ACvPH5HPiS06H/mHN/wDJNOPw+8f5OPElqec86c3/AMk0BZm/9rXPag3gHX684/xzWB/wr3x/28SWv/guY/8AtzSD4eePxwPElrj/ALBzdD/280BZnQi6wfpjp1/Pim/a+Pwrn/8AhXnj8jnxJadD/wAw5v8A5Jpx+H3j/Jx4ktTznnTm/wDkmgLM3/ta57UG8A6/XnH+OawP+Fe+P+3iS1/8FzH/ANuaQfDzx+OB4ktcf9g5uh/7eaAszoRdYP0x06/nxTftfH4Vz/8Awrzx+Rz4ktOh/wCYc3/yTTj8PvH+TjxJannPOnN/8k0BZm/9rXPag3gHX684/wAc1gf8K98f9vElr/4LmP8A7c0g+Hnj8cDxJa4/7BzdD/280BZnQi6wfpjp1/Pim/a+Pwrn/wDhXnj8jnxJadD/AMw5v/kmnH4feP8AJx4ktTznnTm/+SaAszf+1rntQbwDr9ecf45rA/4V74/7eJLX/wAFzH/25pB8PPH44HiS1x/2Dm6H/t5oCzOhF1g/THTr+fFN+18fhXP/APCvPH5HPiS06H/mHN/8k04/D7x/k48SWp5zzpzf/JNAWZv/AGtc9qDeAdfrzj/HNYH/AAr3x/28SWv/AILmP/tzSD4eePxwPElrj/sHN0P/AG80BZnQi6wfpjp1/Pim/a+Pwrn/APhXnj8jnxJadD/zDm/+Sacfh94/yceJLU85505v/kmgLM3/ALWue1BvAOv15x/jmsD/AIV74/7eJLX/AMFzH/25pB8PPH44HiS1x/2Dm6H/ALeaAszoRdYP0x06/nxTftfH4Vz/APwrzx+Rz4ktOh/5hzf/ACTTj8PvH+TjxJannPOnN/8AJNAWZv8A2tc9qDeAdfrzj/HNYH/CvfH/AG8SWv8A4LmP/tzSD4eePxwPElrj/sHN0P8A280BZnQi6wfpjp1/Pim/a+Pwrn/+FeePyOfElp0P/MOb/wCSacfh94/yceJLU85505v/AJJoCzN/7Wue1BvAOv15x/jmsD/hXvj/ALeJLX/wXMf/AG5pB8PPH44HiS1x/wBg5uh/7eaAszoRdYP0x06/nxTftfH4Vz//AArzx+Rz4ktOh/5hzf8AyTTj8PvH+TjxJannPOnN/wDJNAWZv/a1z2oN4B1+vOP8c1gf8K98f9vElr/4LmP/ALc0g+Hnj8cDxJa4/wCwc3Q/9vNAWZ0IusH6Y6dfz4pv2vj8K5//AIV54/I58SWnQ/8AMOb/AOSacfh94/yceJLU85505v8A5JoCzN/7Wue1BvAOv15x/jmsD/hXvj/t4ktf/Bcx/wDbmkHw88fjgeJLXH/YObof+3mgLM6EXWD9MdOv58U37Xx+Fc//AMK88fkc+JLTof8AmHN/8k04/D7x/k48SWp5zzpzf/JNAWZv/a1z2oN4B1+vOP8AHNYH/CvfH/bxJa/+C5j/AO3NIPh54/HA8SWuP+wc3Q/9vNAWZ0IusH6Y6dfz4pv2vj8K5/8A4V54/I58SWnQ/wDMOb/5Jpx+H3j/ACceJLU85505v/kmgLM3/ta57UG8A6/XnH+OawP+Fe+P+3iS1/8ABcx/9uaQfDzx+OB4ktcf9g5uh/7eaAszoRdYP0x06/nxTftfH4Vz/wDwrzx+Rz4ktOh/5hzf/JNOPw+8f5OPElqec86c3/yTQFmb/wBrXPag3gHX684/xzWB/wAK98f9vElr/wCC5j/7c0g+Hnj8cDxJa4/7BzdD/wBvNAWZ0QucH6Y6dfzpv2sY69vpXPf8K88fkc+JLTof+Yc3/wAk04/D7x/k48SWp5zzpzf/ACTQFmdB9qUnqPy60v2v9Oe3/wCuue/4V74/7eJLX/wXMf8A25pB8PPH44HiS1x/2Dm6H/t5oCzOkW4KnjPbp1/PilF3x17fSua/4V54+PXxHad/+Yc3/wAk1IfAHj7nb4itDznnTm/+SaAszovtQz1H5df6VIbvHP49u361zP8AwgHj/t4jtP8AwXMf/bmlXwD4+Xj/AISK0x/2Dm6f+BNAWZ1S3GD19OnUfjTxc/y+lcp/wgfj/GP+EitOh/5hzf8AyTUv/CD+PwePEVp1z/yDm/8AkmgOVnWrcAnOevt/kVOLnGPbnnjp3rkB4J8ej/mYrT/wXN/8kmnjwb4+QYXxDaH/ALh7Dr/28UXQ+VnaJLg/px1/Op1mPHPb6f8A1q87fQPilanMF5pt4MdHSS3z+Xm1FF4xutMvY9M8YWT6XNM22J3IeCVvRZFyMnH3ThvagTTR6ksoJ9/pzVkS9M9ufy/WsKKcOAVPXp/k1cilGMD/AOvg9jQI2kfB/LkdRU6ucDPp9KyUfPHc8dKuLJzx1Jzg0AaCsAc8c+1TbuM/jzj/APXVJHzjH5H/AOvU6NgfL09OnB7UAXF/un2HFLnjj0qDG4ce46VKGzweCT3oAf0bI/PFTq2RUAGcY60q8dPr+dAFiiiigAooooAKKKKAP//U/v4ooooAKKKRjgZoAhcknBHFN/zikx/EevrSn8hQA1jtH5VA2AuW7ZFPJJ59fbPWoWfLcdvTr+VADWbJy3f1qqzEdevpTmOBu6e//wCrrVSR88dPw6UAI74HJ9M1RlfA57ZHtSyPkccZ/Hk1nyTDdkdR6dfyoAdJL69+/r/hVCSbaOff8qhlk2jPT3/z1rkvFOrf2ZoN5qAIHkxM3T0BoAp6Jpi/ELWptU1YeZo2nS+VBA33LmdPvOwPVEI2gcgsDnoM+2VyHw/00aR4I0qw27XW1jaT3lcbnJ9yxJNdfUNm6VkFFfM/7R37WXwj/Zi0mCfx7cyXGp3yO9lpdmBJd3ATgsFJVUQHALuVUE4znivzl/4fEt/am3/hWz/YM/6z+11+0Y/65fZdmf8Att+Nebic2wmHn7OtUSfbV/knY+xyTgHiDN8P9ay/CSnT/mbjFO3bma5vlc/bKivmb9nH9rL4R/tO6TPP4CuZLfU7FEe90u8Aju7cPwGKgsroTkB0JUkYznivpmvRo1oVYKpTleL6o+XzDL8TgcRPC4ym4VI7xkrNf107hRRXk3xR+M3g34T20Q153uL65Vmt7K3AaeUL1OCQFUHALMQMnHWsMdj8Pg6EsTi6ihTju27JGOHw1WvUVKjFyk9kj1mivhD/AIbQ1P7X/wAimv2b1/tAedj/AHPI2Z/7afjX0t8LvjN4N+LFtKNBd7e+tlVriyuAFniDdDgEhlJyAykjIx1r53JuOshzav8AVsBi4zqdrSi36cyV/lc9THcO5jg6ftcRRaj30dvWzdvmes0UUV9aeKFFfM37R37WXwj/AGYtJguPHtzJcanfI72Wl2YEl3cBOrBSVCIDgF3IUE4znivzk/4fGf8AE02f8K3f7Bn/AFn9rr9ox/1y+zbM+3m14+Nz/L8JU9liKyUu2r++ydvmfL5vxpkuWVvq+OxSjPtZtr15U7fOx+2lFfM37OP7WXwj/ad0me48BXMlvqdiiPe6XeAR3duH6MVBYOhOQHQlSRjOeK+ma9LD4ilXpqrRkpRezR72DxtDF0Y4jDTU4S2ad0wooorY6gooooAKKKKACiiigAooooAKKKKACiiigAooooAKKKKACiiigAooooAKKKKACiiigAooooAKKKKACiiigAooooAKKK57xb4u8L+AvDN9408bahb6TpGmQvcXd5dyLFDDEgyzu7EBQB3NAHQ0V+E3iH/g4h/4J/6L4rPh2wi8T6raK7IdStdOjFrwcBgJZ45ip6j91nHav1j+BX7S/wAE/wBpP4TQ/G34Oa7Bq/h6RXMsyZV7eSJQ0kU0ZAeORAQWRgDggjIIJAPdqK+efgB+1h+zv+1Naanffs/eKrTxPFozxR3rWokAhacMYw3mKv3gjYxnpX0NQAUUV836b+15+zbq/wAep/2YNN8W2k3j62LiXRgsnnr5cXntzs2cRfN97pQB9IUUUUAFFFfm/wDti/8ABVf9kH9iPxCngf4q6rd6l4jaITPpGiwrdXUKMAUM25444i4IKq7hivzYwQaAP0gor8uP2Rf+CwP7GX7ZHjSH4aeA9Rv9B8SXaFrXTddgS1kuSvLJC8cksTuBzsD7iMkAgHH6j0AFFFFABRRRQAUUUUAFFfl/40/4Kb+E/Bn/AAUK0n/gn7P4Uu59S1X7Pt1hblBAnn2xuRmLbuOANv3uvNfqBQAUUUUAFFFFABRRRQAUUUUAFFFFABRRRQAUUUUAFFFFABRRRQAUUUUAFFFFABRRRQAUUUUAFFFFABRRRQAUUUUAFFFFABRRRQAUUUUAFFFFABRRRQAUUUUAFFFFABRRRQAUUUVDRomFUtS02w1iwl0vVIVnt512yRuMqw6/oeQeoPI5q7RTiTJniejNe+E9fk8EalK80GzzrGaQ5Z4cgFWJ6tGcAnuCCcZwPQkl459x7ZrjPiyn2VdF1+IfvLW/SItjP7u4UoR9C2w/UCtyC5BII6+3WqMmjp45Sevfue/+FXo5McVzsMmAD06c9v8A69aUUgPHTtQI3EfH6ZqyrYHPTke2ayY3zjHf2zyavRyDdkfjjr+VAGkrYPPQ96mGR096ox8DHT3/AP1dasoQflPFAFoHjP0oPTntUak/n7Z5NS554/8Ar0ASoT0P4VJVYZX5hx71ZoAKKKKACiiigD//1f7+KKKKACoJG557VPUBO45/TvQA0Dt+HFRu3AA9KeRkY7/SomOTnoSc8/5NAEbkfifaq8j44/Hn2/WpWbcf8n+dU2bg47/ng0AMdsHvxgcdfz4rOlkOPw+lTynOR35HTvWdNJ+Bznn/ACaAIZpATnj8qy558dfrzj/9dSzSZ6dfz/nWNNLwQP8A6+DQA2aXB/Lp/jXl/wAT7tl8A6uyn/l0l9v4TXb3Mucjv0ryv4p3P/FA6wOmbWU8/wC6aAPrGKJYYlhTogCj8KkoopWRtzM/jo+L/wAVdW+OHxP1v4t61L5sms3DPb9SI7JWIt4lyThUjxx3Yse9eb5PWvR/i/8ACrVvgf8AE/W/hHrUXlS6NcOlv1AksmYm3lXIGVePHP8AeDDtXnGD0r8TxXtPbT9r8V3f16n+kOT/AFX6jQ+o29jyR5Lbctlb8D0f4QfFXVvgf8T9E+Lmiy+VLo1wj3HUCSyZgLiJsEZV488f3gp7V/YxX8c/wg+FWrfHD4n6J8I9Fi82XWbhEuOpEdkrA3ErYBwqR55/vFR3r+xivuuDfaexq3+G6t69f0P5l+kN9V+vYHkt7bklzd+W65L/AD57BX4o+JPFt5468QXvju/bfLq0hkQ/3bcE+SgyTgKmOPUk96/a6vxR8SeErzwL4gvfAl+uyXSZDGg/vW5J8lxkDIZMc+oI7V+Z+P31r6hg+S/seeXN25rLkv8ALnPz/wAN/Y/WK/N8dlb0u+b8eU5/c3Wug8N+LbzwL4gsvHdg2yXSZBI5/vW5I85DgjIZM8eoB7Vz+1uldB4b8JXnjrxBZeBLBd8urSCNx/dtwR5znAOAqZ59SB3r+bsn+s/X8P8AUr+2548lt+a6t+J+qY72P1ep7f4LO/pbX8D9rqKKK/0QP5iP44PjJ8V9X+N/xP1v4ta1L5smtXDvb8kiOzRiLeJc5wqx4OOm4k968w3N1r0/4yfCjV/gh8T9b+EutReVJotw6W/BAks3Ym3lXOMq0eBnpuBHavMNrdK/m/Ge19vU9v8AHd39b6n8HZr9Z+u1/rl/a80ua+/NfU9P+DfxX1f4IfE/RPi1osvlSaLcI9xyQJLN2AuImxjKtHk46bgD2r+x+v44Pg38KNX+N/xP0T4S6LF5smtXCJccEiOzRgbiVsZwqx5Gem4gd6/sfr9M8PPa+wr83wXVvWzv+h/QHgf9Z+pYvnv7Lmjy9uaz57f+ShRRRX6IfuIUUUUAFFFFABRRRQAUUUUAFFFFABRRRQAUUUUAFFFFABRRRQAUUUUAFFFFABRRRQAUUUUAFFFFABRRRQAUUUUAFfnD/wAFaPgb8T/2if2CfHHwy+D0Mt7r0q2d5DYwkB7xLO5imkhGcZYohZF6s6hR1r9Hq+N/28/FP7VXgb9m7VvGv7HFhbat4z0qWG4WwuIPtLXNopxMkUYZd0oUh1AOWClVBYgUAfym/sR/8FDv2P8A9mv4CS/sfftmfA15po5bqHVNRisYJb25+0yMwN1DdCGVJIlYIrLIWVUXaARX6r/Ab4A/B++/YJ8cyf8ABHn4nXVlNrt5b3OoTa7MZGszaI32iFoTa74pJoTtyYyHCqVbA3H4w1X/AILg/s0fFv4B3PgH9uD4LP4p+IFvbTWc0Ys7UWUkw3BWEk7fabNgSM+XG7IwJU54Hu//AAb6fst/HDwN8F/id8SfHOnXGi6R4/tbO10WG7UxNdfZ0ud1xsb5hH++VUYgBxuIyACQD4c/4ICfDX9rDxb8R9X8XfBPxnZ6B4I0PV9Kk8WaVOMy6nAwmKJH+5kwQocf6yP73X0/U79sBf8Agrz8Tv2h9a0Lwd4w0L4F/CuyeWLSNVv9Rson1BYSAJHZGnug8xy6rtiVI+GG/wC9+Z//AARB/aZl/Ys/aG8Q/sffG7wlq9l4g+IWraZYW2YljazurczowuElZD5Z8wEOm7oeCCDXzZ8Qta+FfhH/AIKP/Ey6/wCCsHhLxZ4yWe9vU0iy02WSMvuuCbTysz27taGAgQCKUBQQNp7AH69/8Epf29f2tPjB8c/iX+xD8evFOn+Kdc0DTdSl0fxHaiKRBc2MyWpAmgRUmgYyCWN2j34BBJyFH4/+Cfg1+3jef8FcdU+E+gfEXT7b40RNc/aPFDKfsrldPEj4H2Y/et/3Y/cDn0619Mf8EP7KwsP+Crnjm10jwzN4Ls10PWjbaDcPJJNpsBu7Yx28jzEyM8SEKxf5iQcgdKu/tR/FbXP+CfH/AAXF1f8Aar+KfhjUr3wreOZreS2jC/a7e70xbdmt3kKxu0UhIZSw5UjjINAH3l/wVC/4KI/tIfs/eIPh1+wz8E9dsdN+Iuvadpja94qunhit4pbkm3wj3CCKISSI0skrKPLjK7QCTt+R7P8Ab9/bJ/4JzftB+EbD9oP4waB8cPh/4pyuoNpF9DfPZBWRZXDqizRSQ7w6K37qZMgYYEpH/wAFmPghf6x8cfht/wAFHrvwfc+L/hXrelaO+vaZ5jwzRIpM3lTvA26FZoHVVlViqyKQTyu7xnwt4k/4Jo/tKfGPw38I/wBiT9k/U/Fl3qRVdQm1nW9QsI7JXZQZH+zXV0oijGS8sjLjGFBJ5AP7YwQRkV/Er+1da+Nf+Cff/BWLxL+1L+0D8Nj8QPBmu6ld6hp0t6ga0kivh+7MUrJJEs9r9xY5F3AKCAAUev7ZoYo4IVghGEQBVHoB0r+aP4+f8FU/2rf2JP2vPEPwy/bf8DQ698J9RlvF0S40yyVJLmzaQNbyLJK5hnZI8JPCzIQxzkAAMAcj8H/i/wD8Edf+CgH7V/g/4naZb6z8LPihp93aPptsqQaZbX97aS+dCS8CzQySlgEG9onkGEAJ2ivtP/goRe/8FUvF/wAbbXwJ+zTqukfC74WwRRLc+L9RvbGJp7iSMvIWEjS3KIhxEixwqzOCxYoQR+AnxHn8H/8ABT/9vrwdf/8ABPj4XXPgqysJLN9Vvo7eG0VDFceY99cx2xa3hMakAHezykAcsVWvTf8AgpZqOjeGf+Cs2o67/wAFENG8R+IPhUqIdHtNLlaNHsjbII/sxaSJdonB+0LHJGxkDHOeCAfbP7Af7eP7YPw7/wCCiifsE/tLePNL+KGk6mskNtrNg8VykUyWbXkbxXMSRu4dR5cqShir9CACW5D4y/tkf8FJvEf/AAVm8Y/sffsxeLoUjuZpbLSrTU4ofsGnqbBJpLl28l3PkjfIoO8F8Da/3T8KfsSR/DU/8Fq/AN78GfAt/wDDrwldzyT6RoupyTS3iWj6VNtmlaeSV83HMwG9lCuApYAMfuj4Mg/8RKfir63/AP6aUoA8a8Hfthf8Fhvgp+2Fr/8AwT71nxXp/i3x1r7R2FheagEls7Ca5jS6F9BJ5CMY1tizGN4yq/8APMsu0+4fs4/taf8ABRb9k3/gpr4f/Yu/bF8ZQ+N9O8UywwSMoWaIfb0Jt7i2lMMMqbZBsdGUJjfhc7WFTx3/AMrNWjfW2/8AUfNH7cQ/46DvhB9fD/8A6NmoAyv2gP24v+Cks3/BVzxd+yV+zB4lF19suzp2jaZew25s7MPZJLJcMxjLEQL5k3zFhkcq/wBwnhv9sj/gph/wTr/bh8JfBb9unxPB428MeM5bdJJImjkt/Ju5fI+0W03kQyo1vJy8TKqsvG3lHHzN8avjT4+/Z1/4LveNfjd8PfDVx4um8OXktxfaXaAmabT20xI7lkwCd0UTmQYBAK5b5Qaf8Xvjn4w/4Lcf8FAPhtofwg8IXmmeGPCxgW7a6YM8Fn54mu7i4dMpGCihI0ySzAAElsAA+qvjn/ysl+D/AK6d/wCmx66r9tD/AIKJ/tOfH39ui/8A2Jf2VPHmk/CbQvC0txaar4h1a5htFnubUfvyZpVZkWN/3UUUPzu2WY7fuct8cwf+Ikvwf9dO/wDTY9fJ37Z/7P8A8Ov2Mv8Agpl4m+Lv7avw8vfHfwh+IV9qGqWs1hNLCVm1B/PYo0csAM8EpZDDJKoaNt4/hoA++v2Bv+CiH7SXwv8A25B+wX+1V420n4p6frjCLR/E2k3MN0kNw0JnjHnQqpkSUDy2SUeZHJjB2df6ea/k5/4J4D9jH9oL9tjTNX/Y5/Zmu9K8L+GZxev4z1XWtQDWEkEZKn7MZp7YyvIQqQ+azMpLsAA23+sagAooooAKKKKACiiigAooooAKKKKACiiigAooooAKKKKACiiigAooooAKKKKACiiigAooooAKKKKACiiigAooooAKKKKACiiigAooooAKKKKACiiigAooooAKKKKACiiigAooooA8s+MoA8CPN3jvLAj8bmJf5Gq0FzgDPYZ5/wA5qT42nb8Orgj/AJ+9P/8ASuGuftLgFAB/geaCZHbQS8jr2HHX8+K1IZiQD7fSuTglyMdT06VtwzZPuT3/AMmgk6WKQE89/brWikuMZ7c//X9awYJM4weff/69acEnGB+XQ4PagDajznHPGOR1/OrCsSAenFZsZzx37cVfRufTJzz/AJNAFwENz6+1TBvl5/Wq0Zz8vf3/APr1NH/dH/1+aAJQO34cVLGcrUJGRjv9KkQgMc8Z9aAJqKKKACiiigD/1v7+KKKKAGPjbz7VAenPap3+7UOeeP8A69ACNnH171AflH58U9xjnp05qGT06A0AQucLg9OKoynAOe2Rz0zVmRs8gfpnk1RkfDcdR6dfyoAqzNz9e57+tZUz44/T/P51bmOBnp7/AP6utZFw/UHgelAFO4lwOSccVg3UuAckcZHtV65k7jv7Z5Nc9cz/ADZHX260AU7qc/n/AJ9K8n+KVxjwFq4/6dJuP+Amu/upcDPT3ryP4p3H/FB6wOmbWUdP9k0Afd3TiilJyc0lBofM37R37Jvwj/ad0mCDx7bSW+p2KOllqlmRHd24fkqGIZXQnBKOCpIzjPNfnN/w52b+1N3/AAsl/sGf9X/ZC/aMf9dftWzP/bH8K/bKivNxWUYPET9pWppy76r77NX+Z9jknH/EGUYf6rl+LlCn/K1GSV+3MpcvysfM37OP7Jvwj/Zi0meDwFbSXGp3yIl7ql4RJd3ATkKWAVUQHJCIAoJzjPNfTNFFd1GjClBU6cbRXRHzWPzDE47ETxWMqOdSW8pO7f8AXTsFeTfFH4M+DfixbRHXke3vrZWW3vbchZ4g3UZIIZScEqwIyM9a9ZorDHYDD4yhLDYump05bpq6Zjh8TVoVFVoycZLZo+EP+GL9T+1/8jYv2b0/s8edj/f8/Zn/ALZ/hX0t8Lvgz4N+E9tKdBR7i+uVVbi9uCGnlC9BkABVByQqgDJz1r1mivncm4FyHKa/1nAYSMKne8pNenM3b5WPUx3EWY4yn7LEVm49tFf1slf5hRRRX1p4p8zftHfsm/CP9p3SYLfx7bSW+p2KOllqlmRHd24fqoYhg6E4JRwVJGcZ5r85P+HOf/E03/8ACyH+wZ/1f9kL9ox/11+07M+/lV+2lFePjcgy/F1Pa4iinLvqvvs1f5ny+b8F5Lmdb6xjsKpT73ab9eVq/wA7nzN+zj+yb8I/2YtJnt/AVtJcanfIiXuqXhEl3cBOilgFCIDkhEAUE5xnmvpmiivSw+HpUKapUYqMVske9g8FQwlGOHw0FCEdklZIKKKK2OoKKKKACiiigAooooAKKKKACiiigAooooAKKKKACiiigAooooAKKKKACiiigAooooAKKKKACiiigAooooAKKKKACiiigDBu/Cvhi/1eLxBfabazX9vxFcyQo0yD/ZcjcPwNb1FFACYBOSORUMtrazyxzTRq7xElGYAlSeuD2/Cp6KACkIDDDDIpaKAGuiyKUcBlYYIPIINUtP0rTNJhNvpVtFaxsSxWJAgJPU4AHNX6KACqWoabp2r2cmnarBHdW8o2vFKgdGHoVOQfxq7RQBnaVo+k6DYppeh2sNlbR8JDAixxr9FUACrVxa2t2qpdRrKFYMA4DAMOhGe4qeigAooooAKKKKAPxm8Cf8EzviT4T/4Ks6z/AMFALrxFpkugal9o2aYiy/bF86yFqMkr5fDDcfm6e9fsjb2dpaFzaxJEZGLvsULuY9zjqferFFABVa8srPULZrO/iSeFxhkkUMrD3ByDVmigCC1tbWxt0tLKNYYoxhUQBVUegA4FT0UUAFFFFABRRRQAUUUUAFFFFABRRRQAUUUUAFFFFABRRRQAUUUUAFFFFABRRRQAUUUUAFFFFABRRRQAUUUUAFFFFABRRRQAUUUUAFFFFABRRRQAUUUUAFFFFABRRRQAUUUUAFFFFAHkHx2fZ8M7pv8Ap707/wBLIa4m0n+QZx079K6/4/sV+Fl4R/z96d2z/wAvkNea2Vz0I6+2c0EyO/tpycZ71v20uMD9K4izlwAenv8A/q610ltKOB2PtQSdfBLwMk44rXibjn/62a5m3kyBjv7Z61uW8mWBHX26/wCc0Ab0TH8+/rmr8Z4x+OKyITgA9Pf/APV1rRjYDigDTRsYJ6cVN2yT0z9KqIc9B19s9atK2cEdfbr+VAFk88+tH+cUxBhc9PenkdunagCzRRRQAUUUUAf/1/7+KKKKAIHJLY7U0kf15xQBnGOtAAxgfl35oAiOd36cdqrOefw/pU7DJI+o6VWc4B9Se9AFWQg/U+1Z0z45OfXn26e9XpT2HX/PrWZIRggf4HBoAozNg/THTr+dYVxJx+H0rTuCDkd+R0rDunxntk55oAybqTOemfpXNXk2Ovbnt/8ArrYu5M9P15/nXK3cuAQP8DzQBk3cpB/w/wAeK8d+Kdwf+EE1f/r0l9v4TXpd9LnI6nkV458VJ8eBtX9TbS9f900Affxn8cknZpEDDJGftfXH/bOjzvHn/QHg/wDAsf8AxuvR4fufi38zTLu7tdPtZb++lSGCBGkkkkYKiIoyWYngADkk9KB3Z5353jz/AKA8H/gWP/jdHnePP+gPB/4Fj/43UH/C8/gkUEn/AAmOh7T0P9oQY5/4HXz9qn/BST/gnnomqXWh638dPAFle2Mz29xb3HiOwililiYq6OjTBlZWBBBGQRQF2fRHnePP+gPB/wCBY/8AjdHnePP+gPB/4Fj/AON1518Iv2yP2R/2gPFMvgf4E/E/wp401mC2e9lsdD1i11C4S2jZEaVo4JHYIGkRSxGAWA7ivpGgLs8z87x5/wBAeD/wLH/xujzvHn/QHg/8Cx/8brkfDX7TnwR8YftBeJf2WfDmtfavHXhCwtdT1fTlt5wLW2vQDCzTmMQFnDAhBIXxztxzXvVAXZ5n53jz/oDwf+BY/wDjdHnePP8AoDwf+BY/+N11HiLxl4Q8IJFJ4s1Wz0tbgkRG7nSAOV6hd5GcZ5xUvh7xX4W8XWsl94T1K11SGJ/KeS0mSZVcAHaShIBwQcdcGgLs5LzvHn/QHg/8Cx/8bo87x5/0B4P/AALH/wAbrM+H3x7+EPxU8deLvhp8P9bh1PXPAd1BZa/aRo6tZXFyhkjRyyhSWQE/IWx3r1+gLs8z87x5/wBAeD/wLH/xujzvHn/QHg/8Cx/8brC1/wDaH+Dnhf45aB+zZr2tLb+NvFFhdanpemmGYm4tbP8A1ziUIYV2d1Zwx7A17TQF2eZ+d48/6A8H/gWP/jdHnePP+gPB/wCBY/8AjdZ3gT48/CH4m/EHxd8KfAmuwal4h8BTWtvr9jGHEljLeo0kCyblAzIilhtJ4Hau5j8Z+EJvFcngOHVbN9cht1u5NOE6G7S3Y7RKYc7whbgMRgnjNAXZy/nePP8AoDwf+BY/+N0ed48/6A8H/gWP/jddtr2vaF4W0W68SeJ72DTdOsYmnubq6kWGGGJBlnd3IVVUckkgAVJo2s6P4j0i18QeHruG/sL6FLi2ubeRZYZoZQGR0dSVZWUgqwJBByKAuzhfO8ef9AeD/wACx/8AG6PO8ef9AeD/AMCx/wDG69MooC7PM/O8ef8AQHg/8Cx/8bo87x5/0B4P/Asf/G69MooC7PM/O8ef9AeD/wACx/8AG6PO8ef9AeD/AMCx/wDG69MooC7PM/O8ef8AQHg/8Cx/8bo87x5/0B4P/Asf/G69MooC7PM/O8ef9AeD/wACx/8AG6PO8ef9AeD/AMCx/wDG69MooC7PM/O8ef8AQHg/8Cx/8bo87x5/0B4P/Asf/G69MooC7PM/O8ef9AeD/wACx/8AG6PO8ef9AeD/AMCx/wDG69MooC7PM/O8ef8AQHg/8Cx/8bo87x5/0B4P/Asf/G69MooC7PM/O8ef9AeD/wACx/8AG6PO8ef9AeD/AMCx/wDG69MooC7PM/O8ef8AQHg/8Cx/8bo87x5/0B4P/Asf/G69MooC7PM/O8ef9AeD/wACx/8AG6PO8ef9AeD/AMCx/wDG69MooC7PM/O8ef8AQHg/8Cx/8bo87x5/0B4P/Asf/G69MooC7PM/O8ef9AeD/wACx/8AG6PO8ef9AeD/AMCx/wDG69MooC7PM/O8ef8AQHg/8Cx/8bo87x5/0B4P/Asf/G69MooC7PM/O8ef9AeD/wACx/8AG6PO8ef9AeD/AMCx/wDG69MooC7PM/O8ef8AQHg/8Cx/8bo87x5/0B4P/Asf/G69MooC7PM/O8ef9AeD/wACx/8AG6PO8ef9AeD/AMCx/wDG69MooC7PM/O8ef8AQHg/8Cx/8bo87x5/0B4P/Asf/G69MooC7PM/O8ef9AeD/wACx/8AG6PO8ef9AeD/AMCx/wDG69MooC7PM/O8ef8AQHg/8Cx/8bo87x5/0B4P/Asf/G69MooC7PM/O8ef9AeD/wACx/8AG6PO8ef9AeD/AMCx/wDG69MooC7PM/O8ef8AQHg/8Cx/8bo87x5/0B4P/Asf/G69MooC7PM/O8ef9AeD/wACx/8AG6PO8ef9AeD/AMCx/wDG69MooC7PM/O8ef8AQHg/8Cx/8bo87x5/0B4P/Asf/G69MooC7PM/O8ef9AeD/wACx/8AG6PO8ef9AeD/AMCx/wDG69MooC7PM/O8ef8AQHg/8Cx/8bo87x5/0B4P/Asf/G69MooC7PM/O8ef9AeD/wACx/8AG6PO8ef9AeD/AMCx/wDG69MooC7PM/O8ef8AQHg/8Cx/8bo87x5/0B4P/Asf/G69MooC7PM/O8ef9AeD/wACx/8AG6PO8ef9AeD/AMCx/wDG69MooC7PM/O8ef8AQHg/8Cx/8bo87x5/0B4P/Asf/G69MooC7PM/O8ef9AeD/wACx/8AG6PO8ef9AeD/AMCx/wDG69MooC7PM/O8ef8AQHg/8Cx/8bo87x5/0B4P/Asf/G69MooC7PM/O8ef9AeD/wACx/8AG6PO8ef9AeD/AMCx/wDG69MooC7PM/O8ef8AQHg/8Cx/8bo87x5/0B4P/Asf/G69MooC7PM/O8ef9AeD/wACx/8AG6PO8ef9AeD/AMCx/wDG69MooC7PM/O8ef8AQHg/8Cx/8bo87x5/0B4P/Asf/G69MooC7PM/O8ef9AeD/wACx/8AG6PO8ef9AeD/AMCx/wDG69MooC7PM/O8ef8AQHg/8Cx/8bo87x5/0B4P/Asf/G69MooC7PM/O8ef9AeD/wACx/8AG6PO8ef9AeD/AMCx/wDG69MooC7PM/O8ef8AQHg/8Cx/8bo87x5/0B4P/Asf/G69MooC7PM/O8ef9AeD/wACx/8AG6PO8ef9AeD/AMCx/wDG69MooC7PM/O8ef8AQHg/8Cx/8bo87x5/0B4P/Asf/G69MooC7PM/O8ef9AeD/wACx/8AG6PO8ef9AeD/AMCx/wDG69MooC7PM/O8ef8AQHg/8Cx/8bo87x5/0B4P/Asf/G69MooC7PM/O8ef9AeD/wACx/8AG6PO8ef9AeD/AMCx/wDG69MooC7PM/O8ef8AQHg/8Cx/8bo87x5/0B4P/Asf/G69MooC7PM/O8ef9AeD/wACx/8AG6PO8ef9AeD/AMCx/wDG69MooC7PM/O8ef8AQHg/8Cx/8bo87x5/0B4P/Asf/G69MooC7PM/O8ef9AeD/wACx/8AG6PO8ef9AeD/AMCx/wDG69MooC7PM/O8ef8AQHg/8Cx/8bo87x5/0B4P/Asf/G69MooC7PM/O8ef9AeD/wACx/8AG6PO8ef9AeD/AMCx/wDG69MooC7PM/O8ef8AQHg/8Cx/8bo87x5/0B4P/Asf/G69MooC7PM/O8ef9AeD/wACx/8AG6PO8ef9AeD/AMCx/wDG69MooC7Pk/4+XHir/hV92uq6dFbQ/atP3Otx5hH+mQfw7Bnn3rzyxueFyenP+e9e4/tPHb8H74j/AJ+dO/8AS23r5106b5AB/gcHtQK56NZSkEdeMdOv58V09pKSB9PpXB2UmeOp6dK620lz9Sc8/wCTQB2dtICe35cmt+CTGM/XnH/665S0kzgA810Nqwxgf4cH/P6UAdLAeR+A46/nWjExwPpWLCd3H1HStaJvzJzz/k0AakZBIP8ATrVxGx1+vOP/ANdUYz0x19D/APXq3Fj+H8uhwe1AFtBzj6Dj/HinZ449KjUZJHfp0qU/kSe9AEqMScHmpKgTG4VPQAUUUUAf/9D+/iiiigCt0HPtTH+4cnpT+3HH4ZprH06+2c/lQBCxIGfX175qq/AA+vFWGXCZ6dOf/wBXWq0mOB0H0oAoyHjrxkVlT/dJb0I9q0peV4757Z5NZUzDdkdfbr+VAGXcnrnv39a5+5YgY/Stm4GBnp7/AP6utc7dkcjgDgdKAMK8fA5PHFclfPwc+49q6K9c4yB19s9a5C9kAbI6+3XH0/8Ar0Ac5fynJz39a8Y+KcuPAurD/p1l4/A16tfvgZ6e/wD+rrXi3xUk/wCKH1YZAH2WTt/smgD9bofufi38zWH4u0Pw34m8Kan4b8ZQxXGj6haT219FOcRPbSoVlVzkYUoSDz0rch+4f95v5mmXdpa39rLY30azQTI0ckbgMrowwQQeCCOCDQB/IV8LvgF/wRm1n/grn4w8CwWnw2uPh5/wgOiyaLEmoWjac+uTXrq4t3E217pk2AqrF8EccivMf2KvDHxg1Pw78RLrwR4b/Zs1Ox/4WL4rAn+J0s6eINwv5MhxHbSr5I/5ZfN07V7V8VdV/wCCXv7EP/BYjxrbfF3wB4WtdEtvh9oJ8O+HtJ8NW97LJrzX0jKLKzggYJeMoU+ZhCBglwMV886H8HdX/Zp/aD8UfstfGf8AY68B/GDxx4hm8UfEe21rU9ctIrg+HzeyFfN3WNx5ewnYitJlicYFAH2z/wAE+tJ8b6T/AMFs7uDx7pXwr0m6PwRvGji+EryPpLR/29aDdcGSKE/as5DYUjywnNfW3/BRXwr8Yf2bdJ8Y/tYeNv2wNf8Ahn4NkkeTTPD0GkaXOPtC27SJYWb3KmSaabyXaNM569FUmvl7/gj18F/FPxK/az0v/go78PPgX4b+CHwq8W/C650KysdB1OG7N5eyarb3K3EsUdvbMjNHEyHKHAjXLcgDyb/grD4B/bm+JX7Wvwh+If7R76VofwZ0P44eEPDfhTwvZyi9/ttL2ZpJNUvidoVvLjMKQunyb5FA25lmAMP4FfsRftufs4/sk+OP+Cmnx9/aD8W+CfGvjDRx4v8AGum6Poel3+oSW2nxO1rExvBEvnx2zcxAwpGzFP4cn9FfhF+x/wDtz/HL4OeF/jH4X/bJ8b2eneMNGsdatIbzw3oqXMUGoQJPGsoiV1Eiq4DBJGAYHDEc15d/wVA/ZQ/bu0v9kP47/ETU/wBqHUr7waNB17UT4TbwrpSxNpzRyyCw+2BTcBRGRF5wIfA3da7f9h79kD/goJffs4fBzxla/tYapbeGX8O+Hb5fDy+EdHKJYfZoJBZC62icqIv3Xmk78fMcmgDG/wCCpHwn+FXi39oz9jD4UftRSWXinw4da1201q41zZFb3rQaPnzZwSqKZJkV8ZxuwBX5cfBb4hfsC/A2/wDjT8C/Efxt8YfATQ4PjJ4hufDq/DQXWy8sILKwiEby2thfxmGPcCitt5OQTX7Ff8FUvhZ8OfjX+2n+x98L/i3oln4j8O6t4n8SpeadfxLPbTrHpLyKHRshgHVWGe4Br8pfh54h+P8A+w74P/ad+I/7KHifSPhz8L/Avxj1ex1TTIfCz661vDJDp0cU0UUMsPk21uhYynOFUZAJwCAfJH7OPxc/YW8KftDfHPxD8R/2u/jN4L0HWNc01tB12we8ivPEMS2gSSe+YaLIWlil/dR7o4Ts6Kw+av371b4q/s5fFX/glfqPjL4QfGr4w+KfCvw21FxqPi7wz9oh8bXktu4lljc3dnAZYo47pTIxhWNYowd3yGvzu/4KaaB/wUU8Y/sX+D/il4w+Ofgjx14K17xZ4VuNKl0Pw41sJZbq7jNpcrMbmQNGjEMyYyw4yDX7e6z8fvj1+wb+y/d/EL9ti6uvi/4ouNbFlpcHw/8AD0wmuPtaKttbfZlZwjGVZAZZJAhLqoJYqpAP5i/DPhL4bfEq7+JP/BT7Xv2hvjKPgv8ACrT38PeBfEN3r8MPirxBrNyFa6t7NpbIeTbSMUhWJoA7sfMZlEbqv6Jj4JeJPhd+0v8AsQ+KfGPiv4i+Ib/xn4l1vV5bH4lapFqeqaQZNDBNpugjijQKwDMu3O77wVsqPgnxv8LfD/7JXxXuP22f2mfBWnaF8Uvifr8WofCX9n/Srw3Flb+IbkC2t9X1WMyCATK7BiUWNBIxA2udsX6mfEbwT8f/AIXfH39gHwf+1j4wHjX4hr4j8TzaxqYiihjNxNpbsYYhEkYaODesSyFdz7dxxnAAPpn/AIJ8qq/8FNv23CBjOveDv/TQa8x/ZCvX8c/8FT/2zf2qY9Nl1q88C2mh+CtDtIB/pEkdnZm5vLeMnjdNcxR7ffrXqH/BPr/lJt+25/2HvBv/AKZzXw7+wH+1ePgv/wAFHfjn+zHBo0eqar44+LPjHXfEF/Lc/Z49C8OaPYWssF3INj7xLLMIVBKjOSWGOQDsP28f+Cm/xO+JP7C/xc+Hev8A7Lfxf8Mya14N1qzn1LUNIt/7MsFltJVaeedbjIhiBLuwTIUE4r6a/wCCSf7S37VvxJ+Cvwi+GGufAXUPB/w30bwHpFunjHU9XtD9te1sYI7c2+nx5n8q4ALrIxwq4yMmvmX9rn/grzoP7TP7Gfxh0X4A/Az4oeLfAeueEvEOjxeN7bRlj0eQT2k9sbqLzJVlktomJMsgQMiqxK5GK+3P+CLv7Z37Of7Sn7DXwy+G/wALPFdnqninwH4P0TR9f0ncYr2zuLC0it3ZoZArtGXQ7ZUDRt2bPFAHxB+1h49+NP8AwUi/4Kt3X/BL/wCG3jvXfh38MfhjoCa945vvDNwbHU9Su7hYjHaLcjOIgt1CNhUqSJSysVTZi/CXXPi9/wAElf8AgqT4D/Yg134geIviB8Evjhp0v/CPHxVdHUL/AEXWLXK+RFOQuYXYRrtVFXE6kjcjO8P7BcTeAv8Ag4u/au8FeKGK6hr+gWOrae0wKma1xYufLJ4ZVEyrx/cPoaX/AILBKfH3/BYb9hX4ZeF2L6zpOv3muXUcI3SrYpc2cxZgP4CllPk+gb0oA++/23f+CX3xZ/a7+NQ+LPgv9pD4g/CyzGnwWP8AYnhq+mt7HfCXJm2R3EY3vuAY7c/KOa/DDwB+zD+1L4a/4LFeA/2SPgP+018SviPpvw8lsvFfxIudZ1i7Om2drbzRzx6c8a3LLLJdIBG6NkYmGQQkgH9If/BUL9urw5/wTw/Y48TftDaksVzrKKNN8PWUp4u9XugwgQjIJRArTSgEHy42xzivn7/gid+x14g/Zl/ZJj+KPxgklv8A4qfGK4/4THxfqF0P9Ka4vwZYYJD1zDHIS69BNJLjgigD7suv2x/2d7P9qu3/AGJ7jXmX4lXekHXItK+yXBVrEbv3n2jy/s4PyN8pk3cdK/ET9rDx78af+CkX/BVu6/4Jf/Dbx3rvw7+GPwx0BNe8c33hm4NjqepXdwsRjtFuRnEQW6hGwqVJEpZWKps/oif4afDiXx2nxSk8P6a3ieO3+yJq5tIjfrb8/uhcbfNCcn5d2Oelfze/sFxN4C/4OLv2rvBXihiuoa/oFjq2ntMCpmtcWLnyyeGVRMq8f3D6GgCb4S658Xv+CSv/AAVJ8B/sQa78QPEXxA+CXxw06X/hHj4qujqF/ousWuV8iKchcwuwjXaqKuJ1JG5Gd9r9rDx78af+CkX/AAVbuv8Agl/8NvHeu/Dv4Y/DHQE17xzfeGbg2Op6ld3CxGO0W5GcRBbqEbCpUkSllYqmzA/4LBKfH3/BYb9hX4ZeF2L6zpOv3muXUcI3SrYpc2cxZgP4CllPk+gb0pP2C4m8Bf8ABxd+1d4K8UMV1DX9AsdW09pgVM1rixc+WTwyqJlXj+4fQ0ATfCXXPi9/wSV/4Kk+A/2INd+IHiL4gfBL44adL/wjx8VXR1C/0XWLXK+RFOQuYXYRrtVFXE6kjcjO/wDTlX8xH/BYJT4+/wCCw37Cvwy8LsX1nSdfvNcuo4RulWxS5s5izAfwFLKfJ9A3pX9O9ABRRRQAUUUUAFFFFABRRRQAUUUUAFFFFABRRRQAUUUUAFFFFABRRRQAUUUUAFFFFABRRRQAUUUUAFFFFABRRRQAUUUUAFFFFABRRRQAUUUUAFFFFABRRRQAUUUUAFFFFABRRRQAUUUUAFFFFABRRRQAUUUUAFFFFABRRRQAUUUUAFFFFABRRRQAUUUUAFFFFABRRRQAUUUUAFFFFABRRRQAUUUUAFFFFABRRRQAUUUUAFFFFABRRRQAUUUUAFFFFAHzv+1MwX4M37H/AJ+dO/8AS63r5msJfkBPYY56V9K/tWNt+Cuon/p507tn/l+t6+WNNm+6R19utAHo1jITjPfvXYWLkY/l7V5/p7YAPTpz2/8Ar12dk446Y47UAdxaPgDPTiujtzx8309q5K0YkAjv7Z5NdPaPkg9/br+VAHTQEn6H171rwkjj68e1YVsNoB6e/wD+rrWxDjp0HFAGvEemTxxV1Thcntkc9KoRc4IHXPbPJq8h6Edfbr+VAFvnP171N/nFV9uBnp05/wD1dasEdunagB6DBqaoU+8Dj1qagAooooA//9H+/iiiigCtjn/61NcgL+vOKcBnGOtNP3cD/A80AQNxxz26dfzqlIT+n9KsyDJx3xjpVeXqexJzzQBnTYPp+VZNw+P58/5zWpKd3A6/n/OsiU8YX/A4PagDHueDgfTj/Guau2OPqPpXQXIBB/EdK5u9br2JOefagDmb1up4z9PWuOv5MevqM4//AF11d63HH6//AF64u+bgqP8AA4PagDk79iCex6cf48V4l8VJD/wg2rdv9Fl/9BNew6ieqnnqOleJ/FR/+KI1b1NtKef900AfsRD9z8W/ma5nx34O0r4h+B9Z8Aa688VlrtjcafcPbSGGZYrqNo3Mci8o4VjtYcg8iprjxRo2mzvZXkjrIhOQInYc8jkKR0PrUP8Awm3hz/ntJ/35k/8AiKAPybl/YX8Hf8E3PhQPFP8AwTI+BGj+OfiVfXcdnNqGu6oIdQWK5DCW7mv7oSSvGrYMtvC8QYElRxitr9kX/gnv8W/A5+JH7R/7W3imz8X/AB3+K2lSaTf39kjR6Ro2mhCINPsEZQ4gRtryOyhpGUEgsC7/AKlf8Jt4c/57Sf8AfmT/AOIo/wCE28Of89pP+/Mn/wARQB/Np+zv+xf/AMFVLb4W/s9fsd/Evw34Z8H+CPgx4s0rX9S8T6Z4gluLzVLTSZJpDbJbJCjILgS7H3NgjrgEiv0u/wCCqP7OXxz/AGj/AAf8GrP4C6ZBqmoeDPiz4Y8WagtxcR26Q6dpZnaaX946b9pdPkQl2B4HFfo7/wAJt4c/57Sf9+ZP/iKP+E28Of8APaT/AL8yf/EUAfh98bP2Wv8Agtx+0T8C/E/wE+JfxG+EaaT4v0q50jUHs9H1NZxBdoY3MbmbaG2k4JjIB7V0Xww/Z8/4Lg/B74U+HfhH4M+InwhfTfC2lWej2LXOi6o0pgsYVhjMjCcAttQbiFAJ7dq/Z/8A4Tbw5/z2k/78yf8AxFH/AAm3hz/ntJ/35k/+IoA/Or9sj/gmr4Y/b/1b4M6h+01qdvdab8OZby817RbWCdLfWbm9tEhIjuIriCa1SKZfNUgOzDCnHJPqf7G3/BO/9nr9h3wJ45+FXwfgubjwt461u61m50rU3F3b263UEVu9rGZFLvB5cQGJmkY5O5jX2F/wm3hz/ntJ/wB+ZP8A4ij/AITbw5/z2k/78yf/ABFAH85Hxl/YB/a8TwbpP/BPj9mj4VaJ4e+CWhePdN8S2Xie88UyXVxHZwXi30yCxlR5Uw5ZVjR9vGcEsWP7g/tf6Z+13rPwXuNI/Yk1Lw7o/ji6uoIVvvEsUs1rbWkhKzSxpEG3Txgh4xIrRnBDKcivdv8AhNvDn/PaT/vzJ/8AEUf8Jt4c/wCe0n/fmT/4igD8c/Bf/BDD9mTXPhh4xtP2uNS1D4u/Ez4iQqNd8daqRHqUEqENF/ZYG9bGOB1Uxom7IAR90YEY9d+DPw0/4KX/ALKv7L3iPwfq2u6D8fPFfh7UIIPBj6k8mkXt5o2Y0caldt5ifakQuVIVtwQF5HZ8J+l//CbeHP8AntJ/35k/+Io/4Tbw5/z2k/78yf8AxFAH5e/8E2P2fP2qPA/xn+PP7T/7V+gaV4R1n4v6vo91baHpeof2mLSHSbM2uXnCIrF8gjAzwcgcVY+CP/BMbSPh1+3f+0N+1r4yvbPVtK+NWnWelW2nxxuk9ramBEv0lc/KRcSIrDb0CjPPT9Ov+E28Of8APaT/AL8yf/EUf8Jt4c/57Sf9+ZP/AIigD8HbP/gkH+2x4S+CF3+xZ8N/2prnT/ghd2tzpiaZceF7SfW7bSblm8yxTUBKhZXR2QzFAyg4VQuFH6G/Dn/gmF+xj8KPiP8ADX4w+BPCcen+KvhXoq6BpOqwt5dxc2S2n2JRfFAq3TrF915FLK3IIHFfav8Awm3hz/ntJ/35k/8AiKP+E28Of89pP+/Mn/xFAH5ift4/8EydY/aV+NPhT9sD9mf4g3Pwi+NPgy3ewtPEEFomoW17p7bz9lu7WRlR1DSNtY7gFZgyP8mzD/Ys/wCCXfi/4OftI6t+3H+2N8S7j4yfGPUrBdKs9TexTTbDSLHGGhtLaJigLZILhUGGbCBndm/Vf/hNvDn/AD2k/wC/Mn/xFH/CbeHP+e0n/fmT/wCIoA/M3/gpf/wTCH/BSPxT8Jm8T+N/+Ee8K/DrW21nUtE/sz7aNa3PB+7MxuYRBiKOWMN5cv8AricHGD+roGOBXKf8Jt4c/wCe0n/fmT/4ij/hNvDn/PaT/vzJ/wDEUAfK97+zR8arn9ua0/alh+LWqQ+BbfQDpMnw9EL/ANnS3ZL/AOmmX7SE8wbhx9mJ+X7/AKfNn7eP/BMnWP2lfjT4U/bA/Zn+INz8IvjT4Mt3sLTxBBaJqFte6e28/Zbu1kZUdQ0jbWO4BWYMj/Js/Tv/AITbw5/z2k/78yf/ABFH/CbeHP8AntJ/35k/+IoA/Kj9iz/gl34v+Dn7SOrftx/tjfEu4+Mnxj1KwXSrPU3sU02w0ixxhobS2iYoC2SC4VBhmwgZ3Ztz9vH/AIJk6x+0r8afCn7YH7M/xBufhF8afBlu9haeIILRNQtr3T23n7Ld2sjKjqGkbax3AKzBkf5Nn6d/8Jt4c/57Sf8AfmT/AOIo/wCE28Of89pP+/Mn/wARQB+VH7Fn/BLvxf8ABz9pHVv24/2xviXcfGT4x6lYLpVnqb2KabYaRY4w0NpbRMUBbJBcKgwzYQM7s37BVyn/AAm3hz/ntJ/35k/+Io/4Tbw5/wA9pP8AvzJ/8RQB1dFcp/wm3hz/AJ7Sf9+ZP/iKP+E28Of89pP+/Mn/AMRQB1dFcp/wm3hz/ntJ/wB+ZP8A4ij/AITbw5/z2k/78yf/ABFAHV0Vyn/CbeHP+e0n/fmT/wCIo/4Tbw5/z2k/78yf/EUAdXRXKf8ACbeHP+e0n/fmT/4ij/hNvDn/AD2k/wC/Mn/xFAHV0Vyn/CbeHP8AntJ/35k/+Io/4Tbw5/z2k/78yf8AxFAHV0Vyn/CbeHP+e0n/AH5k/wDiKP8AhNvDn/PaT/vzJ/8AEUAdXRXKf8Jt4c/57Sf9+ZP/AIij/hNvDn/PaT/vzJ/8RQB1dFcp/wAJt4c/57Sf9+ZP/iKP+E28Of8APaT/AL8yf/EUAdXRXKf8Jt4c/wCe0n/fmT/4ij/hNvDn/PaT/vzJ/wDEUAdXRXKf8Jt4c/57Sf8AfmT/AOIo/wCE28Of89pP+/Mn/wARQB1dFcp/wm3hz/ntJ/35k/8AiKP+E28Of89pP+/Mn/xFAHV0Vyn/AAm3hz/ntJ/35k/+Io/4Tbw5/wA9pP8AvzJ/8RQB1dFcp/wm3hz/AJ7Sf9+ZP/iKP+E28Of89pP+/Mn/AMRQB1dFcp/wm3hz/ntJ/wB+ZP8A4ij/AITbw5/z2k/78yf/ABFAHV0Vyn/CbeHP+e0n/fmT/wCIo/4Tbw5/z2k/78yf/EUAdXRXKf8ACbeHP+e0n/fmT/4ij/hNvDn/AD2k/wC/Mn/xFAHV0Vyn/CbeHP8AntJ/35k/+Io/4Tbw5/z2k/78yf8AxFAHV0Vyn/CbeHP+e0n/AH5k/wDiKP8AhNvDn/PaT/vzJ/8AEUAdXRXKf8Jt4c/57Sf9+ZP/AIij/hNvDn/PaT/vzJ/8RQB1dFcp/wAJt4c/57Sf9+ZP/iKP+E28Of8APaT/AL8yf/EUAdXRXKf8Jt4c/wCe0n/fmT/4ij/hNvDn/PaT/vzJ/wDEUAdXRXKf8Jt4c/57Sf8AfmT/AOIo/wCE28Of89pP+/Mn/wARQB1dFcp/wm3hz/ntJ/35k/8AiKP+E28Of89pP+/Mn/xFAHV0Vyn/AAm3hz/ntJ/35k/+Io/4Tbw5/wA9pP8AvzJ/8RQB1dFcp/wm3hz/AJ7Sf9+ZP/iKP+E28Of89pP+/Mn/AMRQB1dFcp/wm3hz/ntJ/wB+ZP8A4ij/AITbw5/z2k/78yf/ABFAHV0Vyn/CbeHP+e0n/fmT/wCIo/4Tbw5/z2k/78yf/EUAdXRXKf8ACbeHP+e0n/fmT/4ij/hNvDn/AD2k/wC/Mn/xFAHV0Vyn/CbeHP8AntJ/35k/+Io/4Tbw5/z2k/78yf8AxFAHV0Vyn/CbeHP+e0n/AH5k/wDiKP8AhNvDn/PaT/vzJ/8AEUAdXRXKf8Jt4c/57Sf9+ZP/AIij/hNvDn/PaT/vzJ/8RQB1dFcp/wAJt4c/57Sf9+ZP/iKP+E28Of8APaT/AL8yf/EUAdXRXKf8Jt4c/wCe0n/fmT/4ij/hNvDn/PaT/vzJ/wDEUAdXRXKf8Jt4c/57Sf8AfmT/AOIo/wCE28Of89pP+/Mn/wARQB1dFcp/wm3hz/ntJ/35k/8AiKP+E28Of89pP+/Mn/xFAHV0Vyn/AAm3hz/ntJ/35k/+Io/4Tbw5/wA9pP8AvzJ/8RQB1dFcp/wm3hz/AJ7Sf9+ZP/iKP+E28Of89pP+/Mn/AMRQB1dFcp/wm3hz/ntJ/wB+ZP8A4ij/AITbw5/z2k/78yf/ABFAHV0Vyn/CbeHP+e0n/fmT/wCIo/4Tbw5/z2k/78yf/EUAdXRXKf8ACbeHP+e0n/fmT/4ij/hNvDn/AD2k/wC/Mn/xFAHV0Vyn/CbeHP8AntJ/35k/+Io/4Tbw5/z2k/78yf8AxFAHV0Vyn/CbeHP+e0n/AH5k/wDiKP8AhNvDn/PaT/vzJ/8AEUAdXRXKf8Jt4c/57Sf9+ZP/AIij/hNvDn/PaT/vzJ/8RQB1dFcp/wAJt4c/57Sf9+ZP/iKP+E28Of8APaT/AL8yf/EUAdXRXKf8Jt4c/wCe0n/fmT/4ij/hNvDn/PaT/vzJ/wDEUAdXRXKf8Jt4c/57Sf8AfmT/AOIo/wCE28Of89pP+/Mn/wARQB1dFcp/wm3hz/ntJ/35k/8AiKP+E28Of89pP+/Mn/xFAHV0Vyn/AAm3hz/ntJ/35k/+Io/4Tbw5/wA9pP8AvzJ/8RQB41+1gcfBLUj/ANPOnf8Apdb18m6dLhV9hnnH/wCuvpv9p/WtP1n4Has2nMz+Vc6Zu3IyY3X1vj7wHoelfLGlsNox+XQ89qAPR9OYgjGe3I6/nXZ2MhwMelcBp5Lcfh0ruLB+hPHPegDt7Nskfl0rqbaTGCe3PP8AnNchZNnA7n1rq7MjGB/gee1AHT2vHTqMdOv51sQnj8KwrcZ478jpW3Ccn0JOeaANiPBPbr6VeRsdc8c8/wCc1nwHOFHXg/5zWhF0IH+Bwe1AFwf4Djr/AJ/Ops8celVUXKkd+nSrZ/Ik96AHIPn/AM81PUCY3Cp6ACiiigD/0v7+KKKKAK3Qc+1ROeME9PWpe3HH4ZqJj8/HX260AQSctz3qpLkcfp7VbdcYPTpz/wDq61TmxnHGMgdKAM6Y4U+maxrjoc+/06Vrz5PIHXPbPWsidhuyOvPTrQBh3XfPQn+dczdnHB9+K6O6XAz09/8A9XWuZvcAH047UActenAIPTiuJ1A/Kc9s/SuxvySuQOue2etcVft824dfbrQBxWouedw4PevEfioceCNWH/TrLx+Br2jURxnp7/8A6q8Q+KnHgjVu3+jSdv8AZNAHOfslf8Euv2Ffit8AND8fePvA32/VtQkvvtE/9p6hFv8AKu5o1+WO5RBhVA4UZxk819Hf8Od/+Ccv/ROv/Kvqf/yXXuH7A/8Ayah4X/39R/8AS64r6hufF3hSy1qPw3eanaRajKNyWrzIszD1CE7iPwoA/O7/AIc7/wDBOX/onX/lX1P/AOS6P+HO/wDwTl/6J1/5V9T/APkuv0rurq1sbZ7y9kWGGMFndyFVQOpJPAFZOgeKPDXiu1a+8L6ja6lAjFGktZkmQMOoJQkAj0oA/Or/AIc7/wDBOX/onX/lX1P/AOS6P+HO/wDwTl/6J1/5V9T/APkuvlH4eftSfH7V/wDg4K8d/sm6l4muJfh3pfw7h1e10QpH5EV6xscyhgnmbj5r9WI+bpR8PP2pPj9q/wDwcFeO/wBk3UvE1xL8O9L+HcOr2uiFI/IivWNjmUME8zcfNfqxHzdKAPq7/hzv/wAE5f8AonX/AJV9T/8Akuj/AIc7/wDBOX/onX/lX1P/AOS68x1f9vf40WH/AAWi0v8A4J5Q2GkHwPe+CG8SPdGCb+0xdgyjaJfO8ry/kHHkk9fmr9gKAPzN/wCHO/8AwTl/6J1/5V9T/wDkuj/hzv8A8E5f+idf+VfU/wD5Lqp8Xv20v21fAXxQ1zwX8Pf2WPEfjPRNNufJs9ctNe0u1hvo9oPmJFcSLIgySMMO2a/DXwb4z8ceNP8AgnB/wUT8a+N9FvPCOt3HjHXbibR7m6S4n02Y2ttIYfNhYxko5PMZ2k9KAP3V/wCHO/8AwTl/6J1/5V9T/wDkuj/hzv8A8E5f+idf+VfU/wD5Lr5M+AX7fH7cegfs/eCdJ0b9kLxhq9tZeH9NhgvU13SVW6jjto1WUBpt4EgAYAjdzyM19FftxftwfGz4J+OPg3+zx8JvhSnjfxV8crXXYhp0/iL+wHsG0mzhupkF0kE3z+XJJh1aMq0Y2klhgA6n/hzv/wAE5f8AonX/AJV9T/8Akuj/AIc7/wDBOX/onX/lX1P/AOS6/l98RfFT9sbx1+wrqX7DvjHX/hr4g0xfEtvq2h65qPxa0a51Ky0y1vUu47C4kLA3jLtaMXBaM7W/1eFC196aL+2n/wAFBPjb+3r4f+NfhrRfA2vWOi6He6doPw78O/F3TdtxdTJ5l1d3SwJI2oMsMbFIjbqkIQSD5kLEA/Y7/hzv/wAE5f8AonX/AJV9T/8Akuj/AIc7/wDBOX/onX/lX1P/AOS69h/4J8/tcTftx/sceDf2sNQ0JPCzeLIryZtNW6+2Lbi1u5rYfvzHDu3CHef3a4zjnGT6L+01aftSax8L1j/Y21Lwzp/i1ryBhceKYri4042g3eaNtqRIXPy7eQOuaAPln/hzv/wTl/6J1/5V9T/+S6ZH/wAEfP8AgnBMgkh+HgdT0I1jUyP/AErr839H/ad/4LOfEf8AbG8WfsG+H9b+EOo6z4X8OW+sa7qkGjaudMsft7FI7OaQ3gdbmSMrKiiNgyEnI2kV8Uf8Er/jZ+3H8NP2bL39mz4AfFn4H6T4T+FXiPWPDVpeeLEu4rjVJEunuZrq3Md6hkt3kuD5cjQxZAwAcE0Afv1/w53/AOCcv/ROv/Kvqf8A8l0f8Od/+Ccv/ROv/Kvqf/yXWl+xL4g/b28a+Jb/AMXftH+N/hd4x8EvZyQWMnw+juzINRSVM+ZLPLNGUWPeGVW3BiMiv5nP2aNZ/bE+MXwU1v4jX9z8avFkqaxr0EWraT8XbLRLPy7S6mjjVLG+uhcJ5SqFORh8ZXgigD+lH/hzv/wTl/6J1/5V9T/+S6P+HO//AATl/wCidf8AlX1P/wCS6/nZT4z/ALVfxN+DP7Eej2Pi34h+JL7xn4P8W32uW/h/xr/wjmo6pNZzwGKa4v7ydIpDCCceazMVyq9a+oP2QPEf7Sngf/gq78Kfhd41vviXofh/XPDviO8udI8Y/EK38Y299LawqI5BHZTyRReUWyPNGSxBX7poA/Yb/hzv/wAE5f8AonX/AJV9T/8Akuj/AIc7/wDBOX/onX/lX1P/AOS69Z/br/bq+Fv7B3wrs/HXjmyvvEGueIL6PSPDfhvSIzPqWs6nN/q7eBBk47u5BCggAM7Ijfiv8XP2+f8AguVonx/+D/wWTwP8LPAOq/GyfUxoeharNqGrX9hFpUK3E7alPayJCFEbjHkIzZDZAxQB+p//AA53/wCCcv8A0Tr/AMq+p/8AyXR/w53/AOCcv/ROv/Kvqf8A8l15H+zt/wAFHPjnoH7TmmfsQf8ABRrwBZ/Dzx74lhmn8La7ol0134a8RC3AMsdtJLiWGdeohkJYjAO1mjD/AKZfG349/Bf9m7wDd/FH48+J9O8KaBZKTJeajOsKEgE7EB+aSRsfLGgZ2PCgmgD4p/4c7/8ABOX/AKJ1/wCVfU//AJLo/wCHO/8AwTl/6J1/5V9T/wDkuvyx174k+LP+C6HjZI9K8U6j8H/2X/DUly1rqcN+mmeIPF2qorRRyxozFoLG2clgHU+YwwQX4g9V/Zp/4Ke63+xB42039hj/AIKja9Z+dCPsvhD4owTLNpHiGxhISP7fIrObS8RSglaU7TndIw4klAPvn/hzv/wTl/6J1/5V9T/+S6P+HO//AATl/wCidf8AlX1P/wCS699/bD+MWr+Av2Gfip8ffgxq9v8A2joHgjXNe0XUoPKu4PtFnYzTwSqCHikUOinBDKw65FfzkeEP25P2yb3wR4d1nxv+1D4ps9X1bQ9J1a6ttM+CbataQPqlnDeeVHd2/wC6mEYmCF1AyQeB0oA/bSD/AII//wDBN25UvbfD5ZACVJXWNTIBHUcXnUVN/wAOd/8AgnL/ANE6/wDKvqf/AMl1/L9+xF+058XfgtD8Qfgl8Kf2gPGHhjQ9E8T3V0hi+Dsmry3txqQFxNPLGpaWzLM3EEpyFwQAuK/oh/4Je/Gj41fGnxt40uviF8Zte+JenaPZ2SJY618Oz4IFrNdPKRLFK/z3OVhZWQDamQTyRQB6/wD8OeP+Ccmcf8K75/7C+p//ACXTJP8Agj7/AME34mVZfh6FLnCg6xqYyfQf6XX5V/G34sfFP9on/gpd8Tv2lP2e/Gvg/wAHaJ+ytodr4QTWfG8si6F/bGtTsdSklaKSNh5Uam0+ZgvmhSCa+Hf28P2xf2i/iF45+Amp+LP2gP2c/Ek/h74kabqNhN4avJ3h024jhm23epl76TbYJ0lKlDuKYYUAf0df8Od/+Ccv/ROv/Kvqf/yXR/w53/4Jy/8AROv/ACr6n/8AJdfJ/wCzH+1X+3B8dvjfoXgvSvj3+zp420+G4jvNZ0rwZNd3WsSaXE6i4MC/bZ1VgrABmTaGIzXJ/wDBT/xL4p13/gor8Cv2f7742+I/gx4M8TeHfEd3ql9oOsR6QJLixEbwb3nDwkkkqNyk4JAxQB9uf8Od/wDgnL/0Tr/yr6n/APJdH/Dnf/gnL/0Tr/yr6n/8l1+Hf7QnhK1+GP7WHwJ+DHgP9uT4hap4W+I15r8HiTUn8ZWEr6bHptiLi1ZZY4hFF5s3yEzKwbouDXR/theHE/Zh0DwF4++Af7aHj74g6zf+PPDmkT6Ld+L7K/hmsr26VJ90NpHHKRtGD823B5FAH7Q/8Od/+Ccv/ROv/Kvqf/yXR/w53/4Jy/8AROv/ACr6n/8AJdeY/wDBXj9vf40fsGeGfhNrPwasNIvpfHPjey8N6gNWgmnVLS4R2ZovKmh2yZXgsWH+ya/YCgD8zf8Ahzv/AME5f+idf+VfU/8A5Lo/4c7/APBOX/onX/lX1P8A+S6/TKigD8zf+HO//BOX/onX/lX1P/5Lo/4c7/8ABOX/AKJ1/wCVfU//AJLr9MqKAPzN/wCHO/8AwTl/6J1/5V9T/wDkuj/hzv8A8E5f+idf+VfU/wD5Lr9MqKAPzN/4c7/8E5f+idf+VfU//kuj/hzv/wAE5f8AonX/AJV9T/8Akuv0yooA/M3/AIc7/wDBOX/onX/lX1P/AOS6P+HO/wDwTl/6J1/5V9T/APkuv0yooA/M3/hzv/wTl/6J1/5V9T/+S6P+HO//AATl/wCidf8AlX1P/wCS6/TKigD8zf8Ahzv/AME5f+idf+VfU/8A5Lo/4c7/APBOX/onX/lX1P8A+S6/TKigD8zf+HO//BOX/onX/lX1P/5Lo/4c7/8ABOX/AKJ1/wCVfU//AJLr9MqKAPzN/wCHO/8AwTl/6J1/5V9T/wDkuj/hzv8A8E5f+idf+VfU/wD5Lr9MqKAPzN/4c7/8E5f+idf+VfU//kuj/hzv/wAE5f8AonX/AJV9T/8Akuv0yooA/M3/AIc7/wDBOX/onX/lX1P/AOS6P+HO/wDwTl/6J1/5V9T/APkuv0yooA/M3/hzv/wTl/6J1/5V9T/+S6P+HO//AATl/wCidf8AlX1P/wCS6/TKigD8zf8Ahzv/AME5f+idf+VfU/8A5Lo/4c7/APBOX/onX/lX1P8A+S6/TKigD8zf+HO//BOX/onX/lX1P/5Lo/4c7/8ABOX/AKJ1/wCVfU//AJLr9MqKAPzN/wCHO/8AwTl/6J1/5V9T/wDkuj/hzv8A8E5f+idf+VfU/wD5Lr9MqKAPzN/4c7/8E5f+idf+VfU//kuj/hzv/wAE5f8AonX/AJV9T/8Akuv0yooA/M3/AIc7/wDBOX/onX/lX1P/AOS6P+HO/wDwTl/6J1/5V9T/APkuv0yooA/M3/hzv/wTl/6J1/5V9T/+S6P+HO//AATl/wCidf8AlX1P/wCS6/TKigD8zf8Ahzv/AME5f+idf+VfU/8A5Lo/4c7/APBOX/onX/lX1P8A+S6/TKigD8zf+HO//BOX/onX/lX1P/5Lo/4c7/8ABOX/AKJ1/wCVfU//AJLr9MqKAPzN/wCHO/8AwTl/6J1/5V9T/wDkuj/hzv8A8E5f+idf+VfU/wD5Lr9MqKAPzN/4c7/8E5f+idf+VfU//kuj/hzv/wAE5f8AonX/AJV9T/8Akuv0yooA/M3/AIc7/wDBOX/onX/lX1P/AOS6P+HO/wDwTl/6J1/5V9T/APkuv0yooA/M3/hzv/wTl/6J1/5V9T/+S6P+HO//AATl/wCidf8AlX1P/wCS6/TKigD8zf8Ahzv/AME5f+idf+VfU/8A5Lo/4c7/APBOX/onX/lX1P8A+S6/TKigD8zf+HO//BOX/onX/lX1P/5Lo/4c7/8ABOX/AKJ1/wCVfU//AJLr9MqKAPzN/wCHO/8AwTl/6J1/5V9T/wDkuj/hzv8A8E5f+idf+VfU/wD5Lr9MqKAPzN/4c7/8E5f+idf+VfU//kuj/hzv/wAE5f8AonX/AJV9T/8Akuv0yooA/M3/AIc7/wDBOX/onX/lX1P/AOS6P+HO/wDwTl/6J1/5V9T/APkuv0yooA/M3/hzv/wTl/6J1/5V9T/+S6P+HO//AATl/wCidf8AlX1P/wCS6/TKigD8zf8Ahzv/AME5f+idf+VfU/8A5Lo/4c7/APBOX/onX/lX1P8A+S6/TKigD8zf+HO//BOX/onX/lX1P/5Lo/4c7/8ABOX/AKJ1/wCVfU//AJLr9MqKAPzN/wCHO/8AwTl/6J1/5V9T/wDkuj/hzv8A8E5f+idf+VfU/wD5Lr9MqKAPzN/4c7/8E5f+idf+VfU//kuj/hzv/wAE5f8AonX/AJV9T/8Akuv0yooA/M3/AIc7/wDBOX/onX/lX1P/AOS6P+HO/wDwTl/6J1/5V9T/APkuv0yooA/M3/hzv/wTl/6J1/5V9T/+S6P+HO//AATl/wCidf8AlX1P/wCS6/TKigD8zf8Ahzv/AME5f+idf+VfU/8A5Lo/4c7/APBOX/onX/lX1P8A+S6/TKigD8zf+HO//BOX/onX/lX1P/5Lo/4c7/8ABOX/AKJ1/wCVfU//AJLr9MqKAPzN/wCHO/8AwTl/6J1/5V9T/wDkuj/hzv8A8E5f+idf+VfU/wD5Lr9MqKAPzN/4c7/8E5f+idf+VfU//kuj/hzv/wAE5f8AonX/AJV9T/8Akuv0yooA/K/Vf+CSX/BOXTNQtLD/AIVrv+1eZ839s6mNuwA9PtZznNWh/wAEif8AgnKRn/hW/wD5WNT/APkuv0K8U/8AIwaR/wBt/wD0EVpjoKAPzjH/AASI/wCCcpOP+Fb/APlY1P8A+S6D/wAEiP8AgnKDj/hW/wD5WNT/APkuv0fT71D/AHqAPwQ/aE/Yt/Zb/Zx+Inwz8W/Azwp/wj91qU9/57fbru73eS9ui8XE0gGBI/QDrz0GPr7TSNgz2GPbNc/+3aca38Jf+u+qds/8trStrSz90jr7dfyoA9E09iSPQ9z3rudPPRfrxXA6b8oB6dOe36da7jTzgDp2oA7myPAyeMiuotTx83056VyVkeBgdfbPWusszzkdfbr+VAHT22TjPf8ArW3b8Y/lWFaDABPHv2/TrW5Bjp0Bx2oA2IuMZ6cf0rQj5XLen4Vmw5IBA6+2etaULDPHX26/lQBaTkc9zVhc4wfyqtGuFz09/wD9XWp0HXt0FAE6DBqaoU+8Dj1qagAooooA/9P+/iiiigCtjn/61ROcN+vbt+tSgZxjrUJ6kD/A80ARMMN+XTr+fFZ7k7RV6QZOO+MdKpydPQk55oAzZ8Enp37VjXJx1+vP+c1sS9Bjr7//AF6xpsYIH5dDg9qAMO5B3fTjjr+fFcven5T9K6a7GSR16jpXM3vfsSc80AchfHOc4/KuK1BsDntzz7frXa3vPA/X/wCvXD3xHKj3+vPagDhtQypOM8ccdvxrw/4qOT4I1XH/AD6y+38Jr23U1zkfUdK8Q+Khx4J1Y9/s8h5/3TQB8o/t2ftb/Er9jb/ghofiH8Hr2TSvE2t382gWOoQ5Etmb7ULnzZo2GCsiwpII3BBRyGHIFVv2TP8Ag3V/4J9eK/2WfC/iX9pjRNS8bfELxVpttrOteIZtYvYp/tl9GJpFjWKZIiiM5UNIju+NzEk8fV/iz9ijQ/8AgoL/AMEjX/Zk1S9GlXmq/bbnS79gWW11C01GeWB3UcmMsNkgGTsZsfNivkP9m74y/wDBfz9m74OaV+yjrn7N2i+O9U8J2aaVpfjJ/FFpa2E1lajyoJJ4TJ5szBFUfehlZQCyBskgH3P/AMFdfAn/AATX1r4YeEfEX/BTDxPc6R4N0C9nay0iG+uYE1a4eNRseCyBu7gxBQV8orsLZY4Ir8Af+Cf/AIh/ZX+Ff/BenwF4Y/4JwWniDwx8LPiN4P1D+1NL1eC+tYrme3gvZxJAt+TLLDutoWRzkK/mKpAyK/T3/grF+yT+3Nr37ZnwG/4KD/sx+CdP+KM/wztJLbUfB91dQwIlxIXb7RF9odVJPm4DqTJHJDE4VgDj5t+IfwW/4LKeI/8Ago/8Hf8AgqX40+COi30uhWl34ck8EaJr9t9s0zTJo7mMSXl5OywSSu19NIrW+5AI1RwhbJAPdvhV/wArSXxL/wCyUwfz02j4Vf8AK0l8S/8AslMH89Nr6Y+H/wCx5+0Xon/Be3xx+2nqnh7yvhnrHw+h0S01j7XbN5l+pscxfZxKblf9TJ8zRBPl+9yMnw//AGPP2i9E/wCC9vjj9tPVPD3lfDPWPh9DolprH2u2bzL9TY5i+ziU3K/6mT5miCfL97kZAPLPE2gf8dNvh7Udv/NEnus/9xC4gz/Sv6Ga/PHUtN/aNf8A4KX6f4gg+EXheb4br4Rayk+I7rbf8JHFceZJL/ZquZ/tP2UuQ+wQGPcxbdnNfodQB+Pf7cXw78NaP8RtQ+K/xB/bD134HaTcwQKmiw6npdlZxmJApaJbyJ5GaQjcQpOWPAr+e/8AZ8+NngrxH/wTx/b++Gnh3Xtd8eveap4k1y28X3tm32TU7CNLW1imku0RITc3BzIIlUMUUttAxX6Mf8FAfhz+yH8KP2i/EHwd/Y8/Zuh+JX7UXxQWXW/7T1PS3u9J0htSd1bVp7i/D2sYjkDMogUJ5qkOytw3uvx5/Yu8NfsBf8EAPiL+zB4auTqlzpXg+/k1G+VcG91O9bfPIq4ztMjbIlOWEaqCSQSQDjfgT8HPj3c/A3wZeQ/t7TaPavoemuunf2Z4exaxmCMiDewEn7sfJlju4yea/aX46ax+yn4DstC/aw/aEn0DTrfwP5jaR4o1UxKum/2wqW0hguW/1YuVZI2KnDggcivgj9nX/gkr/wAE0fFn7O/gTxH4g+CXhW6vtS8O6Xc3M8lgvmSSzW0bu7Hg7mYkk+tT/wDBaL4EeL/iD/wS68S/Aj9n/wAKXevXqz+HLbTtH0uBp5RbWOpWjkJGMkrHDEc+ijmgD+YHwj8XPAn7AP7Jmj+Emt/2S/jVcaHdfZzOssur+Ibsaleu/mSl7OINHbCbDNu+SGMYBxivuL4NePv2f9P/AG7vg/8AtP8AxJ+IP7LXgHw58NV8RLfW/wAN9Tktb3URrWnvaR+aklpEkvkvtK7pF2q8hGScH9H/APgu18DfgH4I/wCCfGo614c8F6Dpl2fE3hmITWmm28Mux9Tt/MXckYOGTcGGcEcGvO/+Cw3wb8T/ABS+DfjL9iv9mH9l261HWPFEOlLpnjTSrHTbbTLdhdwTzeZNuSeIokbo2Fwc9cE0AftB4l/Y9/Z98S/so6t+xr4d0aLw18PNb0y70s2GhhLRYLa/LvKYMKyoWeRnztI3EnBr5R+OOv6z/wAEtf2GvCfwV/Y48Da18Rddilt/CPhDTiPtAW7uvMaOfUJ0CLHbxYZpHIQHAUsgJdfuz496z8ZfCXwJ8Ta5+zzolr4k8c2GlzSaHpd5KsNvd3yJ+6ikd5IVVWbgkyIP9oVU/Zp8RfHbxb8CPDHiT9pvQLTwt4+vLJZNb0mxlWe2tLrJykciSzqygYORK/XrQB/GN+zN8Xf21x+x78Tf2Sf2Y/CeoeLP2jPi14n8X3njPxvGjxWcFnpbC2nZL6RURriVw8FrEpTyTMHwjOmbfho/shfAD4D6T+1H4Z+EPw8+KXwj8T6Cug6do+r6NY/8Jh4d8d2VokMelXOIvtGpPeXQLysU81VZpRsiVBJ96fsLft/6b+xz+zf4q8I+Hfh74q+Jfjnxp8WvHS6BoPh6wkkFw8F1GzNPdFTFBGolQs3zsqnds25NcTB/wR9/4KF6v8X5f+CrNtL4I0L47HWf+Ejtvhs1iJvDqjyTEY5roSY/tFx87XKfL5/ziVSd6gH7S/8ABH79iu7/AGE/2FfC/wAJ/FFtFbeLNXaXxD4lWFVRV1TUdrPEFQBR9niWK3+X5f3WRwa/nN+H3wh/Zc+E/wDwRj8Tftu+IPhF4G8Z+OrPxxqNk194tsGuIGhuvEX2HM7xPHJtiikypDjbtHUDB/oY/Ys/4KYa/wDtF/Fqb9l74+fB/wAXfCX4o6dpsmp3dlqdr9o0ma3gZI5JbW/TCyR73UKxQKSQFZjX4/8AwU/Z9+NH7Uv/AAQH174J/ATSBqninVPiBeXFtbTvDCgitvE63ckjfaZIo2VIULlS4LgYGSQKAPkD9q79pj4f+GP2dNOu9YT9kn4m2Hw4t/s3h7wtpD6le3kcV/cRLNHZwNcKuMnzXG4fKhNfr3qf7J/7Nf7K/wDwWj/Z7079nLwRpHguDWfCPjKS+j0m2W2W4eGOAIXC9SoZgPTJqD9pf/glX+3R+0b8D9f+Dfjv4p/DyLSdXjiNw2j/AA/FpfYtZUuFEMq35KsWjA9wSO9R+Bf2mPD/AO3V/wAFc/gx8T/gp4V8W2ug+A/CPimHW73XdCutLhtpdQECwxl50VSzFSMA/TPOAD02603TPjV/wcJLY+PlM9t8IfhOmo+HLOY7o01DVr7yri+jQ5AfyXEDMMHhfQVh+DNRT9r3/gvhrfjLQT9p8LfsyeCzobXKfNH/AMJL4gZvORW6ZW1MkUgHKvEQetfUf7dH/BNTXP2n/jB4Z/ag/Z7+J+p/Bj4reGtPm0QeINNtEv0u9JnYu1tcWzyRBwjszxtvwrMSVJCFPOvDH7M3xz/4Ja/sk2Pw3/4J7+Ao/jX448Q65Le+JdU8RaxHplzdX14jPNqdy0gxKisix+SsquFKkGRi7EA8q/4LzXOkr4W/ZysdC8o+PZfjP4YfwyAMziWN381hj5vKGY/MxxuKZ7V6X/wU6+BH7Ndr8TfBf7XHxT/Z+1r4767oUE1gkFhKj2OmWsGbj7Td21zNHaOoJYBpQRj733VIy/2U/wDgnd+0r4z/AGn9P/4KAf8ABTjxZpvij4haFbzW/hTwvoEbp4f8Mx3IIkeLzPnnuGVtu9gSp5LykRtH9h/tm/tiaZ+zdcaV4D1r4M/ET4s2Xiyzu1uB4J8PrrdrBEm1GivN00Sp5yyEKpyGAagD+R//AIKSWH7LnjH9jXUPi58JP2MNZ8Aya9qWk31r42ZbCSxkju72J2CTW11MGW7VjGhQFDvHQV+hkf8Awxl8KdYh0af/AIJ269pF94thn0i2tLyLSVfUFcCSSGKKW9PmOAgf5FLpt3DGM18b+OtR+O9l/wAEy/FP/BPv4bfAb446nanxtHrPhE6r4Lkt4tL0CPU4b5LGaZbu4eWSMLLtcRhSzheAM19x+OP2rPG/xf8A+Civhn9r34wfs3/HjUPBnwx0SWDwV4eh8D/vYNa1D5by/uS17sZhEqpCF6YVsKyZcA+pvFXwB+CX7JX/AARA+Olx8HfAerfC6y8YeEPEep3XhrXLuS7u9Oub+0e1EBaSSTauApVAxHzE5JJr8s9f1L9oW4/aF8B/A7wfq3je50bQ/gb4Guho3hz4kf8ACB29vcmAxSTHzm8qZmChSqKGGAScV+qP/BRr4pfGz9vX/gnb4c+FHwV+F/jXwnffHHxZY+FNQt/EmmHT9Q0HTIbwyXN5ewhpPKikS2wpJIaOTOc7Qcf43/8ABOb9tP4w/EK68ReJPh5+zX4ntLAf2Zot14k0HWL3Uk0e1Zls4p5PP2mRIiA+wBd2ccUAfh3+yv4R+PF38bfjhb6Na/ERrqDxPAt4NP8AjdbaPcLIbSMj7VdtxqUu3GLheFXEf8NfuZ/wSg1X9qf43/8ABOD4yeF9E8b6la/ESPxj4u0LQdX8T6rJ4lm0qSBY4raN71mbz1gbgSoChOZFRgdp/JX9jv8A4J3fHv4j/tAftA+EvDvw0/Z01S68JeLLewvrfXdA1Kexs5WtEfy9LjjlDQ22OWWQljLuPSv6Ov8Agn3+z3+1/wDs2Xmo+AfijoXwi8MfD2SGW7tNP+G2n6jp839qyvEDJKl3I8RjaJWDFQH3Be2aAP57fhJ+wj448C/ssft8/sKfAmO78beJLS68I2UDyyIlxqN69tDc3U5aZwq75Gllwz/KvGSRzyvxu+MGgfGz4lfsvaL8LP2QNPhMvii81K1h0m58PXcfimHw9ayR31sk1o7QlIXO+Xz22ZXHLCv0N+G37b/gL9jb9uH9sLX/ABB4Z8T+M9T8Q+NvDmm6Po/hbSpdSu7y9TR8+VlAI4ydjH944JCsVDbWA8H/AGfP+CaX/BR74Q/GW/8A+CnPwO8I+DvCniLUrzU7vTfgvq1xPJa6bYaqIvtBt75ZRBa6jc+VllWNIFDbSUUeSgB9hfslfB741eJP+CqOi/tIy/s1yfAbwXpfw91LQZ9sml+Xc6hPeQzIxXTn6mMFQWUn5euK8n/4KyeLf2edM/4KzfA61/aZ8C3PxI8Lab4G166utEs9EbxBIz3MwihlNoquSqPHnfjCmv0K+D3/AAVV1zxF8S/DfwM/aH+AHxK+GXi7xHeRafDJc6Wuo6F58nXZqdu/ltGnLO5jUBRk15l+yj4d8fftG/8ABXr41/tk+J9FvtE8MfDfRIPhR4bXUrd7aW8ljmW/vrlI5AD5fmMPKk6SRSqR3AAPw5/ac+Iv/BLG9/bR/Zz1LwD+zZquh+FbO+8SHxLo0nw+ks5NZjfTwLVEtDCDemCb94VAPlD5+K6/9t7x/wD8E1vEOgfDXTf2Wf2e9T+G/io/Ejwqy6zdeBX8Pxrbi8XzI/tbRIAX4wmfmx7V+8n7bvgH4geJP+Ck/wCx14z8M6Bqep6N4c1PxnJq+oWlpLPaaelzpKxQtczIpSESyHbGZCu5gQMkGvgD/go/+234M/bQsfAv7K/wQ8EeO7jxhYfFLw5cXMV54bvLe2it9Mvf38zXBQxeWoG7fuxt+YkAE0Aes/8ABw1oH9s+Af2bflzv+Nvhu1/8CI7nj8dlf0M1+eP/AAUM039o3VdC+Hcf7O/wi8L/ABdmtPF1je6lB4oW2ZNHt4Ff/iZWn2meALdQliI3jLSKGO1eTX6HUAFFFFABRRRQAUUUUAFFFFABRRRQAUUUUAFFFFABRRRQAUUUUAFFFFABRRRQAUUUUAFFFFABRRRQAUUUUAFFFFABRRRQAUUUUAFFFFABRRRQAUUUUAFFFFABRRRQAUUUUAFFFFABRRRQAUUUUAFFFFABRRRQAUUUUAFFFFABRRRQAUUUUAFFFFABRRRQAUUUUAFFFFABRRRQAUUUUAFFFFAHB+Kf+Rg0j/tv/wCgitMdBWZ4p/5GDSP+2/8A6CK0x0FAD0+9Q/3qE+9Q/wB6gD8rf27v+Q18Jf8Arvqn/o20rX0yXCrntzzWR+3d/wAhv4S4/wCe+qf+jrStPSvugD/A4PagD0LTAQR17dOv513VgeFA9K4PTVzgfh0ru9POSOxJzzQB2tmckdPTpXX2rYxn6/kPzrkLHnA75/z1rrbLpge/scHtQB01qCOPTHTr+dbcBPH0rCthkEd8Y6VvQnn0Oc80Aa8WD6flWghwRn0zz9PzrOh5wB19/wD69aMXYD/A4PagC7GMD8QOP8eKlQ8fhUCLlSO/TpVhep7EnPNAEqD5/wDPNT1AmNwqegAooooA/9T+/iiiigCt0HPtUL989uOelTduOPwzUTH5+Ovt1oAgk5bnvVF+Fx+lXnXGD06c/wD6utUZMYx0HHagDNm4Xnpx/SsW4HXPbI9q2ZslQQOvtnrisec/MSOvt16+lAGDdZ5Pr6965i8OMj68V010uFJ6e/8A+rrXL3uMkdB9KAOTvuOvTj+lcLqI5Oe2R7V2+oZIyB1B7Z61xGoN8+R19utAHDanznPevDvipkeB9WH/AE6y8fga9u1AHGenv/8Aq614f8Vf+RI1YcAG2k7f7JoA+5f2B/8Ak0/wv/v6j/6XXFfYVfHv7A//ACah4X/39R/9LrivqG58XeFLLWo/Dd5qdpFqMo3JavMizMPUITuI/CgDoaKgurq1sbZ7y9kWGGMFndyFVQOpJPAFZOgeKPDXiu1a+8L6ja6lAjFGktZkmQMOoJQkAj0oA3aK/B/4eftSfH7V/wDg4K8d/sm6l4muJfh3pfw7h1e10QpH5EV6xscyhgnmbj5r9WI+bpR8PP2pPj9q/wDwcFeO/wBk3UvE1xL8O9L+HcOr2uiFI/IivWNjmUME8zcfNfqxHzdKAP3gor8f9X/b3+NFh/wWi0v/AIJ5Q2GkHwPe+CG8SPdGCb+0xdgyjaJfO8ry/kHHkk9fmr9gKAEwM7sc0tfmF8Xv20v21fAXxQ1zwX8Pf2WPEfjPRNNufJs9ctNe0u1hvo9oPmJFcSLIgySMMO2a/DXwb4z8ceNP+CcH/BRPxr430W88I63ceMdduJtHubpLifTZja20hh82FjGSjk8xnaT0oA/sHor8GvgF+3x+3HoH7P3gnSdG/ZC8YavbWXh/TYYL1Nd0lVuo47aNVlAabeBIAGAI3c8jNfRX7cX7cHxs+Cfjj4N/s8fCb4Up438VfHK112IadP4i/sB7BtJs4bqZBdJBN8/lySYdWjKtGNpJYYAP1bor+EvxF8VP2xvHX7CupfsO+Mdf+GviDTF8S2+raHrmo/FrRrnUrLTLW9S7jsLiQsDeMu1oxcFoztb/AFeFC196aL+2n/wUE+Nv7evh/wCNfhrRfA2vWOi6He6doPw78O/F3TdtxdTJ5l1d3SwJI2oMsMbFIjbqkIQSD5kLEA/rAor4x/4J6/taXP7dH7Hfgv8Aasu9AXwxJ4uivJTpiXX2wW4tbua2A84xw79wi3H92uM45xk+C/tx/wDBYH9jn9gHx9pnwt+Mlzq+q+Ib61/tC5sPD9kL+XTrDO37VefPGIoic4wWcgZC4wSAfqRRX5q/teft4Xvwn/Y70j9t39m7TrX4jeADNZ3+t3thOTcQeHZ8pPe2cewrLNbEqzxSlAoV9+NrYsf8E0vjL+0/8Tvhhr/hn9qm2bVNW8NamI9J8ZW9otnpvizRL6Jbqx1C1RAqKTDIqTIi7UcYzv3qoB+kVFfkl/wVk/aP+OX7PFt+z9b/AAK15tBufHXxg8N+FdWK29vc/adL1ETieHFxHKE3FU+dArjHDCq3xk+P/wAZtB/4LNfB39nDQvEE9t4I17wPreranpKpEYrm7tmkWKRmKGQFeMBXA4HHXIB+u1FFfkT+3P8Atj/GKL9p34ff8E5/2OJraD4keN0/trX9auYvtEPhzwzbPia58s/K1xPtaOBW4DYzgujUAfrtTGliR1jdgGfO0E8nHpX4Zft//HH/AIKsfsi+BfiV+05pXiv4S2fw08LrNe6Za6rp+qTarJASEt7d2iniha4mlZY1xhdzDJxzX5L/ALW/xG/4KV+FPip+yl+3j8fNe+Gmi+Lr++n0fwjocmmX1rNbf8JXZCO5m1SKe9CJHZxlBKyXC+S0nIfpQB/ZxRX4FaV8af8AgrJ4o1W38M+FfjZ+zZf6nfv5VrbWw1GWeaQjIVEW8ZmbAzgKT7VwX/BYDxh+0/4b1X9lf4eaVrviFfEHibUdRs/Etl4C8RHwqdWuYNPjkkWK7nkiijiWZWkj+0Hhcr95qAP6MqK/kx/Zv8R/tMfD3/gpH8O/h74u1D4neHdD13wp4su59N8X/EO38YW95NZWyGKREsZ5EhaAvn96MklSn3Wr4+/ZZ1D9sj4n/sbeH/jHrDfG/wAR31/pFxdvrlp8ZdP020naNpAJVsrq6+1Rqu0Ao43nBI6igD+4+iv5vPhH+0V+2/4K/wCCI3we/bT+E2rS+OfEXg+0fxF4xsNelkvLrxBocb3S3kf2qQvKk8KFZ43ySBDtww+Rv3f/AGevjv8ADv8Aad+CPhj9oD4T3RvPD3iywi1CzdhtdVkHzRyLk7ZI3DJIuTtdSO1AHrsVtbQM7wRqjSHc5UAFj6n1NT0UUAFFFFABRRRQAUUUUAFFFFABRRRQAUUUUAFFFFABRRRQAUUUUAFFFFABRRRQAUUUUAFFFFABRRRQAUUUUAFFFFABRRRQAUUUUAFFFFABRRRQAUUUUAFFFFABRRRQAUUUUAFFFFABRRRQAUUUUAFFFFABRRRQAUUUUAFFFFABRRRQAUUUUAFFFFABRRRQAUUUUAFFFFABRRRQAUUUUAFFFFABRRRQAUUUUAFFFFABRRRQBwfin/kYNI/7b/8AoIrTHQVmeKf+Rg0j/tv/AOgitMdBQA9PvUP96hPvUP8AeoA/Kv8AbxONZ+EpP/PfU/8A0daVqaaPlGewx7Vl/t4/8hj4S/8AXfVO2f8AltaVq6U2dpHX26/lQB6DpvOM967jTOMD9K4PTQQAenv/APq613enY4HQcdqAO4segz0yK6u0PGT79elclYZKqQOvtnrXWWR5BHX26/lQB09vz171uQccfXisO2XAB6e//wCrrW5DjkdB9KANmLgDPSr6DgZ7Aj26VnxZOCB1z2z1rRiPzAjr7dfyoAuJyOe5qdBgY/Sq8a4XPT3/AP1danQde3QUAToMGpqhT7wOPWpqACiiigD/1f7+KKKKAK2Of/rVE5w369u361KBnGOtQnqQP8DzQBEww35dOv58VnuTtFXpBk474x0qnJ09CTnmgDLnwR2/Kse4ODz9ef8AOa2JuVAHX3/+vWPN3A/wOCelAGDcjGf6dfz4rlbwn/P0rqLtcqR7EdK5m96nsSc80AcfqGDnp09K4jUjg8/Xn/Oa7e/54HXHf/69cRqHcD/A4PagDhL8YP8Ah16evFeG/FUn/hCNV/69Zf8A0GvcNRXOR7EdK8R+K3/Ik6t2JtpTz/u0AfKf7dn7W/xK/Y2/4IaH4h/B69k0rxNrd/NoFjqEORLZm+1C582aNhgrIsKSCNwQUchhyBVb9kz/AIN1f+CfXiv9lnwv4l/aY0TUvG3xC8VabbazrXiGbWL2Kf7ZfRiaRY1imSIojOVDSI7vjcxJPH1f4s/Yo0P/AIKC/wDBI1/2ZNUvRpV5qv2250u/YFltdQtNRnlgd1HJjLDZIBk7GbHzYr5D/Zu+Mv8AwX8/Zu+Dmlfso65+zdovjvVPCdmmlaX4yfxRaWthNZWo8qCSeEyebMwRVH3oZWUAsgbJIB9z/wDBXXwJ/wAE19a+GHhHxF/wUw8T3OkeDdAvZ2stIhvrmBNWuHjUbHgsgbu4MQUFfKK7C2WOCK/AH/gn/wCIf2V/hX/wXp8BeGP+CcFp4g8MfCz4jeD9Q/tTS9XgvrWK5nt4L2cSQLfkyyw7raFkc5Cv5iqQMiv09/4Kxfsk/tza9+2Z8Bv+Cg/7MfgnT/ijP8M7SS21HwfdXUMCJcSF2+0RfaHVST5uA6kyRyQxOFYA4+bfiH8Fv+CyniP/AIKP/B3/AIKl+NPgjot9LoVpd+HJPBGia/bfbNM0yaO5jEl5eTssEkrtfTSK1vuQCNUcIWyQD3b4Vf8AK0l8S/8AslMH89No+FX/ACtJfEv/ALJTB/PTa+mPh/8AseftF6J/wXt8cftp6p4e8r4Z6x8PodEtNY+12zeZfqbHMX2cSm5X/UyfM0QT5fvcjJ8P/wBjz9ovRP8Agvb44/bT1Tw95Xwz1j4fQ6Jaax9rtm8y/U2OYvs4lNyv+pk+Zogny/e5GQDyzxNoH/HTb4e1Hb/zRJ7rP/cQuIM/0r+hmvzx1LTf2jX/AOCl+n+IIPhF4Xm+G6+EWspPiO623/CRxXHmSS/2armf7T9lLkPsEBj3MW3ZzX6HUAfj3+3F8O/DWj/EbUPiv8Qf2w9d+B2k3MECposOp6XZWcZiQKWiW8ieRmkI3EKTljwK/nv/AGfPjZ4K8R/8E8f2/vhp4d17XfHr3mqeJNctvF97Zt9k1OwjS1tYppLtESE3NwcyCJVDFFLbQMV+jH/BQH4c/sh/Cj9ovxB8Hf2PP2bofiV+1F8UFl1v+09T0t7vSdIbUndW1ae4vw9rGI5AzKIFCeapDsrcN7r8ef2LvDX7AX/BAD4i/sweGrk6pc6V4Pv5NRvlXBvdTvW3zyKuM7TI2yJTlhGqgkkEkA434E/Bz493PwN8GXkP7e02j2r6Hprrp39meHsWsZgjIg3sBJ+7HyZY7uMnmv2l+Omsfsp+A7LQv2sP2hJ9A0638D+Y2keKNVMSrpv9sKltIYLlv9WLlWSNipw4IHIr4I/Z1/4JK/8ABNHxZ+zv4E8R+IPgl4Vur7UvDul3NzPJYL5kks1tG7ux4O5mJJPrU/8AwWi+BHi/4g/8EuvEvwI/Z/8ACl3r16s/hy207R9LgaeUW1jqVo5CRjJKxwxHPoo5oA/mB8I/FzwJ+wD+yZo/hJrf9kv41XGh3X2czrLLq/iG7GpXrv5kpeziDR2wmwzbvkhjGAcYr7i+DXj79n/T/wBu74P/ALT/AMSfiD+y14B8OfDVfES31v8ADfU5LW91Ea1p72kfmpJaRJL5L7Su6RdqvIRknB/R/wD4LtfA34B+CP8AgnxqOteHPBeg6ZdnxN4ZiE1pptvDLsfU7fzF3JGDhk3BhnBHBrzv/gsN8G/E/wAUvg34y/Yr/Zh/ZdutR1jxRDpS6Z400qx0220y3YXcE83mTbkniKJG6NhcHPXBNAH6Z/tR/EGx/wCCb37DN/rH7IPwufXhoYjsvD3hjw9bAW8d1qlxtjkaKIh/I+0Tb5BEC7FuMAl18M/4Jh/8E5ta+AHgvxT8dv2wZYPGXxw+Mga58a312qXEUNvOONLiGDH9njXCyKg8tyAozHHGB+wFvH5MCRf3VA49qloA/mI8f+C/ib/wQc+Jup/Er4ZaTe+Nf2PvGt40niPw5EpurrwZdXR2vcWysTvspM4ZW+XHyOQ2x5P6L/hD8Xvhh8evhvpPxc+DWt2niHw1rkC3Fjf2T74pEPb1VlOVdGAZGBVgCCK7nVdK0vXdLudD1y2ivLK8ieC4t50EkUsUgKujowKsrAkEEEEHBr84/wBj3/gmv8LP+Cf/AMRfib47/Zw1DVV8O+OBBeWnguS6I0nTb2ESGZrYMSF+0ExqCy5iVNoYoVVAD47/AOCsupw/Eb9uv9iz9mfRWFzqkvxDPjWe3T5mitPDkYmMjgchSDJtJ4OxvQ1sfGz97/wcI/BWP/nl8Lddf/vq4kWrH/BOT9kr9qDxv+1N42/4Kcf8FCNKt9C+IevQP4c8K+GIZVuY/DuhW8hyBIpZWlnIzuU5Ks7nHnFE8s/4KM/A3/gpZcf8FPvh1+0n+wP4P0fVzaeA73w5LrPiC4WPTNNmubqRpJJY1lSZmRHRowiSbiT8rBWFAH6QfH39vDR/hH+2X8I/2K/B2hyeK/E/xFe8u9UjtJlV9E0e1ici+mU8bHlG1QSu5UcLl9qt+W3/AATrvrn4if8ABeD9sf4geKNzajoFno2gWIkPMVjhAVQdAjm1jc46k56k1+g//BPf/gnEv7JuseIf2g/jt4om+Jnxz8eqP+Ek8W3SlQIcqVsrKM8Q2sexAAAu/YvyqqpGnwt8RbK3/wCCdX/BbuH9pfxh/oXwu/ad0i38NXmpsSLbTvFVkIxbLOcEItxHCFjYkAvLIxwsbGgD4o/4KWftUfGP9oH9tb4X6V8T/Aeq6P8As5fDv4mrpdzZ31pM994s1jSYpbmaaKyRS9xawLCUgQAiZpM/OWKRePfEm5+Lv7ff7WVr8Uf2w/DNj8NP+Fu+GTZfAIeNbG31bRbSSyvEmltdRsrhHjS+1aIIVlI3rFIFiEjeXj9tP+Cs9/Dpv7Qn7IF9cJI6QfFeCVxFG0rbRaTDhUBYkkgAAEknABNfIH7Rnjn49f8ABdzwyv7Nv7O/w3ufA3wVGow3Wp/EnxtYGG8d7OTKnQ7FmWTzSQy+eWACFkbyiSGAPmv9jL9nb4b/ALZ3/BQz4dano3wT8IfC62/ZttpdQ+ID+FLa2+w3fjcyFLSxiurdSJVtPKS7KB38ly0UjFgrN+lX/BWb4XfDv41ftlfse/C/4s6NaeIfDur+LPEEd7p19GJbedE0wuA6HggMoP1FfMnwQvP2yv8AghH4SuPgl4y+GU/xq+AlvdXOo2ni7wTaIviKxNy5eU6pY7v9IZR/y3DBQijMpACJ9E/tYfFrw18d/wBqv9gr40eCLe+j0bxNr2taraC9tntp1trnScxtJGwymd64zwcggkEUAfnFr3xK+D37KH/BQb4r/Db9n/w/+zh8GZPhxLY6bp1/4zjvdO1S/ttY06K4n2NbTBHQeY0b4RflIHPJrpv+CffwQ/Ys/a01X9oLwD49+EPwT12L4Xabo8ula/8ADyxmnsLt9WtbyaQ+ddSSMzQtCifKF2uHznjH2rN+wR+3jrf7ef7Qnxs+H2p+EfBvhfxpqegzaXceJvD9v4lfUUstMit5HhCXkUlssciMrJKgLnDDgZPFW2n3n/BKfxv8WviV+1Zqt3461z4/6XYxWS+AvBlxBp9pJ4dtZrXy3jt5bkRvMLuIjdtBKscnnAB9rf8ABFTR9M8Rf8Ehvg74f1qFbizvvDk1vPE/KvFLPOrKfYgkGvjT/g138T63qv8AwTh1jwfqU0k9n4S8d6zpOnM5yv2YxWt0dn+yZbiQ/wC8TXQ/A79oe+/4Js/8ED/AXjH4o2F1pPjSDw0dM0LQ7iF47+613UXmNjbLAV8zexZZGXbuWNWOOMV9p/8ABHD9jHXP2E/2APBnwX8bxCHxVeCbW9fQNu2ahqDb2iJHG6GIRwsQSC0ZIJBzQB+olFFFABRRRQAUUUUAFFFFABRRRQAUUUUAFFFFABRRRQAUUUUAFFFFABRRRQAUUUUAFFFFABRRRQAUUUUAFFFFABRRRQAUUUUAFFFFABRRRQAUUUUAFFFFABRRRQAUUUUAFFFFABRRRQAUUUUAFFFFABRRRQAUUUUAFFFFABRRRQAUUUUAFFFFABRRRQAUUUUAFFFFABRRRQAUUUUAFFFFABRRRQAUUUUAFFFFABRRRQAUUUUAcH4p/wCRg0j/ALb/APoIrTHQVmeKf+Rg0j/tv/6CK0x0FAD0+9Q/3qE+9Q/3qAPyr/bx/wCQx8Jv+u+qf+jrStTSzhVz9ef85rL/AG8BnWfhKB/z31T/ANHWlamk/cAH+Bwe1AHf6aMEf069+/FdzpxOBXCacuePqOn1rvdP7diSDzQB2tjg46flXWWhxjPpnn/Oa5Ow5Cgdff8A+vXWWPQAf4HB7UAdRajB/wAOv58VtQE4/CsO3XPH1HSt6HqexJzzQBrxYJHT8q0UOCM+mefp+dZ0POAOvv8A/XrRi7Af4HB7UAXYxgfiBx/jxUqHj8KgRcqR36dKsL1PYk55oAlQfP8A55qeoExuFT0AFFFFAH//1v7+KKKKAK3Qc+1Qv3z2456VN244/DNRMfn46+3WgCCTlue9UX4XH6VedcYPTpz/APq61RkxjHQcdqAM2bheenH9Kxbgdc9sj2rZmyVBA6+2euKx5z8xI6+3Xr6UAYF3yDnvXL3nGR9eK6i6XCk9Pf8A/V1rl73GSOg+lAHI6hwOemK4bUh1z2yPau41DJGQOoPbPWuI1A/Pkdfbr+VAHB6jyTnv/wDWrw/4q8eCNVH/AE6y8fga9w1Bcc9Pf/8AV1rw/wCK2P8AhCdVHQfZpO3+yaAPuX9gf/k0/wAL/wC/qP8A6XXFfYVfHP7BksUP7JnhiaZgiq+okljgD/TrjvX1lc67olncWlpd3kEUt+xW2R5FVpmA3ERgnLELzxnjmgDUorG1LxH4e0a7trDWL+3tJ71/Lt45pVjeZh2QMQWPsM1s0AFFc9c+LvCllrUfhu81O0i1GUbktXmRZmHqEJ3EfhXQk45NABRWLo/iTw74h87+wL+2vvszmOb7PKsvluP4W2k4Psea1Jbm3gKrPIqFztUMQMn0HrQBLgZ3Y5pazYdZ0i51OfRLa7hkvLZUea3WRTLGsmdpZAdyhsHBI5xxXzj+1v8AE+fwT+zD8WPEHgLWIrXxN4a8H61qVuYZEe4tZ4LOWSGUoc4w6gjcuDigD6gor8pv+CI3x2+LX7S3/BMT4Z/Gv46a3N4j8U6yda+26hcKiyTfZtVvII8iNVX5Yo0QYHQc81+rNABRRRQAUV87ftPWH7VGpfDIW37HmoeGtM8YfbIW87xXDcT6f9kG7zRstSshkPy7eQOua/DPR/2nf+CznxH/AGxvFn7Bvh/W/hDqOs+F/DlvrGu6pBo2rnTLH7exSOzmkN4HW5kjKyoojYMhJyNpFAH9KUcsUyCSFg6noQcin1/Gn/wSv+Nn7cfw0/Zsvf2bPgB8WfgfpPhP4VeI9Y8NWl54sS7iuNUkS6e5murcx3qGS3eS4PlyNDFkDABwTX9Bn7EviD9vbxr4lv8Axd+0f43+F3jHwS9nJBYyfD6O7Mg1FJUz5ks8s0ZRY94ZVbcGIyKAP0gor+Hz9mjWf2xPjF8FNb+I1/c/GrxZKmsa9BFq2k/F2y0Sz8u0upo41SxvroXCeUqhTkYfGV4Irq0+M/7VfxN+DP7Eej2Pi34h+JL7xn4P8W32uW/h/wAa/wDCOajqk1nPAYpri/vJ0ikMIJx5rMxXKr1oA/tYrg/iX8Lvh38ZfBt38Pfipo1pr+iXpQzWd5GJI2aJg6MAfuujqGRhhlYAgggGv5g/2QPEf7Sngf8A4Ku/Cn4XeNb74l6H4f1zw74jvLnSPGPxCt/GNvfS2sKiOQR2U8kUXlFsjzRksQV+6a/d/wDbr/bq+Fv7B3wrs/HXjmyvvEGueIL6PSPDfhvSIzPqWs6nN/q7eBBk47u5BCggAM7IjAH2zRX8v3xc/b5/4LlaJ8f/AIP/AAWTwP8ACzwDqvxsn1MaHoWqzahq1/YRaVCtxO2pT2siQhRG4x5CM2Q2QMV95/s7f8FHPjnoH7TmmfsQf8FGvAFn8PPHviWGafwtruiXTXfhrxELcAyx20kuJYZ16iGQliMA7WaMOAfsdRX5S/8ABSj4O/thQXXhj9sb9hnXdQuvG/w2EgufBElw39keJ9JuHVrq2eEkIt1hQ0UoG/5do+YIR+Wv/BT3xx4Bl+IvivTfBXxf+L/gD4632j6NrTeE9Jv/ABBd+GtNEkEUfkvHoEbrH5gicPLG7gzFnwwOKAP6pKK/z3fCX7TXi39o6fQ/DfhP4h/tGfCi20uZ4vGmvXviDxH4oEV1attmsNPtbGFcSn5S8l48RhBIMTkAt/VL4i+Lfhn4n/8ABLXw54i/ZVm+J/xH0LXrS00rT9Y8M3wtPGkkFpMYnvWur4RkSF7crM7qC6ucDDUAfqD4w+F3w7+IGs+H/EPjfRrTVb3wrfHU9IluoxIbO8Mbw+dFnhZBHI6hsZG44wa7yv5Zvgx4Y/as0P4p6PqXhqw/ad0jUc3EFpf/ABD8Q6dqvhWznuYJIY7jVLOGRZJ7aB3ErIrA5UHPFWv2qPDP/BUfwn8cfgb8FvjH+1RL/Y3xe8R3Oi30fgjQrPQ57GK3tmuDJDesZ5mZsbRkKF68nigD+o+ivgr9mz9l/wDZ/wD+Cefw28Z+IPDHiDxL4g+1Rvr/AIk1TxBqt1r2pXRsoW3TmPLAyeWuD5EKvLtVSG2oB/L349/bp0b9rj4keKP+Ckeg/HDR/hZ4y+H15aw/C34ea5rCWgvdM01pDfrrFuGCrJqwkdIxkGNQoLlNslAH9vNFfzD/ABis/jx8V/GNt8ZLjwp+1RpNx4z0nTNbudI8F+KrC20TSp7m2TfaQRSyRMhj25cbQS7EsFYlR3H/AASL8UfGe6/b2+M/w48aax8VF0Lwx4Y0B4dD+KWspqt/a3eoyTO0qiCR4FWSOIbCPnxnJwcUAf0gVXa7tY7hbR5EEsgJVCw3EDqQOpxX5s/tt/Dz/gpjqd9q/wAQf2K/idoWg6fpugu9r4Y1Hw+moTX+pwCWTAvGlTyhP+7jGUYIRuwcmvxl/Zy+Cv7df7fnhD4Uf8FaL39o7wxomseE9F1hLf7R4PjEWkicPb6lDc/6Yqv5JjcCRlT5fnwA2KAP6yKK/nc/4Jr+NP8Agrr+2Z8M/DX7UvjP4v8Ah/S/A9/4gdrfS38JRx3esaBZXIjaYSeeDatdqkioNrlBtcM2RX9EdABRRRQAUUUUAFFFFABRRRQAUUUUAFFFFABRRRQAUUUUAFFFFABRRRQAUUUUAFFFFABRRRQAUUUUAFFFFABRRRQAUUUUAFFFFABRRRQAUUUUAFFFFABRRRQAUUUUAFFFFABRRRQAUUUUAFFFFABRRRQAUUUUAFFFFABRRRQAUUUUAFFFFABRRRQAUUUUAFFFFABRRRQAUUUUAFFFFABRRRQAUUUUAcH4p/5GDSP+2/8A6CK0x0FZnin/AJGDSP8Atv8A+gitMdBQA9PvUP8AeoT71D/eoA/Kv9vHH9s/CXP/AD31P/0daVp6WPkGe2R7Vmft4/8AIY+Ev/XfVO2f+W1pWppR+6R19uv5UAd9p3OM967vTuAB+lcJpq4APT3/AD9Otd3p2OB0HHagDt7DhRnpxXVWg+XnsMe1cpYZKqQOvtnrXWWR5BHX26/lQB09vz171uQccfXisO2XAB6e/wD+rrW5DjkdB9KANmLgDPSr6DgZ7Aj26VnxZOCB1z2z1rRiPzAjr7dfyoAuJyOe5qdBgY/Sq8a4XPT3/wD1danQde3QUAToMGpqhT7wOPWpqACiiigD/9f+/iiiigCtjn/61ROcN+vbt+tSgZxjrUJ6kD/A80ARMMN+XTr+fFZ7k7RV6QZOO+MdKpydPQk55oAy58EdvyrHuDg8/Xn/ADmtiblQB19//r1jzdwP8DgnpQBg3Ixn+nX8+K5W8J/z9K6i7XKkexHSuZvep7EnPNAHH6hg56dPSuI1I4PP15/zmu3v+eB1x3/+vXEah3A/wOD2oA4S/GD/AIdenrxXhvxVJ/4QjVf+vWX/ANBr3DUVzkexHSvEfit/yJOrdibaU8/7tAHz9+21/wAq9XxE/wCwTd/+nk14l/wTE/4Ju/Bn4PfsifD7/gqZ8eNU1fx58SfDngiPxFozzXksVjpOmW2msLWxt7aPCkR2uEcuG3SFmAycn7H+MvwM+KX7S3/BEPxT8DPgppf9teKfEWn3tvp1l58Vt50i6s0hXzJ3jiX5VJy7gcdc199/sR/BDxH8PP8Agn/8Mf2d/jZpYtNU0rwTpmg63p5lSYRyx2iQXERkhZ0bB3LuRyp6gkc0Afw4/s9fEL9g79sD4R+Ofjl/wUn8I/E34j/GTx5fX5tfEOiWF7c2GjQAbbaOx8m4SEiF8ny5EdFAEYUKDu/SXRf+CjH7YXwT/wCDcW58feK7nV9K+JVhrreArHV9Tjmi1KO1mYSpcBpcOZY7Vmhim4KsqtkuvP1R+zB8Gf8AgrD/AMEb7zxJ+zn8BvhLaftEfBq+1afU/DVzBr1toup6d9qODDcfaA2eFBfbCY95LiQbig/Qb41fsx/tGf8ABUv/AIJ1+MvgZ+2j4R0/4SeMtavWn0OzstQTV47BrPy5bOWeeElJC0geOYIB+7J2gNg0AfGP7Jn/AAbq/wDBPrxX+yz4X8S/tMaJqXjb4heKtNttZ1rxDNrF7FP9svoxNIsaxTJEURnKhpEd3xuYknij/wAFrfGHxA+P37ZP7O//AASi8OeIL7wx4O+J88moeLZdNlMNzeabbswFtv6bDHDOSrBlMhRmU7QCv7N3xl/4L+fs3fBzSv2Udc/Zu0Xx3qnhOzTStL8ZP4otLWwmsrUeVBJPCZPNmYIqj70MrKAWQNkn6e/4Ks/sFftJ/HzxV8Iv22v2Qm08fGb4M3Yu4NIv5RFZ6tbSFHltfMYqqnerKu6SNWjkcF1O00AfmX/wVf8A+CcnwL/4JN/Arw//AMFB/wDgm5Df/DXxn4B1vT4L1YdSvLq21awu3EbRXMdzNIWBk8veqkI6Fwyk7SvRf8F/tb8VfH3R/wBijxH8LtS/4RrW/GviyzudIvyvmf2fd6ktg1vNtP3vJeRWwRztr0X9qr4Uf8FaP+CxGleGP2W/jd8GbP8AZ8+GFrrFvqXivVrjxBa6zd3y2mcQ2kduoIzuZ0DRshcITKApDfXH/BVn9hz47fHf4kfsnSfs2eGRqug/CfxxY6jrJ+2W1t9g0u1ls8Pi4ljaXbHC3yxB3O3pkjIB8cft2/s7fDD/AIIX/wDBN/4jfF79kjUda/4Wb8R30zw5qHivVNQluL+eeeSR5bpeQkc3lmco0YVlZg2SVGanjf8A4IJ/sZfDD/gmprPxdthrtl8XtH8C3/iC+8YWesXUd5d6gdPknuY3iMhtzbTEtC6eXvMLEFyxZz+yX/BWD9h2/wD+Chf7EXij9nPw5ew6dr872+paLcXJIt1v7Jw6LKVVmCSLvjZgCV37sHGD+NS/8RC3xz/ZIvP2IvE3wo8P+BPs3hi40HU/GVzqdpeXGqW8No0aw21uty0aXF6qrC87HykMjPmLA2gH6A/8G6f/AChy+EH18Qf+nu/r9s6/Ln/gi9+zn8ZP2Tf+Cavw4+AH7QGj/wBgeLtBOsfb7D7RBdeV9q1S7uYv3ttJLE26KVG+VzjODgggfWP7Yep/tJ6N+zR4v1T9j/TrfVviXDZhtAs7toVhlufMQEOZ5IogNm4/PIoyOtAH0rRX5g6P4p/4KdP/AMExX8U6v4b01P2m/wCzZ2XRxJZ/YvtovGWJdwuTa4NrtY/v9u7qc8UaP4p/4KdP/wAExX8U6v4b01P2m/7NnZdHEln9i+2i8ZYl3C5Nrg2u1j+/27upzxQB6z/wUC/ae+Kn7LvwOh1z4DeBNQ+IfjzxPqUHh/w7plnEz2yaheK5jnvZAQIrWIIWdiVBIClkBLr/ACc/szfF39tcfse/E39kn9mPwnqHiz9oz4teJ/F954z8bxo8VnBZ6Wwtp2S+kVEa4lcPBaxKU8kzB8Izpn+wL9iXVv2p9c/Zd8J6r+2xplro3xQmhuDrtnZtC8EUguJREFNvLNEcwCMnZIwyTnByB/P5+wt+3/pv7HP7N/irwj4d+Hvir4l+OfGnxa8dLoGg+HrCSQXDwXUbM090VMUEaiVCzfOyqd2zbk0AfBfho/shfAD4D6T+1H4Z+EPw8+KXwj8T6Cug6do+r6NY/wDCYeHfHdlaJDHpVziL7RqT3l0C8rFPNVWaUbIlQSf0x/8ABH79iu7/AGE/2FfC/wAJ/FFtFbeLNXaXxD4lWFVRV1TUdrPEFQBR9niWK3+X5f3WRwa/FqD/AII+/wDBQvV/i/L/AMFWbaXwRoXx2Os/8JHbfDZrETeHVHkmIxzXQkx/aLj52uU+Xz/nEqk71/Yv9iz/AIKYa/8AtF/Fqb9l74+fB/xd8Jfijp2myand2Wp2v2jSZreBkjkltb9MLJHvdQrFApJAVmNAH88/w++EP7Lnwn/4Ix+Jv23fEHwi8DeM/HVn441Gya+8W2DXEDQ3XiL7Dmd4njk2xRSZUhxt2jqBg8x+1d+0x8P/AAx+zpp13rCfsk/E2w+HFv8AZvD3hbSH1K9vI4r+4iWaOzga4VcZPmuNw+VCa+v/AIKfs+/Gj9qX/ggPr3wT+AmkDVPFOqfEC8uLa2neGFBFbeJ1u5JG+0yRRsqQoXKlwXAwMkgV9a/tL/8ABKv9uj9o34H6/wDBvx38U/h5FpOrxxG4bR/h+LS+xaypcKIZVvyVYtGB7gkd6AJ9T/ZP/Zr/AGV/+C0f7Penfs5eCNI8Fwaz4R8ZSX0ek2y2y3DwxwBC4XqVDMB6ZNehXWm6Z8av+DhJbHx8pntvhD8J01Hw5ZzHdGmoatfeVcX0aHID+S4gZhg8L6CvMvAv7THh/wDbq/4K5/Bj4n/BTwr4ttdB8B+EfFMOt3uu6FdaXDbS6gIFhjLzoqlmKkYB+mecfan7dH/BNTXP2n/jB4Z/ag/Z7+J+p/Bj4reGtPm0QeINNtEv0u9JnYu1tcWzyRBwjszxtvwrMSVJCFAD5c8Gain7Xv8AwXw1vxloJ+0+Fv2ZPBZ0NrlPmj/4SXxAzecit0ytqZIpAOVeIg9as/8ABea50lfC37OVjoXlHx7L8Z/DD+GQBmcSxu/msMfN5QzH5mONxTPavVfDH7M3xz/4Ja/sk2Pw3/4J7+Ao/jX448Q65Le+JdU8RaxHplzdX14jPNqdy0gxKisix+SsquFKkGRi7HB/ZT/4J3ftK+M/2n9P/wCCgH/BTjxZpvij4haFbzW/hTwvoEbp4f8ADMdyCJHi8z557hlbbvYEqeS8pEbRgF//AILC/E/9v79mT4LeKP2tv2YviBoOh+E/Buh2r3Wg6joi313dXr3ZieVLlpAI1Mc0QCFGGYyf4uPzO/aV8b67of8AwVv8e6rF4r+KHhm4vfh74Vaab4X6AuuXE7Ezki6ja0u/KjBOUIC5ORk4r9F/+Crvhf8Aa/8A20p5/wDgmZ+zv4Q/sfw34u0iHVPFHxD1pS2k2dmk7NHZ2qxktJdyTQKHU4KRnO3a3mL8YfAf9o349/ss/taeK/j/APtp/Az4nDxfrfhfSPCt6ngrw3/wkHh2X+xS229t9Qt7jcBc7i/kPCDFnBdiDQB+eP7EvxL8Q6T4Z+MC23xG/aJ0z7T8SPFM7r4a8GpfRXDSSrmbUGOmS+RqEnW6gBjETcbFr9dP2A/Dmn+LP+Ddnwf4e1Tw/Z+Kba58OXYl0rUNZfw9bXKrqczFZNRjZWtVGN3mBh0x3r5Hs/2rLj4W/B/x/wDD79mTRv2hfC2u+PviFrHjy61i1+F8OoyINaJM9gtveyeUY92GWTKyAqOQMg++R22jaB/wbnfEn4VeG/Bvjfwhp/g/wtq2i2kHj7S00nWL4nE5uvssckuyKSadkjG4n5COQAxAPnr9nH9kn9n3xT8ZdJ8O+Pv2efB2kaBfwajbald2Hxm1DxLcJZTWU6TiPTfOzcFoyykL8yglxgrmvhH9oDSP+CE/jj4tfAzxR+y58PNRn8Bx6/dTeN5LbQ/EDRTaV9nZYhl0LSAXAGRAS2Rzxmvrj4eeFvAI/aj/AGUdf+G37L+rfBgafY+IG1jxBPo1jZw6t5nh2ZEZpbGSV2zIdwM4TJk4+YkV9E/8EkP22/2ifgp/wTq+GPwu0n9mP4h+LLfSLK6jTVtNFilrdB7yd90az3McoA3bTuQcg44waAPu3/gmL4I/4JY6vH4/+JX/AAS38OR+H9esYv7A1a4urXVLXy53Xz4o5be/KkhWCs21Q2OM81+EHxP+Kv7THjn9oL4UftZ3njr4c6pBb+EviNqy6gvg64t4Ug8OhE1NL2xnuVlluC0JEG5oypGSCGr9kP8AgkR8QPGHiH4m/td/Fzxb4I1zwzf3/jlNR/4R6+iT+0VKWC/uRtcxPIxTC7ZCpJHNflPqX7An7an7XPxB/tH4K/Ba+8D+A9UvfG19cn4q6iNM2DxrNbzywRWOlSfb4ordoMqjMfNLsrsFJFAHEfH/AOFPw98KfC/4r2fj218Q6R45m+E9j8U/BniXTPEeuW9pqb3MUf8AafmWM120NtJDey5jtcELC4zyMnv/APgmR8Of2Vv2nPjx8HdU/Z08A+I9S8V6Bptjrfxg8Sar4j1uCHSdY0o7LW0CSTtHdTSXcLyLbyK0Ytjjj59mL/wVhf4xT/CrxJ8Mv+CmvxRt9K8TL4fmPw5+G/w+0nUV0jVriGQ21veX94kEiu7PF5sdm8qpD8jHGSh/XTw9+yx+19+xR8ePC/7RX7GOhW/iTwl8T4dEs/id4HvLkWT2epCOOB9bsnf5EkVf+PtMEybS21iQ0IB4d/wVv/Yl/Ys+Dus+FvjVoXwPh+IfxC+NfxFsfDMsd74t1rRreS/1iK4kWYm2uTFGDJCFIWMKAxOOK+Uof+CP/jG2s3063/Yh8Gx28m4NEvxZ10I27rlQ2Dnv61+gn/Bw5pXhzxB8GPgF4e8XeGdR8aaXdfGfw8L3QdJ3C+1K1+y36y29uUkiYSyhtiESxncw+ZetfCP/AAzX/wAE+f8ApH58cf8AwKvP/l/QBnfsy/8ABPP9lLxT+3I37CP7Un7Lul+Ark+BZ/GltPo3xA1/VVa3jvo7FEx9ohVcuzkjqNo9a/rg8D+DPDfw48F6P8PPB1v9k0jQbK306xgLtJ5VtaxrFEm9yzttRQMsSx6kk1/Kv/wTS8EfBr4d/wDBa+fTPgr8GvFvwR0q6+DN4ZNH8YPLJd3V0dZtybmNpby9PlNGgQASKN0bfKOp/rQoAKKKKACiiigAooooAKKKKACiiigAooooAKKKKACiiigAooooAKKKKACiiigAooooAKKKKACiiigAooooAKKKKACiiigAooooAKKKKACiiigAooooAKKKKACiiigAooooAKKKKACiiigAooooAKKKKACiiigAooooAKKKKACiiigAooooAKKKKACiiigAooooAKKKKACiiigAooooAKKKKACiiigDg/FP/IwaR/23/wDQRWmOgrM8U/8AIwaR/wBt/wD0EVpjoKAHp96h/vUJ96h/vUAflX+3j/yGPhN/131T/wBHWlamlnCrn68/5zWX+3gM6z8JQP8Anvqn/o60rU0n7gA/wOD2oA7/AE0YI/p179+K7nTicCuE05c8fUdPrXe6f27EkHmgDtbHBx0/KustDjGfTPP+c1ydhyFA6+//ANeussegA/wOD2oA6i1GD/h1/PitqAnH4Vh2654+o6VvQ9T2JOeaANeLBI6flWihwRn0zz9PzrOh5wB19/8A69aMXYD/AAOD2oAuxjA/EDj/AB4qVDx+FQIuVI79OlWF6nsSc80ASoPn/wA81PUCY3Cp6ACiiigD/9D+/iiiigCt0HPtUL989uOelTduOPwzUTH5+Ovt1oAgk5bnvVF+Fx+lXnXGD06c/wD6utUZMYx0HHagDNm4Xnpx/SsW4HXPbI9q2ZslQQOvtnrisec/MSOvt16+lAGBd8g571y95xkfXiuoulwpPT3/AP1da5e9xkjoPpQByOocDnpiuG1Idc9sj2ruNQyRkDqD2z1riNQPz5HX26/lQBweo8k57/8A1q8P+KvHgjVR/wBOsvH4GvcNQXHPT3//AFda8P8Aitj/AIQnVR0H2aTt/smgD7l/YH/5NP8AC/8Av6j/AOl1xX2FXxz+wZLFD+yZ4YmmYIqvqJJY4A/064719ZXOu6JZ3FpaXd5BFLfsVtkeRVaZgNxEYJyxC88Z45oA1KKxtS8R+HtGu7aw1i/t7Se9fy7eOaVY3mYdkDEFj7DNbNABRXPXPi7wpZa1H4bvNTtItRlG5LV5kWZh6hCdxH4V0JOOTQAUVi6P4k8O+IfO/sC/tr77M5jm+zyrL5bj+FtpOD7HmtSW5t4CqzyKhc7VDEDJ9B60ATUVmw6zpFzqc+iW13DJeWyo81usimWNZM7SyA7lDYOCRzjivnH9rf4nz+Cf2Yfix4g8BaxFa+JvDXg/WtStzDIj3FrPBZyyQylDnGHUEblwcUAfUFFflN/wRG+O3xa/aW/4JifDP41/HTW5vEfinWTrX23ULhUWSb7Nqt5BHkRqq/LFGiDA6Dnmv1ZoAKKKKACis3WdZ0fw7pVxr3iC7hsbGzjaWe4uJFiiijQZZndiFVQOSSQBX87/AO1D/wAFI9T/AG+vGepfsE/8EzfElrDb3GLXxv8AFF51h0zQtOlJWWPTpGZDdXkyh1jeI7QOUbrLEAf0ZUV/MRovxi8a/wDBDfxlLo/ibxJf/F/9lrX7iKRdYe+TU/EXg+/nwj+eisGuLGaTDZRRsZuBv4n/AKGPgh8f/gp+0p4Ctfif8BfFGneLNBvFBju9OnWZVJGdkgHzRyD+KOQK6nhgDQB6/UIubdpzarIplUbimRuAPfHXFfyWS/t5/tpa78SvitN4i/aC1rwdpfh/4n+L/CGiaXofwuTxaEsNBuIljaW4tgrI224VAJFLNsLFiSa+JY/2nPi74B/4KBP8SPD/AO0B4wPiX4geGPsuq6/J8HZI5hb6S48mCPS3PmSA7svPEoC8Bz0oA/uzpCQOtfzd/sjftP8A7SXxR/af8FeA9V/aR8WeJLK9vJXudI1D4OP4dtb2G3gkneKTUZsC2ysZw4+YthRya9S/4LA+INU/aU+OvwO/4JefDO9gg13xpra+M9deZiI7fRPDyyTosoUh8XVxHtQryDCfWgD98JJI4YzLKwVVGSScACnKyuoZDkHkEV/H3+3J+2v+1b4u/Y5+KHw8+IH7Rv7M/iC2vPDep2l9pOg3ly2t3Q8lw0FojXzD7SxG2MGM/PjK16f+y5+2x+2SPgZ8OPhl8PP2kP2Ybeb+w9H0vTNJvLu6fVkbyIoobaaNL/m5B2xuqx/6zICjpQB/VtRX4m/8FmPiX8efgx/wTKtfFFr4xn8J+NV1TwxZatrfhyeSwVJbi5hivGgdjuSFizlQ+flxuzzX5kf8FDfBWn/sw/sb+N/jt8Av25viH4p8XeH4LWTTtKm8Z6fdpctNdQwuDFbRJM22N2b5GGMZPAIoA/rpor+Zb4lfs/8Awx8KfBbX/H3h79vr4i3er6bol1qFtanxxpbrLcwwNIke1IA5DOAuFIY5wDmv0u/YC/aIXQ/+CT3w8/af/aO8R3F2lj4Kj13XtZ1CRrid0hiaWWV2OXkfAOByzHAHOKAP07or8x/+CX/x5/aY/a5+Fut/tdfHG3g0Hwv49vFn8C+G44wJrDQrfekc9zL1knvCfNPVQgQphWwP5kv2K/Fdj8UvgDZeOPjJeftf+KNdvNR1VX1LwHNq97oEsMN7NFELaZGZW2RoqSYJxIrDtigD+6Wiv40/iH4z/ZZ+EfhG6+IHxXuv23fDGg2JjW51LVp9VsrSEzOsUYeaZ0jXfIyouWG5mAHJFftB/wAERbX432n7K3iqP45Q+OILg+O9cbRk+IYuxro0U+T9i80Xn7zHl9dvyb9+O9AH7GUV/D5+zRrP7Ynxi+Cmt/Ea/ufjV4slTWNegi1bSfi7ZaJZ+XaXU0capY310LhPKVQpyMPjK8EV1afGf9qv4m/Bn9iPR7Hxb8Q/El94z8H+Lb7XLfw/41/4RzUdUms54DFNcX95OkUhhBOPNZmK5VetAH9rFFfyj/sgeI/2lPA//BV34U/C7xrffEvQ/D+ueHfEd5c6R4x+IVv4xt76W1hURyCOynkii8otkeaMliCv3TX6h/sy/tj/ABi8Ift4+Of+CdP7X01tc65Mlx4r+Huu28XkJrHh24mkb7NIgwoubEAxEr/rEjZiMrvkAP11ooooAKKKKACiiigAooooAKKKKACiiigAooooAKKKKACiiigAooooAKKKKACiiigAooooAKKKKACiiigAooooAKKKKACiiigAooooAKKKKACiiigAooooAKKKKACiiigAooooAKKKKACiiigAooooAKKKKACiiigAooooAKKKKACiiigAooooAKKKKACiiigAooooAKKKKACiiigAooooAKKKKACiiigDg/FP/IwaR/23/wDQRWmOgrM8U/8AIwaR/wBt/wD0EVpjoKAHp96h/vUJ96h/vUAflX+3jj+2fhLn/nvqf/o60rT0sfIM9sj2rM/bx/5DHwl/676p2z/y2tK1NKP3SOvt1/KgDvtO5xnvXd6dwAP0rhNNXAB6e/5+nWu707HA6DjtQB29hwoz04rqrQfLz2GPauUsMlVIHX2z1rrLI8gjr7dfyoA6e356963IOOPrxWHbLgA9Pf8A/V1rchxyOg+lAGzFwBnpV9BwM9gR7dKz4snBA657Z61oxH5gR19uv5UAXE5HPc1OgwMfpVeNcLnp7/8A6utToOvboKAJ0GDU1Qp94HHrU1ABRRRQB//R/v4ooooArY5/+tUTnDfr27frUoGcY61CepA/wPNAETDDfl06/nxWe5O0VekGTjvjHSqcnT0JOeaAMufBHb8qx7g4PP15/wA5rYm5UAdff/69Y83cD/A4J6UAYNyMZ/p1/PiuVvCf8/Suou1ypHsR0rmb3qexJzzQBx+oYOenT0riNSODz9ef85rt7/ngdcd//r1xGodwP8Dg9qAOEvxg/wCHXp68V4b8VSf+EI1X/r1l/wDQa9w1Fc5HsR0rxH4rf8iTq3Ym2lPP+7QB8/fttf8AKvV8RP8AsE3f/p5NeJf8ExP+CbvwZ+D37Inw+/4KmfHjVNX8efEnw54Ij8RaM815LFY6TpltprC1sbe2jwpEdrhHLht0hZgMnJ+x/jL8DPil+0t/wRD8U/Az4KaX/bXinxFp97b6dZefFbedIurNIV8yd44l+VScu4HHXNfff7EfwQ8R/Dz/AIJ//DH9nf42aWLTVNK8E6ZoOt6eZUmEcsdokFxEZIWdGwdy7kcqeoJHNAH8OP7PXxC/YO/bA+Efjn45f8FJ/CPxN+I/xk8eX1+bXxDolhe3Nho0AG22jsfJuEhIhfJ8uRHRQBGFCg7v0l0X/gox+2F8E/8Ag3FufH3iu51fSviVYa63gKx1fU45otSjtZmEqXAaXDmWO1ZoYpuCrKrZLrz9UfswfBn/AIKw/wDBG+88Sfs5/Ab4S2n7RHwavtWn1Pw1cwa9baLqenfajgw3H2gNnhQX2wmPeS4kG4oP0G+NX7Mf7Rn/AAVL/wCCdfjL4Gfto+EdP+EnjLWr1p9Ds7LUE1eOwaz8uWzlnnhJSQtIHjmCAfuydoDYNAHxj+yZ/wAG6v8AwT68V/ss+F/Ev7TGial42+IXirTbbWda8QzaxexT/bL6MTSLGsUyRFEZyoaRHd8bmJJ4o/8ABa3xh8QPj9+2T+zv/wAEovDniC+8MeDvifPJqHi2XTZTDc3mm27MBbb+mwxwzkqwZTIUZlO0Ar+zd8Zf+C/n7N3wc0r9lHXP2btF8d6p4Ts00rS/GT+KLS1sJrK1HlQSTwmTzZmCKo+9DKygFkDZJ+nv+CrP7BX7Sfx88VfCL9tr9kJtPHxm+DN2LuDSL+URWerW0hR5bXzGKqp3qyrukjVo5HBdTtNAH5l/8FX/APgnJ8C/+CTfwK8P/wDBQf8A4JuQ3/w18Z+Adb0+C9WHUry6ttWsLtxG0VzHczSFgZPL3qpCOhcMpO0r0X/Bf7W/FXx90f8AYo8R/C7Uv+Ea1vxr4ss7nSL8r5n9n3epLYNbzbT97yXkVsEc7a9F/aq+FH/BWj/gsRpXhj9lv43fBmz/AGfPhha6xb6l4r1a48QWus3d8tpnENpHbqCM7mdA0bIXCEygKQ31x/wVZ/Yc+O3x3+JH7J0n7NnhkaroPwn8cWOo6yftltbfYNLtZbPD4uJY2l2xwt8sQdzt6ZIyAfHH7dv7O3ww/wCCF/8AwTf+I3xe/ZI1HWv+Fm/Ed9M8Oah4r1TUJbi/nnnkkeW6XkJHN5ZnKNGFZWYNklRmp43/AOCCf7GXww/4Jqaz8XbYa7ZfF7R/At/4gvvGFnrF1HeXeoHT5J7mN4jIbc20xLQunl7zCxBcsWc/sl/wVg/Ydv8A/goX+xF4o/Zz8OXsOna/O9vqWi3FySLdb+ycOiylVZgki742YAld+7Bxg/jUv/EQt8c/2SLz9iLxN8KPD/gT7N4YuNB1Pxlc6naXlxqlvDaNGsNtbrctGlxeqqwvOx8pDIz5iwNoB+gP/Bun/wAocvhB9fEH/p7v6/bOvy5/4Ivfs5/GT9k3/gmr8OPgB+0Bo/8AYHi7QTrH2+w+0QXXlfatUu7mL97bSSxNuilRvlc4zg4IIH1j+2Hqf7Sejfs0eL9U/Y/0631b4lw2YbQLO7aFYZbnzEBDmeSKIDZuPzyKMjrQB9K0V+YOj+Kf+CnT/wDBMV/FOr+G9NT9pv8As2dl0cSWf2L7aLxliXcLk2uDa7WP7/bu6nPFGj+Kf+CnT/8ABMV/FOr+G9NT9pv+zZ2XRxJZ/YvtovGWJdwuTa4NrtY/v9u7qc8UAelf8FIf2ePg5+0V+zDqOkfGrwFqvxN0/wAO3MGt2/hrRbmS1vNQubYlVhRo5IywYO25SwBHPBAI/AjxE/7F/wAWNH1qDRf+CemuX154StG0S5+xRaSx0qW3i8xYp44L3McqLIJGDqJTu3NknNfuL8Pf2kP2p/gP+wDoHxv/AG1/hzr3iX4owHytd8M+ArGHVtQMk968URggt7honVYDHJIVmIUZJ5yB+O/hL9pnxF8NP21fip+0z8Mv2cvj5p3hf4t+Gbe11rw4fAgHm+IrUukeoCQX+yMG3bZIojZpHZnJz1APz5/4J1Wf7LPgT9hbwD8Yvit+xVrPja60eGa+ufHyjT4bG5eC9lMc/nXN3DtEeFjPmKBlMcjr/QL/AME1f2b/ANm27+Nfi79sL4efs9a58BfEV/apppt7+ZI7DUoLsrO1xbWltNJapgoq7owowxwPmJP4QeHNf/aI1z/gmp8FP+CcnxI+APxssPDnh/VRP8RRpng2SVtW0yC8mvYrOzme5iKiSRovNZ0QjblSdu1/6OPAP/BRDWfGnwM+JfiX4c/s+fE7whdfDLw6b3StI8VeHRpP9rSLFL5NrYJHNL5mwxKHVOUVhgEkCgD+cbxJ49+LGl/B5r/4Sa34g0sfEP8Aau8cC4h8OeJW8K3Go2s0TYibUAyxxKXjBDSBlBHTNeZePvCPx4i/b7+H2n3dr8RBqcvhjWWt1m+N1tc6kY1ki3+TrA+S0iHG+3PM5wR92v1E/Z+/4Jpft2v+xF8LvhDq/hb4N+KdNNlJ4p1Wz+J2l6lqGpW/iLWp57m4JFtIkK+XDNFCfl3B1fJIwa+HfiT/AME7vj3ov/BSX4Z/Ba7+Gn7OkGs614T1u/t9LtNA1JPD08VvJGGkvIDKZZLlekDKQqrvzmgD9Cv+CUniz476d/wUx8b/AAj+I+seMF0W3+HFrqtvo3iXx7/wncaXMuo+UblLiNvJjZlXZ5YXeoBJOHArnvB/7JnxE+AP/Bef4bfGP41eLv8AhMfF/wAUYfHmoPPEjQ2tno9lBFDplnFExOzyYGO/BI3MRltu9vrT9k79h/8Abp/Zl+MWneMPCPgj9nXwhpF/NBaeIp/CGi6vYarPpXmo80cDtM0XmYXKCRSm4DPFYv8AwUK+NXgn4Af8FXv2e/i78QPtjaR4a8E+O769Fhay3twIVgg5WGFXdvukkgYUAsxCgkAH4NeOdZ1H9mv/AIJt/Gb9m34ufszWF14y8PrqX9r+MWvNCub3SB4nvpf7NlniSWS/jYiVEhGAxwCuFr718efAX9oX4t/D/wCB3wq8EfsXz/D3UvB3i7whqWreKhJoaytZ6RIguWf7O4uD5n+sYEk8cgmk+Nf7Ff7SX/BZX9oZf2x/hR4GX4A+HdBs7VbG48a2swv/AB1PY3EVzaLqmmQyqsdjEYhtkkEkjKV2+YoUQ/pJZf8ABUf9q39nSxk0P/goL+zZ4usLmwJSbxN8O7ceJPD9wq/8t8LItxaxt2SXe474JwADG/4OKNW0aw/4J+WOm6/avf2uqeOfDVrJaRxG4kuEF15rxLEATIzJGwCAEt071+M3/BT74jf8Eq9b/YS+IOl/s/8A7NWq+B/GEttaDTtcuPh7Jo0do4vIC7NemFRDujDJnI3Ftvev2Q/bbuPGX7cP7Zf7LH7Ofg3w7q9n4Q0m+tfjL4h1HUbKW2gjt9KAFlZlmG03Blm2XEGS0fmIT3x9F/8ABcDwF48+J/8AwSy+LXgP4Y6HqPiXXdStNOjtNN0m1lvbydhqNqzCOGFXkfaoLNtU4UEngGgD8e/ix8VP+CN0/wAA/Etv4a/ZO1mx1l/D94trfN8MZIFhuTbOElM5gAQK+G8zI24z2ri/2yvGviHwf/war/D2z0B5Ixrmi+GdNunjOCLd7hZWBPXaxiCH1DYPBNfsV+3d/wAFEPhF8Dvh/wCLP2afFvhjxpd+JNV8ITRWb6Z4eu76znlv7R4441niVlDBztcNt2nrXiWifsJeNf2nv+Dfjwz+xx4n06XRfGFz4E06SytNQVraW31ay2XVtHMHAaLdIixyBhlVZsjIxQB+j+ufETwT+xz/AME9P+FjPJFZ6J8O/AkU1uM4TZYWKiCNc9S5VEQdSSB3r+QL9lmz+JXwa1r4Zfs1+PvEfx3tPD8Hwf0rxTHonwfa8muIL/XdSvLt5bq2hSQRqY5wrOUBLgAnPFfqnP8AGf4Jft1f8EivA2i/tKWfje7vPhr4g0PQPiB4O8JWLXurXGqaE3lSWl/aKBKbS58sTsUIKMVwS8ZA8r+Onxp8NfEb9qq6/ay+CsH7Rnwr1q+8OWfhia30T4a/aIWsrOV5kX/SopQPmccKBjA7UAfDn/BRexg8Ufsw3ngTwlrv7VsFz4j1bSNKZvilb30XhfZdXkSH7WZYI0JBIMSluZAuBmv6a/8AglP+2Ve/tHfBCT4M/GUjTPjR8JXHhrxvo8zf6Qt3ZZhS9UHBeG7VBKsijZvLAEgAn8F/ip4p8RfHfw/aeCvjf41/ag8UaBb6lY6m+nXXwwgjilmsJlni3NBbxvgOgPDV+7f7InxS/ZV/ab/a08T/ALQfgf4OeMvBPxIXw9Bpt/4g8WeHbjRPtmniYFYUaVtssgZU3Nt3+WiKW2qoAB/PV8PvhD+y58J/+CMfib9t3xB8IvA3jPx1Z+ONRsmvvFtg1xA0N14i+w5neJ45NsUUmVIcbdo6gYPMftXftMfD/wAMfs6add6wn7JPxNsPhxb/AGbw94W0h9SvbyOK/uIlmjs4GuFXGT5rjcPlQmvr/wCCn7Pvxo/al/4ID698E/gJpA1TxTqnxAvLi2tp3hhQRW3idbuSRvtMkUbKkKFypcFwMDJIFfWv7S//AASr/bo/aN+B+v8Awb8d/FP4eRaTq8cRuG0f4fi0vsWsqXCiGVb8lWLRge4JHegCfU/2T/2a/wBlf/gtH+z3p37OXgjSPBcGs+EfGUl9HpNststw8McAQuF6lQzAemTXH/8ABZO+ufh9/wAFNv2D/ih4V3Q6xd+NbzQZniOJJLG/m0+3lU/7Cx3EoPs59a6XwL+0x4f/AG6v+CufwY+J/wAFPCvi210HwH4R8Uw63e67oV1pcNtLqAgWGMvOiqWYqRgH6Z5xD43srf8A4KQf8FtfBr+DB/aHw5/ZJt7ufWNSUn7PL4s1HG2ziYDDvbmGF5cH5WhdGwSu4A/osooooAKKKKACiiigAooooAKKKKACiiigAooooAKKKKACiiigAooooAKKKKACiiigAooooAKKKKACiiigAooooAKKKKACiiigAooooAKKKKACiiigAooooAKKKKACiiigAooooAKKKKACiiigAooooAKKKKACiiigAooooAKKKKACiiigAooooAKKKKACiiigAooooAKKKKACiiigAooooAKKKKACiiigDg/FP/IwaR/23/8AQRWmOgrM8U/8jBpH/bf/ANBFaY6CgB6feof71Cfeof71AH5V/t4/8hj4Tf8AXfVP/R1pWppZwq5+vP8AnNZf7eAzrPwlA/576p/6OtK1NJ+4AP8AA4PagDv9NGCP6de/fiu504nArhNOXPH1HT613un9uxJB5oA7WxwcdPyrrLQ4xn0zz/nNcnYchQOvv/8AXrrLHoAP8Dg9qAOotRg/4dfz4ragJx+FYduuePqOlb0PU9iTnmgDXiwSOn5VoocEZ9M8/T86zoecAdff/wCvWjF2A/wOD2oAuxjA/EDj/HipUPH4VAi5Ujv06VYXqexJzzQBKg+f/PNT1AmNwqegAooooA//0v7+KKKKAK3Qc+1Qv3z2456VN244/DNRMfn46+3WgCCTlue9UX4XH6VedcYPTpz/APq61RkxjHQcdqAM2bheenH9Kxbgdc9sj2rZmyVBA6+2euKx5z8xI6+3Xr6UAYF3yDnvXL3nGR9eK6i6XCk9Pf8A/V1rl73GSOg+lAHI6hwOemK4bUh1z2yPau41DJGQOoPbPWuI1A/Pkdfbr+VAHB6jyTnv/wDWrw/4q8eCNVH/AE6y8fga9w1Bcc9Pf/8AV1rw/wCK2P8AhCdVHQfZpO3+yaAPuX9gf/k0/wAL/wC/qP8A6XXFfYVfHv7A/wDyah4X/wB/Uf8A0uuK+obnxd4Ustaj8N3mp2kWoyjclq8yLMw9QhO4j8KAOhoqC6urWxtnvL2RYYYwWd3IVVA6kk8AVk6B4o8NeK7Vr7wvqNrqUCMUaS1mSZAw6glCQCPSgDdor8H/AIeftSfH7V/+Dgrx3+ybqXia4l+Hel/DuHV7XRCkfkRXrGxzKGCeZuPmv1Yj5ulHw8/ak+P2r/8ABwV47/ZN1LxNcS/DvS/h3Dq9rohSPyIr1jY5lDBPM3HzX6sR83SgD94KK/H/AFf9vf40WH/BaLS/+CeUNhpB8D3vghvEj3Rgm/tMXYMo2iXzvK8v5Bx5JPX5q/YCgAor8wvi9+2l+2r4C+KGueC/h7+yx4j8Z6Jptz5Nnrlpr2l2sN9HtB8xIriRZEGSRhh2zX4a+DfGfjjxp/wTg/4KJ+NfG+i3nhHW7jxjrtxNo9zdJcT6bMbW2kMPmwsYyUcnmM7SelAH9g9Ffg18Av2+P249A/Z+8E6To37IXjDV7ay8P6bDBeprukqt1HHbRqsoDTbwJAAwBG7nkZr6K/bi/bg+NnwT8cfBv9nj4TfClPG/ir45WuuxDTp/EX9gPYNpNnDdTILpIJvn8uSTDq0ZVoxtJLDAB+rdFfwl+Ivip+2N46/YV1L9h3xjr/w18QaYviW31bQ9c1H4taNc6lZaZa3qXcdhcSFgbxl2tGLgtGdrf6vCha+9NF/bT/4KCfG39vXw/wDGvw1ovgbXrHRdDvdO0H4d+Hfi7pu24upk8y6u7pYEkbUGWGNikRt1SEIJB8yFiAf1gUV8Y/8ABPX9rS5/bo/Y78F/tWXegL4Yk8XRXkp0xLr7YLcWt3NbAecY4d+4Rbj+7XGcc4yfBf24/wDgsD+xz+wD4+0z4W/GS51fVfEN9a/2hc2Hh+yF/Lp1hnb9qvPnjEUROcYLOQMhcYJAP1Ior81f2vP28L34T/sd6R+27+zdp1r8RvABms7/AFu9sJybiDw7PlJ72zj2FZZrYlWeKUoFCvvxtbFj/gml8Zf2n/id8MNf8M/tU2zapq3hrUxHpPjK3tFs9N8WaJfRLdWOoWqIFRSYZFSZEXajjGd+9VAP0iqA21s1wLto1MqgqHwNwB7Z64r8mf8AgrJ+0f8AHL9ni2/Z+t/gVrzaDc+OvjB4b8K6sVt7e5+06XqInE8OLiOUJuKp86BXGOGFVvjJ8f8A4zaD/wAFmvg7+zhoXiCe28Ea94H1vVtT0lUiMVzd2zSLFIzFDICvGArgcDjrkA/XaiivyJ/bn/bH+MUX7Tvw+/4Jz/scTW0HxI8bp/bWv61cxfaIfDnhm2fE1z5Z+Vrifa0cCtwGxnBdGoA/Xaiv51f+C4/jbxHonx+/Zk8D2urfEe20LxFqPihdX034XXF1Hr+oQ2tlBLGIYbVg03lSYdsg7I/MIxya+Mv7J+D3/QK/bu/741r/ABoA/r3or+MP4ceNIPE/7a3wp8B/sjX/AO09d6t4V8eaJ/wsCw8fz6nLp2m6NdxvKgvoi7CDzsI6/aFVHiDHkV+m3/Bb3xt8adD+J/7OXgT4Qav4stU8U6/rNrqGmeEfEg8L3epRw2aypGbySSOBNjDeDMSOoHLUAf0DUV/Jj+zf4j/aY+Hv/BSP4d/D3xdqHxO8O6HrvhTxZdz6b4v+Idv4wt7yaytkMUiJYzyJC0BfP70ZJKlPutXx9+yzqH7ZHxP/AGNvD/xj1hvjf4jvr/SLi7fXLT4y6fptpO0bSASrZXV19qjVdoBRxvOCR1FAH9qfh34XfDvwj4y1/wCIXhbRrTT9b8Um2Or3lvGI5L1rNWSFpiMb3RGKhj823AJwoA7yv5vPhH+0V+2/4K/4IjfB79tP4TatL458ReD7R/EXjGw16WS8uvEGhxvdLeR/apC8qTwoVnjfJIEO3DD5G/d/9nr47/Dv9p34I+GP2gPhPdG88PeLLCLULN2G11WQfNHIuTtkjcMki5O11I7UAeyUUUUAFFFFABXB/Dv4XfDv4S6Nc+Hvhpo1polleX11qdxFaRiMTXl9I008z45aSSRizMxJP0ArvKKACiiigAooooAKKKKACiiigAooooAKKKKACiiigAooooAKKKKACiiigAooooAKKKKACiiigAooooAKKKKACiiigAooooAKKKKACiiigAooooAKKKKACiiigAooooAKKKKACiiigAooooAKKKKACiiigAooooAKKKKACiiigAooooAKKKKACiiigAooooAKKKKACiiigAooooAKKKKACiiigAooooAKKKKAOD8U/wDIwaR/23/9BFaY6CszxT/yMGkf9t//AEEVpjoKAHp96h/vUJ96h/vUAflX+3jj+2fhLn/nvqf/AKOtK09LHyDPbI9qzP28f+Qx8Jf+u+qds/8ALa0rU0o/dI6+3X8qAO+07nGe9d3p3AA/SuE01cAHp7/n6da7vTscDoOO1AHb2HCjPTiuqtB8vPYY9q5SwyVUgdfbPWussjyCOvt1/KgDp7fnr3rcg44+vFYdsuAD09//ANXWtyHHI6D6UAbMXAGelX0HAz2BHt0rPiycEDrntnrWjEfmBHX26/lQBcTkc9zU6DAx+lV41wuenv8A/q61Og69ugoAnQYNTVCn3gcetTUAFFFFAH//0/7+KKKKAK2Of/rVE5w369u361KBnGOtQnqQP8DzQBEww35dOv58VnuTtFXpBk474x0qnJ09CTnmgDLnwR2/Kse4ODz9ef8AOa2JuVAHX3/+vWPN3A/wOCelAGDcjGf6dfz4rlbwn/P0rqLtcqR7EdK5m96nsSc80AcfqGDnp09K4jUjg8/Xn/Oa7e/54HXHf/69cRqHcD/A4PagDhL8YP8Ah16evFeG/FUn/hCNV/69Zf8A0GvcNRXOR7EdK8R+K3/Ik6t2JtpTz/u0AfKf7dn7W/xK/Y2/4IaH4h/B69k0rxNrd/NoFjqEORLZm+1C582aNhgrIsKSCNwQUchhyBVb9kz/AIN1f+CfXiv9lnwv4l/aY0TUvG3xC8VabbazrXiGbWL2Kf7ZfRiaRY1imSIojOVDSI7vjcxJPH1f4s/Yo0P/AIKC/wDBI1/2ZNUvRpV5qv2250u/YFltdQtNRnlgd1HJjLDZIBk7GbHzYr5D/Zu+Mv8AwX8/Zu+Dmlfso65+zdovjvVPCdmmlaX4yfxRaWthNZWo8qCSeEyebMwRVH3oZWUAsgbJIB9z/wDBXXwJ/wAE19a+GHhHxF/wUw8T3OkeDdAvZ2stIhvrmBNWuHjUbHgsgbu4MQUFfKK7C2WOCK/AH/gn/wCIf2V/hX/wXp8BeGP+CcFp4g8MfCz4jeD9Q/tTS9XgvrWK5nt4L2cSQLfkyyw7raFkc5Cv5iqQMiv09/4Kxfsk/tza9+2Z8Bv+Cg/7MfgnT/ijP8M7SS21HwfdXUMCJcSF2+0RfaHVST5uA6kyRyQxOFYA4+bfiH8Fv+CyniP/AIKP/B3/AIKl+NPgjot9LoVpd+HJPBGia/bfbNM0yaO5jEl5eTssEkrtfTSK1vuQCNUcIWyQD3b4Vf8AK0l8S/8AslMH89No+FX/ACtJfEv/ALJTB/PTa+mPh/8AseftF6J/wXt8cftp6p4e8r4Z6x8PodEtNY+12zeZfqbHMX2cSm5X/UyfM0QT5fvcjJ8P/wBjz9ovRP8Agvb44/bT1Tw95Xwz1j4fQ6Jaax9rtm8y/U2OYvs4lNyv+pk+Zogny/e5GQDyzxNoH/HTb4e1Hb/zRJ7rP/cQuIM/0r+hmvzx1LTf2jX/AOCl+n+IIPhF4Xm+G6+EWspPiO623/CRxXHmSS/2armf7T9lLkPsEBj3MW3ZzX6HUAfj3+3F8O/DWj/EbUPiv8Qf2w9d+B2k3MECposOp6XZWcZiQKWiW8ieRmkI3EKTljwK/nv/AGfPjZ4K8R/8E8f2/vhp4d17XfHr3mqeJNctvF97Zt9k1OwjS1tYppLtESE3NwcyCJVDFFLbQMV+jH/BQH4c/sh/Cj9ovxB8Hf2PP2bofiV+1F8UFl1v+09T0t7vSdIbUndW1ae4vw9rGI5AzKIFCeapDsrcN7r8ef2LvDX7AX/BAD4i/sweGrk6pc6V4Pv5NRvlXBvdTvW3zyKuM7TI2yJTlhGqgkkEkA434E/Bz493PwN8GXkP7e02j2r6Hprrp39meHsWsZgjIg3sBJ+7HyZY7uMnmv2l+Omsfsp+A7LQv2sP2hJ9A0638D+Y2keKNVMSrpv9sKltIYLlv9WLlWSNipw4IHIr4I/Z1/4JK/8ABNHxZ+zv4E8R+IPgl4Vur7UvDul3NzPJYL5kks1tG7ux4O5mJJPrU/8AwWi+BHi/4g/8EuvEvwI/Z/8ACl3r16s/hy207R9LgaeUW1jqVo5CRjJKxwxHPoo5oA/mB8I/FzwJ+wD+yZo/hJrf9kv41XGh3X2czrLLq/iG7GpXrv5kpeziDR2wmwzbvkhjGAcYr7i+DXj79n/T/wBu74P/ALT/AMSfiD+y14B8OfDVfES31v8ADfU5LW91Ea1p72kfmpJaRJL5L7Su6RdqvIRknB/R/wD4LtfA34B+CP8AgnxqOteHPBeg6ZdnxN4ZiE1pptvDLsfU7fzF3JGDhk3BhnBHBrzv/gsN8G/E/wAUvg34y/Yr/Zh/ZdutR1jxRDpS6Z400qx0220y3YXcE83mTbkniKJG6NhcHPXBNAH6Z/tR/EGx/wCCb37DN/rH7IPwufXhoYjsvD3hjw9bAW8d1qlxtjkaKIh/I+0Tb5BEC7FuMAl18M/4Jh/8E5ta+AHgvxT8dv2wZYPGXxw+Mga58a312qXEUNvOONLiGDH9njXCyKg8tyAozHHGB+wFvH5MCRf3VA49qloA/mI8f+C/ib/wQc+Jup/Er4ZaTe+Nf2PvGt40niPw5EpurrwZdXR2vcWysTvspM4ZW+XHyOQ2x5P6L/hD8Xvhh8evhvpPxc+DWt2niHw1rkC3Fjf2T74pEPb1VlOVdGAZGBVgCCK7nVdK0vXdLudD1y2ivLK8ieC4t50EkUsUgKujowKsrAkEEEEHBr84/wBj3/gmv8LP+Cf/AMRfib47/Zw1DVV8O+OBBeWnguS6I0nTb2ESGZrYMSF+0ExqCy5iVNoYoVVAD47/AOCsupw/Eb9uv9iz9mfRWFzqkvxDPjWe3T5mitPDkYmMjgchSDJtJ4OxvQ1sfGz97/wcI/BWP/nl8Lddf/vq4kWrH/BOT9kr9qDxv+1N42/4Kcf8FCNKt9C+IevQP4c8K+GIZVuY/DuhW8hyBIpZWlnIzuU5Ks7nHnFE8s/4KM/A3/gpZcf8FPvh1+0n+wP4P0fVzaeA73w5LrPiC4WPTNNmubqRpJJY1lSZmRHRowiSbiT8rBWFAH6QfH39vDR/hH+2X8I/2K/B2hyeK/E/xFe8u9UjtJlV9E0e1ici+mU8bHlG1QSu5UcLl9qt+W3/AATrvrn4if8ABeD9sf4geKNzajoFno2gWIkPMVjhAVQdAjm1jc46k56k1+g//BPf/gnEv7JuseIf2g/jt4om+Jnxz8eqP+Ek8W3SlQIcqVsrKM8Q2sexAAAu/YvyqqpGnwt8RbK3/wCCdX/BbuH9pfxh/oXwu/ad0i38NXmpsSLbTvFVkIxbLOcEItxHCFjYkAvLIxwsbGgDwn/gtR8QfFHir9saOD4Savd6XrP7PvwZ8ceM59S02Z4J9PvNegTT7YCaMho5tqiRQCG2HcODXifwn8Q6Z4j+FnhrxD4n1/8AbhvNTv8ASrO4u7jTLbUpbGWeWFGke3cWzB4WYkxtk5Qg5NfQvxhl/Za+GfiH9qf4Lar4K+NvibxN8br+5s9f8VWPhGbV44bYwCKG2sJ4wI3tbYO4hBAO0hSSEU18/wDhP40/GHwP4W03wV4W+Jv7U1ppmj2sNlZwL8LrQrFBboI40Ba0LEKqgcknjk0AfOv7C37Vnir9jL/gox8Sf2kfiNfeN7n4LeJtb07wD4k1L4jiYeI9FujZx3GlXeqLKqukYbzoQzKqxwuCeSoP7Zf8FWvhz8L/AI9ftffscfD74k6XZeKPC2veKde+02d0q3FpdQ/2WZEyOVdchWHbgGvhH4FfFL9m34ZeCfjH4W/aF+Hvx7+Mdv8AGue3ufEj6/8ADya3aU20PkLt+ziJFYKEKOoRo2RWUhhmvuf9rPQvBvhX9qf9gPw38NdHl0Tw7p2r6pFp2nNE0bWVmmjCOGKRTkoyKVQhiSD1JNAH5v698Svg9+yh/wAFBviv8Nv2f/D/AOzh8GZPhxLY6bp1/wCM473TtUv7bWNOiuJ9jW0wR0HmNG+EX5SBzya6b/gn38EP2LP2tNV/aC8A+PfhD8E9di+F2m6PLpWv/DyxmnsLt9WtbyaQ+ddSSMzQtCifKF2uHznjH2rN+wR+3jrf7ef7Qnxs+H2p+EfBvhfxpqegzaXceJvD9v4lfUUstMit5HhCXkUlssciMrJKgLnDDgZPFW2n3n/BKfxv8WviV+1Zqt3461z4/wCl2MVkvgLwZcQafaSeHbWa18t47eW5EbzC7iI3bQSrHJ5wAfa3/BFTR9M8Rf8ABIb4O+H9ahW4s77w5NbzxPyrxSzzqyn2IJBr40/4Nd/E+t6r/wAE4dY8H6lNJPZ+EvHes6TpzOcr9mMVrdHZ/smW4kP+8TXQ/A79oe+/4Js/8ED/AAF4x+KNhdaT40g8NHTNC0O4heO/utd1F5jY2ywFfM3sWWRl27ljVjjjFfaf/BHD9jHXP2E/2APBnwX8bxCHxVeCbW9fQNu2ahqDb2iJHG6GIRwsQSC0ZIJBzQB+olFFFABRRRQAUUUUAFFFFABRRRQAUUUUAFFFFABRRRQAUUUUAFFFFABRRRQAUUUUAFFFFABRRRQAUUUUAFFFFABRRRQAUUUUAFFFFABRRRQAUUUUAFFFFABRRRQAUUUUAFFFFABRRRQAUUUUAFFFFABRRRQAUUUUAFFFFABRRRQAUUUUAFFFFABRRRQAUUUUAFFFFABRRRQAUUUUAFFFFABRRRQAUUUUAFFFFABRRRQAUUUUAcH4p/5GDSP+2/8A6CK0x0FZnin/AJGDSP8Atv8A+gitMdBQA9PvUP8AeoT71D/eoA/Kv9vH/kMfCb/rvqn/AKOtK1NLOFXP15/zmsv9vAZ1n4Sgf899U/8AR1pWppP3AB/gcHtQB3+mjBH9OvfvxXc6cTgVwmnLnj6jp9a73T+3Ykg80AdrY4OOn5V1locYz6Z5/wA5rk7DkKB19/8A69dZY9AB/gcHtQB1FqMH/Dr+fFbUBOPwrDt1zx9R0reh6nsSc80Aa8WCR0/KtFDgjPpnn6fnWdDzgDr7/wD160YuwH+Bwe1AF2MYH4gcf48VKh4/CoEXKkd+nSrC9T2JOeaAJUHz/wCeanqBMbhU9ABRRRQB/9T+/iiiigCt0HPtUL989uOelTduOPwzUTH5+Ovt1oAgk5bnvVF+Fx+lXnXGD06c/wD6utUZMYx0HHagDNm4Xnpx/SsW4HXPbI9q2ZslQQOvtnrisec/MSOvt16+lAGBd8g571y95xkfXiuoulwpPT3/AP1da5e9xkjoPpQByOocDnpiuG1Idc9sj2ruNQyRkDqD2z1riNQPz5HX26/lQBweo8k57/8A1q8P+KvHgjVR/wBOsvH4GvcNQXHPT3//AFda8P8Aitj/AIQnVR0H2aTt/smgD7l/YH/5NP8AC/8Av6j/AOl1xX2FXx7+wP8A8moeF/8Af1H/ANLrivqG58XeFLLWo/Dd5qdpFqMo3JavMizMPUITuI/CgDoaKgurq1sbZ7y9kWGGMFndyFVQOpJPAFZOgeKPDXiu1a+8L6ja6lAjFGktZkmQMOoJQkAj0oA3aK/B/wCHn7Unx+1f/g4K8d/sm6l4muJfh3pfw7h1e10QpH5EV6xscyhgnmbj5r9WI+bpR8PP2pPj9q//AAcFeO/2TdS8TXEvw70v4dw6va6IUj8iK9Y2OZQwTzNx81+rEfN0oA/eCivx/wBX/b3+NFh/wWi0v/gnlDYaQfA974IbxI90YJv7TF2DKNol87yvL+QceST1+av2AoATAzuxzS1+ROpfC79tf9mz/gotZ/Ej4R3mp/Eb4MfGO7MfirRdRvA7+EtQgh/d39m0zjbaOkex4F4BG1QWMQH86H7V/wAcfhp8MIbPx3+yd8bPj/488OeEr++s/GOmXeveKbSaSK0fy5ZLHVI7c6fE1sVdpVnXYyjh1PBAP7paK/hS/Z3/AGmPBmo/HPTf2kfjR8Z/2gPh38I9FvLKbSNA1rUPEWtXGuSNKhgm1C8EP9nQ2szMiC3jaYygkGUZGf6af+CgX7aPxd/Z++K3wp/Zk+CPw1i+JHiD40r4htYIJPEB8Om3GjWsVxIVuRBMQzQySEMGjZGQbSSRgA/USiv4S/EXxU/bG8dfsK6l+w74x1/4a+INMXxLb6toeuaj8WtGudSstMtb1LuOwuJCwN4y7WjFwWjO1v8AV4ULX3pov7af/BQT42/t6+H/AI1+GtF8Da9Y6Lod7p2g/Dvw78XdN23F1MnmXV3dLAkjagywxsUiNuqQhBIPmQsQD+sCivjH/gnr+1pc/t0fsd+C/wBqy70BfDEni6K8lOmJdfbBbi1u5rYDzjHDv3CLcf3a4zjnGT8C+L/+Clv7Un7THxd8T/Bj/glf8P8ARvE+neCbuXTte+IfjO5mtPC9vfw/6y3t1t/9IuzH/G8TYHBwUZHYA/ciiv5cf2Sv+Ck//BaT4ufss2n7dMvwx8B/Ev4fXFzeiTRfDcl9pniNrXT53hnntluHnhmXMb7IxumYrgLk4r95f2aP2k/g7+3v+zHp3xs+DOo3a6B4ss5oGKSG11GwmwYpoXMbEw3MLZGVbggOjFSrEA+qaK/nl8OeFP2jf2W/gB8av2Xv28vF/i1vgp4DsrHWvDHxa0LUWtvEn9lC5ST+z5JIN9y1xAYvLeREO6EspKq8Yr8Mfi7+1TpPwV+Nb3em/ED9oz4ifDDxRFHB4ZfTvEfibQ9Zg1Not0dtP/aMItrtblgTG9qwkVAx8psAMAf30VwfxL+F3w7+Mvg27+HvxU0a01/RL0oZrO8jEkbNEwdGAP3XR1DIwwysAQQQDX8xn/BGX4p6NpX7Rtppvx8+NPxR8R/Ebx/Z6gNC8E+Jjr8uiaZZWyi5mX7Tq8Ma3l1FGihrhViQFiqIQwJ9o/bOs/j144/aa8Vax4f8KftP2ljBOlnAfAXiTTtO8PTpbIsYntIJm3qJcb2LcsxJ4zQB/SPRX4C/BL4X/wDBS7x38L9J8OfBb4teIPg7pGmm5gu4vizpdp4s8ZTTyTyTfaTcCdLdrYpIsUCFQUERBJFfOX/BOf8AZQ1v/goZ8Jh+0l+3r8a/Hfji+0Pxbqdnb6Nb6z/YWhLJol4Y4bkWuniBll3RiRWWVdh+760Af1D0V+fv/BSP9ufS/wBg/wDZuf4n6Tpw8SeL/EF7b6D4Q0NCSdT1m+yII/lwfLUAyOQQSq7QQzLXxd/wUp179qP4If8ABDXxr4k+LHjKVPivp+kadPqWuaBI2nGK/udTt2eO2eAoyRxiTyFZSC6Lkj5iKAP3Tor+PrS9K+FB0y3N9pn7djTmJPMKJrO0vgZI56Z6V4F+0f4y+GvhzwXe/Dj4S3f7Zun/ABX8TaXqR8F6Zr0+rRC/vrOHzCVg3iWaKHKvP5SsUQ5OBQB/aN4w+F3w7+IGs+H/ABD430a01W98K3x1PSJbqMSGzvDG8PnRZ4WQRyOobGRuOMGu8r8Uv27vHHxl+Fn/AAQs1fxzp+s634b8c6T4B0KWXUVuJ7TV7e+AtBMXl3LOk24sshJD5LBupr8MPj/rH7Yfwp+COg/E6yuPjT4XlfVvD0Uusap8XbHWbHy728t4pA9haXRuXWZXKgAfIWBf5Q1AH9vlFfyQ/GHWf2nviZ/wUZ/aJ8J+Grn4qeJND8Laxotvp9p4S+Jdr4RsdNW50uCV4xbX1xGH8xyXzCu0HO7k19Ef8Er9X/a1+JGi/tafCW18ZeJ9G8W6HfWOneFW8aa+ni+bQrqbT3kjLXKvNbSqZmV5BECuMKQStAH9K1Ffm3/wTL/bm1b9tP4QazY/FPSo/DXxU+HOrT+GvG+iRZ8u11O1Zl82HcSfInClkyThg6bm27j+klABRRRQAUUUUAFFFFABRRRQAUUUUAFFFFABRRRQAUUUUAFFFFABRRRQAUUUUAFFFFABRRRQAUUUUAFFFFABRRRQAUUUUAFFFFABRRRQAUUUUAFFFFABRRRQAUUUUAFFFFABRRRQAUUUUAFFFFABRRRQAUUUUAFFFFABRRRQAUUUUAFFFFABRRRQAUUUUAFFFFABRRRQAUUUUAFFFFABRRRQAUUUUAFFFFABRRRQBwfin/kYNI/7b/8AoIrTHQVmeKf+Rg0j/tv/AOgitMdBQA9PvUP96hPvUP8AeoA/Kv8Abxx/bPwlz/z31P8A9HWlaelj5Bntke1Zn7eP/IY+Ev8A131Ttn/ltaVqaUfukdfbr+VAHfadzjPeu707gAfpXCaauAD09/z9Otd3p2OB0HHagDt7DhRnpxXVWg+XnsMe1cpYZKqQOvtnrXWWR5BHX26/lQB09vz171uQccfXisO2XAB6e/8A+rrW5DjkdB9KANmLgDPSr6DgZ7Aj26VnxZOCB1z2z1rRiPzAjr7dfyoAuJyOe5qdBgY/Sq8a4XPT3/8A1danQde3QUAToMGpqhT7wOPWpqACiiigD//V/v4ooooArY5/+tUTnDfr27frUoGcY61CepA/wPNAETDDfl06/nxWe5O0VekGTjvjHSqcnT0JOeaAMufBHb8qx7g4PP15/wA5rYm5UAdff/69Y83cD/A4J6UAYNyMZ/p1/PiuVvCf8/Suou1ypHsR0rmb3qexJzzQBx+oYOenT0riNSODz9ef85rt7/ngdcd//r1xGodwP8Dg9qAOEvxg/wCHXp68V4b8VSf+EI1X/r1l/wDQa9w1Fc5HsR0rxH4rf8iTq3Ym2lPP+7QB8p/t2ftb/Er9jb/ghofiH8Hr2TSvE2t382gWOoQ5Etmb7ULnzZo2GCsiwpII3BBRyGHIFVv2TP8Ag3V/4J9eK/2WfC/iX9pjRNS8bfELxVpttrOteIZtYvYp/tl9GJpFjWKZIiiM5UNIju+NzEk8fV/iz9ijQ/8AgoL/AMEjX/Zk1S9GlXmq/bbnS79gWW11C01GeWB3UcmMsNkgGTsZsfNivkP9m74y/wDBfz9m74OaV+yjrn7N2i+O9U8J2aaVpfjJ/FFpa2E1lajyoJJ4TJ5szBFUfehlZQCyBskgH3P/AMFdfAn/AATX1r4YeEfEX/BTDxPc6R4N0C9nay0iG+uYE1a4eNRseCyBu7gxBQV8orsLZY4Ir8Af+Cf/AIh/ZX+Ff/BenwF4Y/4JwWniDwx8LPiN4P1D+1NL1eC+tYrme3gvZxJAt+TLLDutoWRzkK/mKpAyK/T3/grF+yT+3Nr37ZnwG/4KD/sx+CdP+KM/wztJLbUfB91dQwIlxIXb7RF9odVJPm4DqTJHJDE4VgDj5t+IfwW/4LKeI/8Ago/8Hf8AgqX40+COi30uhWl34ck8EaJr9t9s0zTJo7mMSXl5OywSSu19NIrW+5AI1RwhbJAPdvhV/wArSXxL/wCyUwfz02j4Vf8AK0l8S/8AslMH89Nr6Y+H/wCx5+0Xon/Be3xx+2nqnh7yvhnrHw+h0S01j7XbN5l+pscxfZxKblf9TJ8zRBPl+9yMnw//AGPP2i9E/wCC9vjj9tPVPD3lfDPWPh9DolprH2u2bzL9TY5i+ziU3K/6mT5miCfL97kZAPLPE2gf8dNvh7Udv/NEnus/9xC4gz/Sv6Ga/PHUtN/aNf8A4KX6f4gg+EXheb4br4Rayk+I7rbf8JHFceZJL/ZquZ/tP2UuQ+wQGPcxbdnNfodQB+H/AMRvi1/wUH+AP/BR/wCD/wALfH/xC0HxB8NfjB4l8SwWuk2uhra3thp+n2k13bQyXRkYyuqmNGdVQkoTzur+dPRfHGsaZ+wz8ffDVv40+M+nW8t/8QUOkeHvDKXng6USS3YK3OoGxlMcMmcXbfaF8pSxymK/Zr9pHT/+Cnf7V/7Vem/tY/BP4X2ugeHv2Zde1GHw34e8SzC11TxrPPmz1GSCUEw28BtgRaSMWR2Ibc+SqeEfB/49+G/hF+wr8R/2Hviz8IPjvp1z8Qm8Ti9v08BPKLT/AISbzTMsDw3M0U6w+awSTcofglV6UAfnJ+0B4/1vUv8Agm34T8N3Hjv456nbi18Gp/ZXiTwqll4QAjurLCDUBp8RMMeM2r/aD5jLGMtu5/tZ/aAvP2Xvhmuj/tQftJtoej/8IA8w0zxHrPlxnSm1YLayiKd+YvtAKxNgjeMA1/LH+018c7n49/B3wB+zVoHhj9pCP4beE9H0DStU8Oaf8MLaVtak0CWOWG5a7nmWe2dzDHuWNmT5R8p5B/Yz/gsF4T+Kf7VP/BJzWNJ+GPgfWrvxJ4p/4RjUE8Nm18zVLYf2hZ3U0M0MZcCSCNXEoBIUqeSKAP5mPCPxc8CfsA/smaP4Sa3/AGS/jVcaHdfZzOssur+Ibsaleu/mSl7OINHbCbDNu+SGMYBxivuL4NePv2f9P/bu+D/7T/xJ+IP7LXgHw58NV8RLfW/w31OS1vdRGtae9pH5qSWkSS+S+0rukXaryEZJwf0f/wCC7XwN+Afgj/gnxqOteHPBeg6ZdnxN4ZiE1pptvDLsfU7fzF3JGDhk3BhnBHBrzv8A4LDfBvxP8Uvg34y/Yr/Zh/ZdutR1jxRDpS6Z400qx0220y3YXcE83mTbkniKJG6NhcHPXBNAH6Lftv23hn9jD/glh8VYf2YdIg8LWPhnwfrB0W20ZBbx2Ml2khM8ITAUpJM0+R/ECa+I/FXj74Z/8E2/+DfXSdW+HPlQ3F94AsbTRzbgGS/1/wAS2y4mQDmRmnne4IGT5aHsK/dPx78O/CXxS+HGsfCnx/ZpqOh+INOn0vULV/uTWt1GYpUPQ4ZGIyORX4f/AAF/4IXj4d/E/wAC3fxw+NPiH4n/AAz+El42oeBfBOqWscNtptwpzA9zOsjG7+z/APLIGOILgAYj3RsAfo9/wTe/Z0vP2TP2EvhZ+z7q0Xk6l4f0C2Gox9k1C6zcXaj1AuJZAD3Fflx/wSDt/EXibRP2zrf9mjUrTRtG1H4reJU8H6g0H2ixttTkt0U3AiBCyW6SeQ4RSAyDGcGvQP2gNG/4LW/tk+KvEf7P3hLSvDf7PPw0kvLrTrjxempf23ruo6arNH5thHEIhB58fzYlSCVAflkUjn9BvhP8E/hn/wAE0v2JX+HfwC8M6n4h0r4faPd30Wm2ISbVtXuI1eeUjOxZLm4fJAGOSFRcBVoA/Bf9p341/tn6j8Af24f2Uf2t/GGj+Mz8OvAmhXthe6TpS6UjNrKTSybk3yMdoRV5YjjIxnFfAH7S/wAR9fv/AAd+ztFN8Q/2g70WXjvw3NGms+D0tYbNo7S4Al0hhpsf2q9TO22hJlEkZc7GxkfWfxp/Z9/4KjeLvDXxb/ae+MXw0a70X9p7Q7bRfEPhTwmi33ibwhY6ZhdNlW3mlgS/maFnW4hR42DuCdm0oPpf41/tnfCX4x+Efgp4a8W/Cj496NcfBnxRofimJB8PpxJfXOi28kCxSKZmWNJBKxbazEdAT1oA8h+APjDVfFv/AAWC/Z4OqeLfiv4p+z6P402n4oeH10FoN1jFn7EFs7Tzg2P3339mE6bufeP+CmHwQ8C+M/2uNW8QeIfgn4V8bXU2n2A/tTVvi1d+ELqREj2hTpsMqqioQVEm0b8Z5rzv4P8Ax88Y/Gv/AIKgeCPj/wCNfCnx98SWmn32qab4WsdY+Htpoeh+GrbxGUina61BJlmlggiUHdKjPhAdxOQ2j+1Rp/wwvv8Agsx8QZPiZ+ztfftCWqfDzw+kVlZaXYal/Z032i4JlYahLEi71IXKEt6jFAHD6p8JP+CKvwt+GHw5n/b3+Eljo3irxJbatBounaHq2t+O4vsWnXkkkgW/s2lMhD3LOwYbk3FM4TA+BP2A/B3/AAQy0j4Px+F/22/h7fJ401nxbqNnYS3uj6/EjWd5eFNOjE0SrCuYioALBh/Fzmu4/ZH8U/Ez9nrW/wBi3xl4X+FPiPxJqOixfFpZPC+mW8cGoQx3uoSCMFZ2iiQJGwbBcAqPlzxX3Z/wVC/bB+PPx/8Agn4N+H/ij9nTx74Csz8QPC10+r6wtnJax+Reo21hbXEsgLDoduPUigDt/wDgoroulL/wWA/YV/ZwtLc2vhDwy1/qVhalmaFZ7CNfs4yxLM0P2WPaWJI3deTX1n/wXj1KHxl+yT4Z/ZG01vM1r43+OfDfha0tk+aRolvorueXb18uJYB5jdF3DPWuG/4LhfCPxr4UPwe/4KU/C7TJtY1P9nXxGura1Y23+uufDl00f2/YOcmMRrnssbyOeFNL+0f8aP2Rx+158HP+CgNxpHxG+K8S+DbqXwhD4P0OXXNDsxqD4e9KwgPDePEzROr5+ULkK0YoA/KT4I/E/wATfEvxD8UNQ+Lvi79rDWb7TPiF4l0y0f4a/wBoX+gwWNrdssECSJFKqyRjIZA2FXaAAK+av2ivFvxu8G/tpfCT4q/syP8AHTxDq/wx0/WfGjaN8aEuoZ7610/yRfwaYs0SE+bZNMsxRWJ+VR8xAr618DeMdY+D9/4nj+Bni39p3wdpHijxDqXiSbTLL4Ywywx3eqSmWXa09vK5HQct0HQV6d8HfjVpngr9qzwt+1j8Z5f2kfibq/hDTdR0zT7XV/hsLaGOHU1Cy4NpFEc5VTyD09KAP0I/4Kc/tHfCP9rP/ghj8Tvj98D9Vj1fw74g8OQzwSoRvif7VAHhlXJKTRNlJEPKsCK/O/8Abm+FP7H37HXxB+AHgn4Y/Cr4I+Fj490fUdUvPEfxBs5re0tbrSIrOWLbNayxlXlaZgNytubb05z9F/tZ6V+zcf8Aghp+0B4m/ZZ+Gus/DPSvE1zdX95o+s6XLpV7JqU95arJL9lkZmSNsKsSrhFVQFVQMV7r+15+yL+1T+0Z8f8A9mH4ofs7f2Ppmm+DvC+vRaprev2EGrWNo+p2tksCPYSXEEsrS+U4Vo8iM8tjuAfmz4A8Y/A39rH/AIKTfDr4b/Hzwv8As4/GKf4svrT65q/gmK81HVLVtF0x54Gne5mKL5piRFJRsqjjg4I/TX/gk38Lvh38Ff2wv2wPhf8ACbRrTw94d0jxdoMdlp1jGIreBH0tXIRBwAWYn6mvNvHX7K/x1/Zb+Nvw8/4KD/tW+NNE8TeHvg7JqinSfAPgWSz1C4/4SK2OnbmWC7meRYnkjc4RtqhuOSR3X/BML4qaLrvxW/a1/bQ8Q6fqnhL4eeIvEen6nZal4ksZdK32Wl6YqXM5S4VWEcZUkt0A98gAHi/7IF9c+CP+Dkb9qD4a+HN0WjeIvBWj69ewxn919ut4tMRWYf32+1TMP99q/pLr+fX/AII5eA9f/aB/aI+O3/BWvxbYTWFj8Y9Si0rwZHcgpO3hvScQR3DIQNouBDDtB5HlEjKsrH+gqgAooooAKKKKACiiigAooooAKKKKACiiigAooooAKKKKACiiigAooooAKKKKACiiigAooooAKKKKACiiigAooooAKKKKACiiigAooooAKKKKACiiigAooooAKKKKACiiigAooooAKKKKACiiigAooooAKKKKACiiigAooooAKKKKACiiigAooooAKKKKACiiigAooooAKKKKACiiigAooooAKKKKACiiigAooooA4PxT/wAjBpH/AG3/APQRWmOgrM8U/wDIwaR/23/9BFaY6CgB6feof71Cfeof71AH5V/t4/8AIY+E3/XfVP8A0daVqaWcKufrz/nNZf7eAzrPwlA/576p/wCjrStTSfuAD/A4PagDv9NGCP6de/fiu504nArhNOXPH1HT613un9uxJB5oA7WxwcdPyrrLQ4xn0zz/AJzXJ2HIUDr7/wD166yx6AD/AAOD2oA6i1GD/h1/PitqAnH4Vh2654+o6VvQ9T2JOeaANeLBI6flWihwRn0zz9PzrOh5wB19/wD69aMXYD/A4PagC7GMD8QOP8eKlQ8fhUCLlSO/TpVhep7EnPNAEqD5/wDPNT1AmNwqegAooooA/9b+/iiiigCt0HPtUL989uOelTduOPwzUTH5+Ovt1oAgk5bnvVF+Fx+lXnXGD06c/wD6utUZMYx0HHagDNm4Xnpx/SsW4HXPbI9q2ZslQQOvtnrisec/MSOvt16+lAGBd8g571y95xkfXiuoulwpPT3/AP1da5e9xkjoPpQByOocDnpiuG1Idc9sj2ruNQyRkDqD2z1riNQPz5HX26/lQBweo8k57/8A1q8P+KvHgjVR/wBOsvH4GvcNQXHPT3//AFda8P8Aitj/AIQnVR0H2aTt/smgD7l/YH/5NP8AC/8Av6j/AOl1xX2FXx7+wP8A8moeF/8Af1H/ANLrivsKgAooooAKKKKACiiigAooooAKKKKACiiigAooooAKKKKACiiigAooooAKKKKAI5oYbmF7e4QSRyAqysMgg8EEHqDXF/Dj4aeAfhB4Ms/h38L9IttB0LTzKbWws0EVvAJpGldY0HCKXdiFUBVzgAAAV3FFABRRRQAUUUUAFch4/wDAPg34qeCdV+G/xE06HV9C1y2ks7+xuF3Q3FvKNrxuO6sDgjuK6+igClpmmaboum2+j6Pbx2lpaRpDBBCgjjijjAVURVACqoAAAGABgVdoooAKKKKACiiigAooooAKKKKACiiigAooooAKKKKACiiigAooooAKKKKACiiigAooooAKKKKACiiigAooooAKKKKACiiigAooooAKKKKACiiigAooooAKKKKACiiigAooooAKKKKACiiigAooooAKKKKACiiigAooooAKKKKACiiigAooooAKKKKACiiigAooooAKKKKACiiigAooooAKKKKACiiigAooooAKKKKAOD8U/wDIwaR/23/9BFaY6CszxT/yMGkf9t//AEEVpjoKAHp96h/vUJ96h/vUAflX+3jj+2fhLn/nvqf/AKOtK09LHyDPbI9qzP28f+Qx8Jf+u+qds/8ALa0rU0o/dI6+3X8qAO+07nGe9d3p3AA/SuE01cAHp7/n6da7vTscDoOO1AHb2HCjPTiuqtB8vPYY9q5SwyVUgdfbPWussjyCOvt1/KgDp7fnr3rcg44+vFYdsuAD09//ANXWtyHHI6D6UAbMXAGelX0HAz2BHt0rPiycEDrntnrWjEfmBHX26/lQBcTkc9zU6DAx+lV41wuenv8A/q61Og69ugoAnQYNTVCn3gcetTUAFFFFAH//1/7+KKKKAK2Of/rVE5w369u361KBnGOtQnqQP8DzQBEww35dOv58VnuTtFXpBk474x0qnJ09CTnmgDLnwR2/Kse4ODz9ef8AOa2JuVAHX3/+vWPN3A/wOCelAGDcjGf6dfz4rlbwn/P0rqLtcqR7EdK5m96nsSc80AcfqGDnp09K4jUjg8/Xn/Oa7e/54HXHf/69cRqHcD/A4PagDhL8YP8Ah16evFeG/FUn/hCNV/69Zf8A0GvcNRXOR7EdK8R+K3/Ik6t2JtpTz/u0Afcn7BH/ACah4X/39R/9LrivsKvj39gf/k0/wv8A7+o/+l1xX2FQAUUUUAFFFFABRRRQAUUUUAFFFFABRRRQAUUUUAFFFFABRRRQAUUUUAFFFFABRRRQAUUUUAFFFFABRRRQAUUUUAFFFFABRRRQAUUUUAFFFFABRRRQAUUUUAFFFFABRRRQAUUUUAFFFFABRRRQAUUUUAFFFFABRRRQAUUUUAFFFFABRRRQAUUUUAFFFFABRRRQAUUUUAFFFFABRRRQAUUUUAFFFFABRRRQAUUUUAFFFFABRRRQAUUUUAFFFFABRRRQAUUUUAFFFFABRRRQAUUUUAFFFFABRRRQAUUUUAFFFFABRRRQAUUUUAFFFFAHB+Kf+Rg0j/tv/wCgitMdBWZ4p/5GDSP+2/8A6CK0x0FAD0+9Q/3qE+9Q/wB6gD8q/wBvH/kMfCb/AK76p/6OtK1NLOFXP15/zmsv9vAZ1n4Sgf8APfVP/R1pWppP3AB/gcHtQB3+mjBH9OvfvxXc6cTgVwmnLnj6jp9a73T+3Ykg80AdrY4OOn5V1locYz6Z5/zmuTsOQoHX3/8Ar11lj0AH+Bwe1AHUWowf8Ov58VtQE4/CsO3XPH1HSt6HqexJzzQBrxYJHT8q0UOCM+mefp+dZ0POAOvv/wDXrRi7Af4HB7UAXYxgfiBx/jxUqHj8KgRcqR36dKsL1PYk55oAlQfP/nmp6gTG4VPQAUUUUAf/0P7+KKKKAK3Qc+1Qv3z2456VN244/DNRMfn46+3WgCCTlue9UX4XH6VedcYPTpz/APq61RkxjHQcdqAM2bheenH9Kxbgdc9sj2rZmyVBA6+2euKx5z8xI6+3Xr6UAYF3yDnvXL3nGR9eK6i6XCk9Pf8A/V1rl73GSOg+lAHI6hwOemK4bUh1z2yPau41DJGQOoPbPWuI1A/Pkdfbr+VAHB6jyTnv/wDWrw/4q8eCNVH/AE6y8fga9w1Bcc9Pf/8AV1rw/wCK2P8AhCdVHQfZpO3+yaAPuX9gf/k0/wAL/wC/qP8A6XXFfYVfHv7A/wDyah4X/wB/Uf8A0uuK+wqACiiigAooooAKKKKACiiigAooooAKKKKACiiigAooooAKKKKACiiigAooooAKKKKACiiigAooooAKKKKACiiigAooooAKKKKACiiigAooooAKKKKACiiigAooooAKKKKACiiigAooooAKKKKACiiigAooooAKKKKACiiigAooooAKKKKACiiigAooooAKKKKACiiigAooooAKKKKACiiigAooooAKKKKACiiigAooooAKKKKACiiigAooooAKKKKACiiigAooooAKKKKACiiigAooooAKKKKACiiigAooooAKKKKACiiigAooooA4PxT/AMjBpH/bf/0EVpjoKzPFP/IwaR/23/8AQRWmOgoAen3qH+9Qn3qH+9QB+Vf7eOP7Z+Euf+e+p/8Ao60rT0sfIM9sj2rM/bx/5DHwl/676p2z/wAtrStTSj90jr7dfyoA77TucZ713encAD9K4TTVwAenv+fp1ru9OxwOg47UAdvYcKM9OK6q0Hy89hj2rlLDJVSB19s9a6yyPII6+3X8qAOnt+evetyDjj68Vh2y4APT3/8A1da3IccjoPpQBsxcAZ6VfQcDPYEe3Ss+LJwQOue2etaMR+YEdfbr+VAFxORz3NToMDH6VXjXC56e/wD+rrU6Dr26CgCdBg1NUKfeBx61NQAUUUUAf//R/v4ooooArY5/+tUTnDfr27frUoGcY61CepA/wPNAETDDfl06/nxWe5O0VekGTjvjHSqcnT0JOeaAMufBHb8qx7g4PP15/wA5rYm5UAdff/69Y83cD/A4J6UAYNyMZ/p1/PiuVvCf8/Suou1ypHsR0rmb3qexJzzQBx+oYOenT0riNSODz9ef85rt7/ngdcd//r1xGodwP8Dg9qAOEvxg/wCHXp68V4b8VSf+EI1X/r1l/wDQa9w1Fc5HsR0rxH4rf8iTq3Ym2lPP+7QB9yfsEf8AJqHhf/f1H/0uuK+wq+Pf2B/+TT/C/wDv6j/6XXFfYVABRRRQAUUUUAFFFFABRRRQAUUUUAFFFFABRRRQAUUUUAFFFFABRRRQAUUUUAFFFFABRRRQAUUUUAFFFFABRRRQAUUUUAFFFFABRRRQAUUUUAFFFFABRRRQAUUUUAFFFFABRRRQAUUUUAFFFFABRRRQAUUUUAFFFFABRRRQAUUUUAFFFFABRRRQAUUUUAFFFFABRRRQAUUUUAFFFFABRRRQAUUUUAFFFFABRRRQAUUUUAFFFFABRRRQAUUUUAFFFFABRRRQAUUUUAFFFFABRRRQAUUUUAFFFFABRRRQAUUUUAFFFFABRRRQAUUUUAcH4p/5GDSP+2//AKCK0x0FZnin/kYNI/7b/wDoIrTHQUAPT71D/eoT71D/AHqAPyr/AG8f+Qx8Jv8Arvqn/o60rU0s4Vc/Xn/Oay/28BnWfhKB/wA99U/9HWlamk/cAH+Bwe1AHf6aMEf069+/FdzpxOBXCacuePqOn1rvdP7diSDzQB2tjg46flXWWhxjPpnn/Oa5Ow5Cgdff/wCvXWWPQAf4HB7UAdRajB/w6/nxW1ATj8Kw7dc8fUdK3oep7EnPNAGvFgkdPyrRQ4Iz6Z5+n51nQ84A6+//ANetGLsB/gcHtQBdjGB+IHH+PFSoePwqBFypHfp0qwvU9iTnmgCVB8/+eanqBMbhU9ABRRRQB//S/v4ooooArdBz7VC/fPbjnpU3bjj8M1Ex+fjr7daAIJOW571RfhcfpV51xg9OnP8A+rrVGTGMdBx2oAzZuF56cf0rFuB1z2yPatmbJUEDr7Z64rHnPzEjr7devpQBgXfIOe9cvecZH14rqLpcKT09/wD9XWuXvcZI6D6UAcjqHA56YrhtSHXPbI9q7jUMkZA6g9s9a4jUD8+R19uv5UAcHqPJOe//ANavD/irx4I1Uf8ATrLx+Br3DUFxz09//wBXWvD/AIrY/wCEJ1UdB9mk7f7JoA+5f2B/+TT/AAv/AL+o/wDpdcV9hV8e/sD/APJqHhf/AH9R/wDS64r7CoAKKKKACiiigAooooAKKKKACiiigAooooAKKKKACiiigAooooAKKKKACiiigAooooAKKKKACiiigAooooAKKKKACiiigAooooAKKKKACiiigAooooAKKKKACiiigAooooAKKKKACiiigAooooAKKKKACiiigAooooAKKKKACiiigAooooAKKKKACiiigAooooAKKKKACiiigAooooAKKKKACiiigAooooAKKKKACiiigAooooAKKKKACiiigAooooAKKKKACiiigAooooAKKKKACiiigAooooAKKKKACiiigAooooAKKKKACiiigDg/FP8AyMGkf9t//QRWmOgrM8U/8jBpH/bf/wBBFaY6CgB6feof71Cfeof71AH5V/t44/tn4S5/576n/wCjrStPSx8gz2yPasz9vH/kMfCX/rvqnbP/AC2tK1NKP3SOvt1/KgDvtO5xnvXd6dwAP0rhNNXAB6e/5+nWu707HA6DjtQB29hwoz04rqrQfLz2GPauUsMlVIHX2z1rrLI8gjr7dfyoA6e356963IOOPrxWHbLgA9Pf/wDV1rchxyOg+lAGzFwBnpV9BwM9gR7dKz4snBA657Z61oxH5gR19uv5UAXE5HPc1OgwMfpVeNcLnp7/AP6utToOvboKAJ0GDU1Qp94HHrU1ABRRRQB//9P+/iiiigCtjn/61ROcN+vbt+tSgZxjrUJ6kD/A80ARMMN+XTr+fFZ7k7RV6QZOO+MdKpydPQk55oAy58EdvyrHuDg8/Xn/ADmtiblQB19//r1jzdwP8DgnpQBg3Ixn+nX8+K5W8J/z9K6i7XKkexHSuZvep7EnPNAHH6hg56dPSuI1I4PP15/zmu3v+eB1x3/+vXEah3A/wOD2oA4S/GD/AIdenrxXhvxVJ/4QjVf+vWX/ANBr3DUVzkexHSvEfit/yJOrdibaU8/7tAH3J+wR/wAmoeF/9/Uf/S64r7Cr49/YH/5NP8L/AO/qP/pdcV9hUAFFFFABRRRQAUUUUAFFFFABRRRQAUUUUAFFFFABRRRQAUUUUAFFFFABRRRQAUUUUAFFFFABRRRQAUUUUAFFFFABRRRQAUUUUAFFFFABRRRQAUUUUAFFFFABRRRQAUUUUAFFFFABRRRQAUUUUAFFFFABRRRQAUUUUAFFFFABRRRQAUUUUAFFFFABRRRQAUUUUAFFFFABRRRQAUUUUAFFFFABRRRQAUUUUAFFFFABRRRQAUUUUAFFFFABRRRQAUUUUAFFFFABRRRQAUUUUAFFFFABRRRQAUUUUAFFFFABRRRQAUUUUAFFFFABRRRQBwfin/kYNI/7b/8AoIrTHQVmeKf+Rg0j/tv/AOgitMdBQA9PvUP96hPvUP8AeoA/Kv8Abx/5DHwm/wCu+qf+jrStTSzhVz9ef85rL/bwGdZ+EoH/AD31T/0daVqaT9wAf4HB7UAd/powR/Tr378V3OnE4FcJpy54+o6fWu90/t2JIPNAHa2ODjp+VdZaHGM+mef85rk7DkKB19//AK9dZY9AB/gcHtQB1FqMH/Dr+fFbUBOPwrDt1zx9R0reh6nsSc80Aa8WCR0/KtFDgjPpnn6fnWdDzgDr7/8A160YuwH+Bwe1AF2MYH4gcf48VKh4/CoEXKkd+nSrC9T2JOeaAJUHz/55qeoExuFT0AFFFFAH/9T+/iiiigCt0HPtUL989uOelTduOPwzUTH5+Ovt1oAgk5bnvVF+Fx+lXnXGD06c/wD6utUZMYx0HHagDNm4Xnpx/SsW4HXPbI9q2ZslQQOvtnrisec/MSOvt16+lAGBd8g571y95xkfXiuoulwpPT3/AP1da5e9xkjoPpQByOocDnpiuG1Idc9sj2ruNQyRkDqD2z1riNQPz5HX26/lQBweo8k57/8A1q8P+KvHgjVR/wBOsvH4GvcNQXHPT3//AFda8P8Aitj/AIQnVR0H2aTt/smgD7l/YH/5NP8AC/8Av6j/AOl1xX2FXx7+wP8A8moeF/8Af1H/ANLrivsKgAooooAKKKKACiiigAooooAKKKKACiiigAooooAKKKKACiiigAooooAKKKKACiiigAooooAKKKKACiiigAooooAKKKKACiiigAooooAKKKKACiiigAooooAKKKKACiiigAooooAKKKKACiiigAooooAKKKKACiiigAooooAKKKKACiiigAooooAKKKKACiiigAooooAKKKKACiiigAooooAKKKKACiiigAooooAKKKKACiiigAooooAKKKKACiiigAooooAKKKKACiiigAooooAKKKKACiiigAooooAKKKKACiiigAooooAKKKKAOD8U/wDIwaR/23/9BFaY6CszxT/yMGkf9t//AEEVpjoKAHp96h/vUJ96h/vUAflX+3jj+2fhLn/nvqf/AKOtK09LHyDPbI9qzP28f+Qx8Jf+u+qds/8ALa0rU0o/dI6+3X8qAO+07nGe9d3p3AA/SuE01cAHp7/n6da7vTscDoOO1AHb2HCjPTiuqtB8vPYY9q5SwyVUgdfbPWussjyCOvt1/KgDp7fnr3rcg44+vFYdsuAD09//ANXWtyHHI6D6UAbMXAGelX0HAz2BHt0rPiycEDrntnrWjEfmBHX26/lQBcTkc9zU6DAx+lV41wuenv8A/q61Og69ugoAnQYNTVCn3gcetTUAFFFFAH//1f7+KKKKAK2Of/rVE5w369u361KBnGOtQnqQP8DzQBEww35dOv58VnuTtFXpBk474x0qnJ09CTnmgDLnwR2/Kse4ODz9ef8AOa2JuVAHX3/+vWPN3A/wOCelAGDcjGf6dfz4rlbwn/P0rqLtcqR7EdK5m96nsSc80AcfqGDnp09K4jUjg8/Xn/Oa7e/54HXHf/69cRqHcD/A4PagDhL8YP8Ah16evFeG/FUn/hCNV/69Zf8A0GvcNRXOR7EdK8R+K3/Ik6t2JtpTz/u0Afcn7BH/ACah4X/39R/9LrivsKvj39gf/k0/wv8A7+o/+l1xX2FQAUUUUAFFFFABRRRQAUUUUAFFFFABRRRQAUUUUAFFFFABRRRQAUUUUAFFFFABRRRQAUUUUAFFFFABRRRQAUUUUAFFFFABRRRQAUUUUAFFFFABRRRQAUUUUAFFFFABRRRQAUUUUAFFFFABRRRQAUUUUAFFFFABRRRQAUUUUAFFFFABRRRQAUUUUAFFFFABRRRQAUUUUAFFFFABRRRQAUUUUAFFFFABRRRQAUUUUAFFFFABRRRQAUUUUAFFFFABRRRQAUUUUAFFFFABRRRQAUUUUAFFFFABRRRQAUUUUAFFFFABRRRQAUUUUAFFFFAHB+Kf+Rg0j/tv/wCgitMdBWZ4p/5GDSP+2/8A6CK0x0FAD0+9Q/3qE+9Q/wB6gD8q/wBvH/kMfCb/AK76p/6OtK1NLOFXP15/zmsv9vAZ1n4Sgf8APfVP/R1pWppP3AB/gcHtQB3+mjBH9OvfvxXc6cTgVwmnLnj6jp9a73T+3Ykg80AdrY4OOn5V1locYz6Z5/zmuTsOQoHX3/8Ar11lj0AH+Bwe1AHUWowf8Ov58VtQE4/CsO3XPH1HSt6HqexJzzQBrxYJHT8q0UOCM+mefp+dZ0POAOvv/wDXrRi7Af4HB7UAXYxgfiBx/jxUqHj8KgRcqR36dKsL1PYk55oAlQfP/nmp6gTG4VPQAUUUUAf/1v7+KKKKAK3Qc+1Qv3z2456VN244/DNRMfn46+3WgCCTlue9UX4XH6VedcYPTpz/APq61RkxjHQcdqAM2bheenH9Kxbgdc9sj2rZmyVBA6+2euKx5z8xI6+3Xr6UAYF3yDnvXL3nGR9eK6i6XCk9Pf8A/V1rl73GSOg+lAHI6hwOemK4bUh1z2yPau41DJGQOoPbPWuI1A/Pkdfbr+VAHB6jyTnv/wDWrw/4q8eCNVH/AE6y8fga9w1Bcc9Pf/8AV1rw/wCK2P8AhCdVHQfZpO3+yaAPsf8AYi1XUNM/ZP8ACX2C0+1b31Pd+8CbcX0+OoOc5r6k/wCEp8Qf9Aj/AMjr/wDE18y/sNAH9lDwpn+/qX/pdPX1bhaAMz/hKfEH/QI/8jr/APE0f8JT4g/6BH/kdf8A4mtPC0YWgDM/4SnxB/0CP/I6/wDxNH/CU+IP+gR/5HX/AOJrTwtGFoAzP+Ep8Qf9Aj/yOv8A8TR/wlPiD/oEf+R1/wDia08LRhaAMz/hKfEH/QI/8jr/APE0f8JT4g/6BH/kdf8A4mtPC0YWgDM/4SnxB/0CP/I6/wDxNH/CU+IP+gR/5HX/AOJrTwtGFoAzP+Ep8Qf9Aj/yOv8A8TR/wlPiD/oEf+R1/wDia08LRhaAMz/hKfEH/QI/8jr/APE0f8JT4g/6BH/kdf8A4mtPC0YWgDM/4SnxB/0CP/I6/wDxNH/CU+IP+gR/5HX/AOJrTwtGFoAzP+Ep8Qf9Aj/yOv8A8TR/wlPiD/oEf+R1/wDia08LRhaAMz/hKfEH/QI/8jr/APE0f8JT4g/6BH/kdf8A4mtPC0YWgDM/4SnxB/0CP/I6/wDxNH/CU+IP+gR/5HX/AOJrTwtGFoAzP+Ep8Qf9Aj/yOv8A8TR/wlPiD/oEf+R1/wDia08LRhaAMz/hKfEH/QI/8jr/APE0f8JT4g/6BH/kdf8A4mtPC0YWgDM/4SnxB/0CP/I6/wDxNH/CU+IP+gR/5HX/AOJrTwtGFoAzP+Ep8Qf9Aj/yOv8A8TR/wlPiD/oEf+R1/wDia08LRhaAMz/hKfEH/QI/8jr/APE0f8JT4g/6BH/kdf8A4mtPC0YWgDM/4SnxB/0CP/I6/wDxNH/CU+IP+gR/5HX/AOJrTwtGFoAzP+Ep8Qf9Aj/yOv8A8TR/wlPiD/oEf+R1/wDia08LRhaAMz/hKfEH/QI/8jr/APE0f8JT4g/6BH/kdf8A4mtPC0YWgDM/4SnxB/0CP/I6/wDxNH/CU+IP+gR/5HX/AOJrTwtGFoAzP+Ep8Qf9Aj/yOv8A8TR/wlPiD/oEf+R1/wDia08LRhaAMz/hKfEH/QI/8jr/APE0f8JT4g/6BH/kdf8A4mtPC0YWgDM/4SnxB/0CP/I6/wDxNH/CU+IP+gR/5HX/AOJrTwtGFoAzP+Ep8Qf9Aj/yOv8A8TR/wlPiD/oEf+R1/wDia08LRhaAMz/hKfEH/QI/8jr/APE0f8JT4g/6BH/kdf8A4mtPC0YWgDM/4SnxB/0CP/I6/wDxNH/CU+IP+gR/5HX/AOJrTwtGFoAzP+Ep8Qf9Aj/yOv8A8TR/wlPiD/oEf+R1/wDia08LRhaAMz/hKfEH/QI/8jr/APE0f8JT4g/6BH/kdf8A4mtPC0YWgDM/4SnxB/0CP/I6/wDxNH/CU+IP+gR/5HX/AOJrTwtGFoAzP+Ep8Qf9Aj/yOv8A8TR/wlPiD/oEf+R1/wDia08LRhaAMz/hKfEH/QI/8jr/APE0f8JT4g/6BH/kdf8A4mtPC0YWgDM/4SnxB/0CP/I6/wDxNH/CU+IP+gR/5HX/AOJrTwtGFoAzP+Ep8Qf9Aj/yOv8A8TR/wlPiD/oEf+R1/wDia08LRhaAMz/hKfEH/QI/8jr/APE0f8JT4g/6BH/kdf8A4mtPC0YWgDM/4SnxB/0CP/I6/wDxNH/CU+IP+gR/5HX/AOJrTwtGFoAzP+Ep8Qf9Aj/yOv8A8TR/wlPiD/oEf+R1/wDia08LRhaAMz/hKfEH/QI/8jr/APE0f8JT4g/6BH/kdf8A4mtPC0YWgDM/4SnxB/0CP/I6/wDxNH/CU+IP+gR/5HX/AOJrTwtGFoAzP+Ep8Qf9Aj/yOv8A8TR/wlPiD/oEf+R1/wDia08LRhaAMz/hKfEH/QI/8jr/APE0f8JT4g/6BH/kdf8A4mtPC0YWgDM/4SnxB/0CP/I6/wDxNH/CU+IP+gR/5HX/AOJrTwtGFoAzP+Ep8Qf9Aj/yOv8A8TR/wlPiD/oEf+R1/wDia08LRhaAMz/hKfEH/QI/8jr/APE0f8JT4g/6BH/kdf8A4mtPC0YWgDM/4SnxB/0CP/I6/wDxNH/CU+IP+gR/5HX/AOJrTwtGFoAzP+Ep8Qf9Aj/yOv8A8TR/wlPiD/oEf+R1/wDia08LRhaAMz/hKfEH/QI/8jr/APE0f8JT4g/6BH/kdf8A4mtPC0YWgDM/4SnxB/0CP/I6/wDxNH/CU+IP+gR/5HX/AOJrTwtGFoAzP+Ep8Qf9Aj/yOv8A8TR/wlPiD/oEf+R1/wDia08LRhaAMz/hKfEH/QI/8jr/APE0f8JT4g/6BH/kdf8A4mtPC0YWgDM/4SnxB/0CP/I6/wDxNH/CU+IP+gR/5HX/AOJrTwtGFoAzP+Ep8Qf9Aj/yOv8A8TR/wlPiD/oEf+R1/wDia08LRhaAMz/hKfEH/QI/8jr/APE0f8JT4g/6BH/kdf8A4mtPC0YWgDM/4SnxB/0CP/I6/wDxNH/CU+IP+gR/5HX/AOJrTwtGFoAzP+Ep8Qf9Aj/yOv8A8TR/wlPiD/oEf+R1/wDia08LRhaAMz/hKfEH/QI/8jr/APE0f8JT4g/6BH/kdf8A4mtPC0YWgDM/4SnxB/0CP/I6/wDxNH/CU+IP+gR/5HX/AOJrTwtGFoAzP+Ep8Qf9Aj/yOv8A8TR/wlPiD/oEf+R1/wDia08LRhaAMz/hKfEH/QI/8jr/APE0f8JT4g/6BH/kdf8A4mtPC0YWgDM/4SnxB/0CP/I6/wDxNH/CU+IP+gR/5HX/AOJrTwtGFoAzIINQ8S6hBf38P2L7Du2ruEnmeYMHkYxjHvnNdQNNwMb/ANP/AK9GmADfj2/rWpQBmDTsHO/9KDp2Tnf+ladFAH5L/wDBQjTxpXin4U2Bff5c+pfNjHWWzPTJ9fWl0sfIM9sj2rR/4KP/API9fC7/AK76j2z/AB2dZ+lH7pHX26/lQB32nc4z3ru9O4AH6VwmmrgA9Pf8/TrXd6djgdBx2oA7ew4UZ6cV1VoPl57DHtXKWGSqkDr7Z611lkeQR19uv5UAdPb89e9bkHHH14rDtlwAenv/APq61uQ45HQfSgDZi4Az0q+g4GewI9ulZ8WTggdc9s9a0Yj8wI6+3X8qALicjnuanQYGP0qvGuFz09//ANXWp0HXt0FAE6DBqaoU+8Dj1qagAooooA//1/7+KKKKAK2Of/rVE5w369u361KBnGOtQnqQP8DzQBEww35dOv58VnuTtFXpBk474x0qnJ09CTnmgDLnwR2/Kse4ODz9ef8AOa2JuVAHX3/+vWPN3A/wOCelAGDcjGf6dfz4rlbwn/P0rqLtcqR7EdK5m96nsSc80AcfqGDnp09K4jUjg8/Xn/Oa7e/54HXHf/69cRqHcD/A4PagDhL8YP8Ah16evFeG/FUn/hCNV/69Zf8A0GvcNRXOR7EdK8R+K3/Ik6t2JtpTz/u0AfaP7DIJ/ZQ8KY/v6l/6XT19X7Gr5Q/YYYj9k/wpj+/qX/pdPX1fvagA2NRsaje1G9qADY1GxqN7Ub2oANjUbGo3tRvagA2NRsaje1G9qADY1GxqN7Ub2oANjUbGo3tRvagA2NRsaje1G9qADY1GxqN7Ub2oANjUbGo3tRvagA2NRsaje1G9qADY1GxqN7Ub2oANjUbGo3tRvagA2NRsaje1G9qADY1GxqN7Ub2oANjUbGo3tRvagA2NRsaje1G9qADY1GxqN7Ub2oANjUbGo3tRvagA2NRsaje1G9qADY1GxqN7Ub2oANjUbGo3tRvagA2NRsaje1G9qADY1GxqN7Ub2oANjUbGo3tRvagA2NRsaje1G9qADY1GxqN7Ub2oANjUbGo3tRvagA2NRsaje1G9qADY1GxqN7Ub2oANjUbGo3tRvagA2NRsaje1G9qADY1GxqN7Ub2oANjUbGo3tRvagA2NRsaje1G9qADY1GxqN7Ub2oANjUbGo3tRvagA2NRsaje1G9qADY1GxqN7Ub2oANjUbGo3tRvagA2NRsaje1G9qADY1GxqN7Ub2oANjUbGo3tRvagA2NRsaje1G9qADY1GxqN7Ub2oANjUbGo3tRvagA2NRsaje1G9qADY1GxqN7Ub2oANjUbGo3tRvagA2NRsaje1G9qADY1GxqN7Ub2oANjUbGo3tRvagA2NRsaje1G9qADY1GxqN7Ub2oANjUbGo3tRvagA2NRsaje1G9qADY1GxqN7Ub2oANjUbGo3tRvagA2NRsaje1G9qADY1GxqN7Ub2oA09OBG/PtWnWZpxJ359q06ACiiigD8qf8Ago//AMjz8Lv+u+o/+h2dZ+lnCrn68/5zWh/wUeGfHXwtA/576j/6HZ1n6T9wAf4HB7UAd/powR/Tr378V3OnE4FcJpy54+o6fWu90/t2JIPNAHa2ODjp+VdZaHGM+mef85rk7DkKB19//r11lj0AH+Bwe1AHUWowf8Ov58VtQE4/CsO3XPH1HSt6HqexJzzQBrxYJHT8q0UOCM+mefp+dZ0POAOvv/8AXrRi7Af4HB7UAXYxgfiBx/jxUqHj8KgRcqR36dKsL1PYk55oAlQfP/nmp6gTG4VPQAUUUUAf/9D+/iiiigCt0HPtUL989uOelTduOPwzUTH5+Ovt1oAgk5bnvVF+Fx+lXnXGD06c/wD6utUZMYx0HHagDNm4Xnpx/SsW4HXPbI9q2ZslQQOvtnrisec/MSOvt16+lAGBd8g571y95xkfXiuoulwpPT3/AP1da5e9xkjoPpQByOocDnpiuG1Idc9sj2ruNQyRkDqD2z1riNQPz5HX26/lQBweo8k57/8A1q8P+KvHgjVR/wBOsvH4GvcNQQgZ6e//AOqvD/iqP+KI1boB9mkHT/ZNAG94X8PXXgTwxaeBvCfx6+xaVpzTG3t/+EWEnl+fI0j/ADuWY5dieWPtxW35/if/AKOD/wDLTSvnu4/4+JP94/zqGgD6K8/xP/0cH/5aaUef4n/6OD/8tNK+daKAPorz/E//AEcH/wCWmlHn+J/+jg//AC00r51ooA+ivP8AE/8A0cH/AOWmlHn+J/8Ao4P/AMtNK+daKAPorz/E/wD0cH/5aaUef4n/AOjg/wDy00r51ooA+ivP8T/9HB/+WmlHn+J/+jg//LTSvnWigD6K8/xP/wBHB/8AlppR5/if/o4P/wAtNK+daKAPorz/ABP/ANHB/wDlppR5/if/AKOD/wDLTSvnWigD6K8/xP8A9HB/+WmlHn+J/wDo4P8A8tNK+daKAPorz/E//Rwf/lppR5/if/o4P/y00r51ooA+ivP8T/8ARwf/AJaaUef4n/6OD/8ALTSvnWigD6K8/wAT/wDRwf8A5aaUef4n/wCjg/8Ay00r51ooA+ivP8T/APRwf/lppR5/if8A6OD/APLTSvnWigD6K8/xP/0cH/5aaUef4n/6OD/8tNK+daKAPorz/E//AEcH/wCWmlHn+J/+jg//AC00r51ooA+ivP8AE/8A0cH/AOWmlHn+J/8Ao4P/AMtNK+daKAPorz/E/wD0cH/5aaUef4n/AOjg/wDy00r51ooA+ivP8T/9HB/+WmlHn+J/+jg//LTSvnWigD6K8/xP/wBHB/8AlppR5/if/o4P/wAtNK+daKAPorz/ABP/ANHB/wDlppR5/if/AKOD/wDLTSvnWigD6K8/xP8A9HB/+WmlHn+J/wDo4P8A8tNK+daKAPorz/E//Rwf/lppR5/if/o4P/y00r51ooA+ivP8T/8ARwf/AJaaUef4n/6OD/8ALTSvnWigD6K8/wAT/wDRwf8A5aaUef4n/wCjg/8Ay00r51ooA+ivP8T/APRwf/lppR5/if8A6OD/APLTSvnWigD6K8/xP/0cH/5aaUef4n/6OD/8tNK+daKAPorz/E//AEcH/wCWmlHn+J/+jg//AC00r51ooA+ivP8AE/8A0cH/AOWmlHn+J/8Ao4P/AMtNK+daKAPorz/E/wD0cH/5aaUef4n/AOjg/wDy00r51ooA+ivP8T/9HB/+WmlHn+J/+jg//LTSvnWigD6K8/xP/wBHB/8AlppR5/if/o4P/wAtNK+daKAPorz/ABP/ANHB/wDlppR5/if/AKOD/wDLTSvnWigD6K8/xP8A9HB/+WmlHn+J/wDo4P8A8tNK+daKAPorz/E//Rwf/lppR5/if/o4P/y00r51ooA+ivP8T/8ARwf/AJaaUef4n/6OD/8ALTSvnWigD6K8/wAT/wDRwf8A5aaUef4n/wCjg/8Ay00r51ooA+ivP8T/APRwf/lppR5/if8A6OD/APLTSvnWigD6K8/xP/0cH/5aaUef4n/6OD/8tNK+daKAPorz/E//AEcH/wCWmlHn+J/+jg//AC00r51ooA+ivP8AE/8A0cH/AOWmlHn+J/8Ao4P/AMtNK+daKAPorz/E/wD0cH/5aaUef4n/AOjg/wDy00r51ooA+ivP8T/9HB/+WmlHn+J/+jg//LTSvnWigD6K8/xP/wBHB/8AlppR5/if/o4P/wAtNK+daKAPorz/ABP/ANHB/wDlppR5/if/AKOD/wDLTSvnWigD6K8/xP8A9HB/+WmlHn+J/wDo4P8A8tNK+daKAPorz/E//Rwf/lppR5/if/o4P/y00r51ooA+ivP8T/8ARwf/AJaaUef4n/6OD/8ALTSvnWigD6K8/wAT/wDRwf8A5aaUef4n/wCjg/8Ay00r51ooA+ivP8T/APRwf/lppR5/if8A6OD/APLTSvnWigD6K8/xP/0cH/5aaUef4n/6OD/8tNK+daKAPorz/E//AEcH/wCWmlHn+J/+jg//AC00r51ooA+ivP8AE/8A0cH/AOWmlHn+J/8Ao4P/AMtNK+daKAPorz/E/wD0cH/5aaUef4n/AOjg/wDy00r51ooA+ivP8T/9HB/+WmlHn+J/+jg//LTSvnWigD6K8/xP/wBHB/8AlppR5/if/o4P/wAtNK+daKAPorz/ABP/ANHB/wDlppR5/if/AKOD/wDLTSvnWigD6K8/xP8A9HB/+WmlHn+J/wDo4P8A8tNK+daKAPorz/E//Rwf/lppR5/if/o4P/y00r51ooA+ivP8T/8ARwf/AJaaUef4n/6OD/8ALTSvnWigD6K8/wAT/wDRwf8A5aaUef4n/wCjg/8Ay00r51ooA+nNP17xvpW/7B+0P5fmY3f8UlGc46dQfWtL/hNfiR/0cX/5aMX/AMTXyjRQB9Xf8Jr8SP8Ao4v/AMtGL/4mj/hNfiR/0cX/AOWjF/8AE18o0UAegfGfSLjxlFpni/xh8XP+E0vdAuIhZWP9gjTs/a54ElPmptXgKrfMD93AxmvUdLHyDPbI9q+XtU/48xj/AJ+LXtn/AJeI6+o9KP3SOvt1/KgDvdO5xnvXd6dwAP0rhNNQgA9Pf/8AV1ru9OxwOg47UAdvYcKM9OK6q0Hy89hj2rlLDJVSB19s9a6yyPII6+3X8qAOnt+evetyDjj68Vh2y4APT3//AFda3IccjoPpQBsxcAZ6VfQcDPYEe3Ss+LJwQOue2etaMR+YEdfbr+VAFxORz3NToMDH6VXjXC56e/8A+rrU6Dr26CgCdBg1NUKfeBx61NQAUUUUAf/R/v4ooooArY5/+tUTnDfr27frUoGcY61CepA/wPNAETDDfl06/nxWe5O0VekGTjvjHSqcnT0JOeaAMufBHb8qx7g4PP15/wA5rZl5AA6+/wD9esabGDj/AAOD2oAwbkHp9Bx/jxXL3nTPtXUXa5JH1HSuZve/Yk55oA4++wSenT0rh9ROG59zz9Pzrub0Z6fr/wDXrh74DnHv7HmgDhdRGCf6dfz4rwz4q5/4QfVcf8+sv/oJr3HU1zkfUdK8Q+KnPgnVuxNvJ1/3TQB5lc/8fMn+8f51BU1x/wAfEn+8f51DQAUUUUAFFFFABRRRQAUUUUAFFFFABRRRQAUUUUAFVLi+tbUbp3VB7nFbWi6LqfijxBYeFNFAN3qU6W8W77qlzyx9lGWPsK/Yv4YfBDwD8K9LittEs45r4KPOvpkDXEr9zuOdo9FXAH15oA/Eo+ItHX71xH/30KT/AISTRf8An4j/AO+hX9ClFAH89f8Awkmi/wDPxH/30KP+Ek0X/n4j/wC+hX9Clc14y8Y+Ffh54S1Px5461CDSdF0a1lvb69unEcNvbwKXkkdjwqqoJJPagD8EP+Ek0X/n4j/76FH/AAkmi/8APxH/AN9Cv2m+AH7SPwJ/an8Aj4o/s8eKbDxboH2iS0N5YSb0SeLG+NwQGRwCDhgDtII4IJ9uoA/nr/4STRf+fiP/AL6FH/CSaL/z8R/99Cv6FK8L0H9pH4PeJv2gtf8A2XdF1N5fG3hjTLXWNSsTbTKkNnesVhcTMghcsQflRywxyBQB+L//AAkmi/8APxH/AN9Cj/hJNF/5+I/++hX9CleJfH/9o34MfsueAk+J3x31pdB0OS+tdNW5aGa4LXV7II4YwkCSSEu5xkLgDk4AJoA/Fj/hJNF/5+I/++hR/wAJJov/AD8R/wDfQr9zfi/8WfAfwH+F2v8Axm+KN42neHPDFjNqWpXSxSTmG2t1LSP5cSvI21QThVJ9q3PAnjbw18S/A+jfEfwZcG70fxBY2+pWM5R4jLbXcayxOUkCuu5GB2soYdCAaAPwW/4STRf+fiP/AL6FH/CSaL/z8R/99Cv3i8efEb4e/Cvw6/i/4n69p3hzSY3SN73VLqKzt1eQ4RTJKyoCx4AzknpXiX/Dbv7F/wD0V7wV/wCD+x/+PUAfkV/wkmi/8/Ef/fQo/wCEk0X/AJ+I/wDvoV+uh/be/YvAyfi94K/8H9j/APHq+gfC3ivwv458PWni7wVqVrrGk6hGJrW9sZkuLeeM9GjkjLI6nsVJFAH4Ff8ACSaL/wA/Ef8A30KUeItHb7txH/30K/oTooA/n8t761uhugdXHsc1br9mfid8D/AHxT0qW11myjgvSp8m+hQLPE/Y7hjcPVWyD9ea/HXWtF1Pwv4gv/CmtAC702d7eUr91ih4YezDDD2NAFCiiigAooqC4mW3haZ+AoyfwoAWWeKFS0jAAetZjeINIT708f8A30K/Uz9nP9nLwx4d8MWfjTxrZx3+t38a3CrcKHS1RxlUVTkbwMbm654Bx1+w1VUUIgAA4AHQUAfz2/8ACSaL/wA/Ef8A30KP+Ek0X/n4j/76Ff0KUUAfz1/8JJov/PxH/wB9Cj/hJNF/5+I/++hX73eNfGPhv4d+DdW+IHjK5FlpGhWU+oX1wVZxFbWqGSV9qBmbaik4UEnHAJrwCP8AbV/Zhm8PfDbxVH4riOn/ABfuIrXwhN9nuManNOnmIqjysx7k5HmhBQB+SH/CSaL/AM/Ef/fQo/4STRf+fiP/AL6Ff0KV5f8AF742fCL4AeEP+E/+NniTT/C2ifaYbT7bqc628Hn3DbI03OQNzHoPTJ6A0Afh3/wkmi/8/Ef/AH0KP+Ek0X/n4j/76FftT4n/AGivg14N+NXhX9nfxJrS23jLxtbXt5omneTM5uoNOTzLhxKiGJBGpz+8dSf4cmul8J/F/wCFfjvxl4j+HXgvxFp2q6/4Plgg1zTrW5SW50+S6TzIRcRqS0fmJkpuA3YOOQcAH4Y/8JJov/PxH/30KP8AhJNF/wCfiP8A76Ff0KUUAfz1/wDCSaL/AM/Ef/fQo/4STRf+fiP/AL6Ff0JkgDJOKWgD+ev/AISTRf8An4j/AO+hR/wkmi/8/Ef/AH0K/oR8yMyGHcN4GduecHviqNnrGk6jc3Flp91DPNaMEnjjdWaJj0DgElT7GgD+fz/hJNF/5+I/++hR/wAJJov/AD8R/wDfQr+hSigD+eweI9GJwLiP/voVag1WwuW2wSqx9jmv6Ca5bxT4I8IeNrB9M8Wabb38LjGJkDEe6t1U+hBBHagD8LwQeRS16t8cPhY3wc8ft4ctpGm068i+02Uj8sI8kNGx7sh79wQepNeU0AFFFFABWfqeq6Zotk+o6vcR21vGMtJKwRR9SeKvk4Ga8s/Zt+Ad3+3h8WtU1TxhPJB4A8KXHk+TGcG7lyQBnGDuwSeu0duRW1Gkp3cnZLczqVOWySu3scpeftR/Aixna2n1+PcvB2RTOPwKoQfwNVP+Gr/gF/0H1/8AAef/AON1/QL4a/ZX/Zw8JaTFomj+CNG8iFQq+fZx3D4Hq8oZj+Jrf/4Z8+Av/QkaB/4Lbb/43V3w/aX4f5EWrd1+P+Z/O3/w1f8AAL/oPr/4Dz//ABuj/hq/4Bf9B9f/AAHn/wDjdf0Sf8M+fAX/AKEjQP8AwW23/wAbrzjwX4d/Yv8AiP4j8ReEPAGleD9Z1XwjdrYa3aWdrZzTWFy6BxHOiqTGxU9G7gjqpAL4ftL71/kO1buvuf8AmfhF/wANX/AL/oPr/wCA8/8A8bo/4av+AX/QfX/wHn/+N1+pMf7Vn/BGmVA6/Ef4MjPZtX0RT+RlBFa2iftHf8EhfE2t2Xhnw147+EGpalqVxFaWlpaano08888zBI4440kZmd2IVVAJJOBRfD9pfev8gtW7r7n/AJn5Qf8ADV/wC/6D6/8AgPP/APG6P+Gr/gF/0H1/8B5//jdf0Kat8E/2cdA0q513XPCHhuzsrKJ57iebT7VI4oowWd3YphVVQSSeABXzJ4r+L3/BNbwb+zzaftX6wvhKX4d380Fvba5Y6XHfW0stxN9mjVRbQSuSZv3ZwvysCGxg0Xw/aX3r/ILVu6+5/wCZ+Q3/AA1f8Av+g+v/AIDz/wDxuj/hq/4Bf9B9f/Aef/43X7va74c/Yw8L/EbQvhD4k0rwfYeKfFEVzPpGk3FrZx3l9HZKGnMETKGk8tTubaDhQT0BwfFDw5+xh8EvDsPi/wCMGleD/DGl3F3b2Ed3qdrZ2sLXV04SKIPIoBZ2PA9ASeATRfD9pfev8gtW7r7n/mfhD/w1f8Av+g+v/gPP/wDG6P8Ahq/4Bf8AQfX/AMB5/wD43X7a/GPV/wDgnt+zs2mL+0BcfD3wN/bXnf2efEB07TRdfZ9nm+Ubjyw/l+Ym7bnG5c9RXi3/AA1T/wAEav8AopHwY/8ABxof/wAdovh+0vvX+QWrd19z/wAz8s/+Gr/gF/0H1/8AAef/AON0f8NX/AL/AKD6/wDgPP8A/G6/cv4QwfsJftBaJdeJvgNF4E8babY3BtLi70FdP1GCKcKr+W0luHUPtZW2k5wQa8jufjz/AMEl7NpEu/GnwjiMJZZA+o6Mu0rwQcycYPXPSi+H7S+9f5Bat3X3P/M/JD/hq/4Bf9B9f/Aef/43R/w1f8Av+g+v/gPP/wDG6/oUuPgn+zhaaY2tXfhHw1FZpH5rTvYWqxCPGdxYpjbjnOcV8seE/jn/AMEtvHvx1tv2aPAWq+ANe8c3dvcXMWlabDZ3chS1G6VS8SPGsirl/KZxIUDMFKqxBfD9pfev8gtW7r7n/mfkl/w1f8Av+g+v/gPP/wDG6P8Ahq/4Bf8AQfX/AMB5/wD43X9En/DPnwF/6EjQP/Bbbf8Axuj/AIZ8+Av/AEJGgf8Agttv/jdF8P2l96/yC1buvuf+Z/PNZ/tR/Am+nW3t9fj3N03xTIPzZAB+de36Zquma1ZJqOkXEdzbyDKyRMHU/Qjiv2K8S/srfs3+LdKl0bWPBGjeRMpVvIs47d8H0eIIwP0Nfhj+0l8A7z9g/wCLelap4OmkuPAHiu48nyZDk2kuQCM4x8uQR03DtwapUqVS6pt37PqS5zhrO1vI9UopAcjNLXIdAUUUUAISByaz59VsLZts8qqfc4r2f4H/AAsb4x+P18OXMjQ6dZxfab2ROGMeQFjU9mc9+wBPUCv168LeCfCXgjT10vwlp0GnwKAMQoFJx3ZurH1JJJ70AfgofEejA4NxH/30KT/hJNF/5+I/++hX9ClFAH89f/CSaL/z8R/99Cj/AISTRf8An4j/AO+hX9CleMan+0N8GtH+POmfsxajrsUfjvWNJm1y00jy5Glk0+B/KeYsEMaqHyoDOCxBwDg0Afil/wAJJov/AD8R/wDfQo/4STRf+fiP/voV+0/xs/aN+DH7OsPhqf4x62ujjxhrlp4b0dfJlne71S+3eRAiQpI2X2N8xAUdyK9toA/nr/4STRf+fiP/AL6FH/CSaL/z8R/99Cv3K8U/Gb4P+BtaHhvxr4r0bR9RMSzi1vr+C3n8pyQr7JHDbSVYA4wSD6GsL/hpD9nj/ofPDv8A4NLb/wCOUAfil/wkmi/8/Ef/AH0KP+Ek0X/n4j/76Fft3pfx8+Beuapb6JovjTQby9u5BFBbwalbySyyN0VEVyzMewAJr1mgD+ev/hJNF/5+I/8AvoUf8JJov/PxH/30K/oUooA/nxj1vTJW2RzIT6bhWorq4ypzX726hpmm6tbNZarbx3MLjDRyoHUj3ByK/M79qj4D6L8ORB8QfA8IttNupxBd2ifchkfOx4x/CjEbSvQEjAweAD5FopAcjNLQAUUUUAFFFFABRRRQAUUUUAFFFFABRRRQAUUUUAUNU5s1H/Txa/8Ao+OvqLTDgLn0zz/nNfL2pDNqoH/Pxa/+j46+odK+6AP8Dg9qAPQtMGCPw6dfz4rttNJwPpXD6aucD8Old3p4wR2JOeaAO0ssE9vyrrbTjGe3PPt+tcnYjoO+f89a62y6YHv7HB7UAdLajB/w6/nxW1ATj8KxLZcgjqcY6VvQ8n0JOeaANaLBI6flWihwRn0zz9PzrOh5wB19/wD69aMXYD/A4PagC7GMD8QOP8eKlQ8fhUCLlSO/TpVhep7EnPNAEqD5/wDPNT1AmNwqegAooooA/9L+/iiiigCt0HPtUL989uOelTduOPwzUTH5+Ovt1oAgk5bnvVF+Fx+lXnXGD06c/wD6utU5gM44AyO1AGbNwMHpWJcj5Tntke1bU+TyB1z2z1rInI3ZHXnp1/KgDAu87jnuevrXMXgwpH6V090uBu6e/wD+rrXM3oBBHQHA6UAcffZCnPTiuI1EYQ59+vSu5vwSuR3z2zXFX/3uOo9Ov5UAcBqQJJ9+/rXiHxUTb4J1X/r1l4/A17nqKbRnp7//AKq8Q+Kgz4I1YettJ2/2TQB5Vcf8fD/7x/nUNTXH/HxJ/vH+dQ0AFFFFABRRRQAUUUUAFFFFABRRRQAUUUUAFFFFAHrX7ORB/aO8IxNyGlvDj3FnOR/Kv2er8Xv2c/8Ak5Pwf/11vf8A0iuK/aGgAooooA+Wv2vv2y/gD+wx8JG+NP7ReqzaXozXKWNuLa1lu5rm7lVmjgjSJW+dwjYLFV45YDmv5ef2k/29fE37fvxftfhv+2d4X8c/Bv8AZy05bXW28OW3h7UbzWvGMO8yQC/ltIWS0tP3YdogxY5BBc7JIv6y/j34Z+Jfiz4TaxpPwXudKsfF/lrJo13rdsbuxtryNgySyRr8x24JG3BBwRX4F+BPjb/wVm+OfjP4wfALSfit8PLTxL8KHFlr1hf+Fby2klhu7czQ3Nsftjb7eZdwSQqpyM7dpUsAfA3iz9sT4L/BT422f7YP/BFmDXZ4/GU1nY+IvhxJ4W1Kz8MeIgHFulxaXC2629ldx5wXBWM4JJzvSX+hL9iL/gqr8Bv2z/Gt78DDpGu+Afivodq11rPg3xHYTW97ZpEVSRxLs8p4g7qFYlHIYEoucV/P3+xh8ZP+Chn7Iv8AwRi8F/tP6P8AE7wNoPwu0aym+xafe+H7nUNXJuNSlgWEFLqFJpHnc7QNuEPPQmv6Xv2L/CX7W8GjX3j39sjWfDXiDW9UhtjpM+iaRLpVxa2MieY8Fys7SSbvMIJTdhSDkZoA/lEj+DXwc1Txf8cvjJ8UvBXgfX0ufjv4/wBEGreOviLfeCoYktZ4Zbe1tlhlWGb/AFk7k7dwHGSAMfJ3ifw7+zBp37YHhbQdM8D/AAXi0XUtBv5b2K3+MN9Ppkk0Dp5RudX87dbSgMfKt8ESjJ7V9Q674d8W/Eb9l3wv8ZvBllql5puuftNeM/FEt/pXhxvFRtrGZZoftDaeEdLhNyY2v8pPuK8q8d6lKf27vAM//CRa++PDWrr57fA6C2nj+eLhNG8kC7Vv4rkqTBgAY3UAfp3/AME6v2e/2e/HP7XnhTX/AIcfDL4VPJ4Vll1a51Lwh8W9R8WahpixxOsMwsDKY3Vp2jjJkBUB84yBXvn7eXxc+HH7dX/BWb4L/wDBL6DVnk0DwRPd+NvFn2GTEh1aytJZNPtQ4+68APnScMMSqPvKceef8EkPCvjF/wDgpv45+IdxFreoaFP8NrWwi1fUfAf/AAgcBuo9SDtbraJEkUjqhD+bkuwOOiCvWZ/2Sfgp+yb/AMFn/gNafB6xmgl8a2vxI8TaxdXczXN1c32oJA7b5Xy5SMEJGpJ2qMklizMAfjf8fPEvwY+IX7GHxG8W/CHTf2tdc0S30jWbGLWNY1v7Z4VM9oJIJDe7b1le0SVSJx5Z+UEbe1eqfCy4+DfhD4UfCvQvi/ZfteeErTxT/wAI/wCHLfVG142Xh77bqSRxRC3JvfltiSWiUR5EQGF4xXlX7W0/7T37EHwR+J//AAS3svi3ayfboYZNF8NXXhH7PN4pj8YaiVmj0vUPtkpkNvJO3m7olYbWVQ21iP3C8Tf8Ewv+CiHxX8M/DP4afGz48+GtU8H/AA68QeH9ch06y8KG0mk/sF1Mcf2gXbHlAVyV5OCR2oAuf8F6fC2ifDz/AIJPQeB7gXuv2Gia34SsP9LJvb28itryCM+YSMzTSqp3EjLsT61+RP8AwVD8d/8ABNbVv2D/AIg6d8EP2TvEPw88Uy21mLDxDefDg6JBYuLyAsz33lr5O9A0YOfmLBf4q/ZX/g4MvvEFx+x/4F+H/guGG68QeL/if4V0jSbadzHHPetO80SOwBIVmiwxAJA5r4i/4LDePf8AgrNq/wDwTc+KGnftD/D74d6N4NltLEaleaLrd5dX0SC+tyhiilt0RiZAgOWGFJPUUAYXxY+I/wDwSim+AXiWDQP2LfFGm6s/h+8W21B/hX5CW9wbZtkxn8r92EfDmTPygbu1ftT/AMEdAB/wS5+BYH/QpWP/AKCa+LfjZ8SP+C1E/wCzP4utvEfwy+F1voz+GL9bqaHX7950tjauHZENsFZwmSFJAJ4zX2n/AMEdf+UXXwL/AOxSsP8A0GgD9KKKKKACvxh/aNIH7R3i6JeAstmce5s4Cf51+z1fi9+0Z/ycn4w/662X/pFb0AeUUUUUAFc74rkMWgXUg4xG38q6KuY8Y/8AIt3n/XJv5UAf0OoixoI0GFUYAHYCnUUUAFZHiC31i70G+tfDtwlpqEtvKlrPInmJFMykI7L/ABBWwSO+MVr1y3jnxn4d+HHgrWPiH4vme30nQbG41G9ljikneO3tY2lkZY4leRyEUkIiszdFBJAoA/nS/aQtP2/k/Zw8fReKP2x/hzrdmnhvVVvNPt/DdlHPdxi2kEkCOt+SryDKKwQkE5x2r5X+JGm/EHVv2F/+CbmnfCjXbPwx4km1XR10/Vb+2F5bWk/9lviSSEugkUf3dw+teRftu/tD/wDBIG6/ZY+IPxG/Zy/ZQ1XxBFfaXdwW/jtvCf8AZei2d9qQMFvcG9u/LlaQXEqOqpGWJ6Eda0f2kvCHinwH+wt+xL8Ov+ChXgOCTQ9C8WWWn3Hh/RBPqt3eaLBpAVPOhiCubqR97PDCSEG0ZJBoA/fH4MfDb/gpbpfxa0C++LX7RHg3xT4biuS+oaRp3hiOyuryFUYlI5vtUpQ5wxIUnANflJ/wU+8QftI+MPFX7Wtj+0L8RvFPg/8AZy8CWPg22ttJ03wlpmqrq6eIYYobkWlxfpCztbXhSRnjud8LsSpVkQV7T+x14i/4I4eB/wBprwjqf7NfwD8W+DfG91dPYaXq9z4X1Wygt3vY3gcyTXDGJEaN2UswOAa+mf8Agsx8X/hZ4g8DaB/wTy+I3gfxz41l+OEN1NbReAzZLqUa+G57S/k2G9Jj5wpb5G+QN0OCAD8P9G8DftPaF4w+H3xAsdb/AGm21r4W6TcaJ4Yu5/hPpc8tlYXUSQyxEy3L+dujRV3z+Y4xwwPNcv8AC68/as+BXwR+PniL9h/4o/FKy8e+C9e0DWPF3hrxX4C0qHWNUvPFdyqGd3Jv71yturzkMAqoQVGGYi38QviZ+114a/az+HXwbsLz9q+y0nxNp2sXN3pF/rOlnX72SyRGjewKJ9nEUWSbjzQWII2YNfpT/wAE7/ip4P8A2X/21j8MvGvgT43Wnjb9pWVEOu/FOfS7kSnwjYXEo2SWflyHZA4jbcr/APLMDAByAf0i+LvFvhjwD4V1Lxx41v4NK0fR7aW8vry6cRw29vApeSR3PCqqgkk9AK/moT/gub+1VdrcftoaT8ETd/si2uuPor+JI2k/4SA2yP5TaotuXC/ZRJwV8rAb92ZQ4OP0E/4KafsTftI/t9eLfh98AtP8UweHfgPPcS33xAhtC0Wrah9kZHtrVHyQYZjnIwojZfMbeQiV+m3h34V/Dbwn8M7T4MeHtDsrbwnZaeukw6QIVNmtisfleQYiCrRlPlKkEEdc5oA/GH9un4LfGP8Abxv/AAF4h/Z38UXHjX4EfFvSDo2swaZdQwpocyk3umeJLKUtDIZLa4jVbiIuzMqiIJuY7f1q/Zn8O/G/wh8APCPhX9pLV7HX/Hem6ZBa61qWmhxbXd1ENrTL5ioxLgBnJRQXJIVQQB/P7428F/HX/ggh8StS+MHwO0y/8dfskeIrw3ev+GIGM+oeC7iZv3l1Zbz81oSckEhcfLIVYLK39CPwD/aB+Df7UHwr0v41fAXxBa+JfDWsJvt7y1bIyPvRyKQHjkQ8PG4V0PDAGgD8go7aDWP+Dk2SeNQx0n4AAucfdd9cwPxKyflU3/BJiKI/tp/ttXkagF/iVAhIGM7IJP6k/nXJf8E8vEMH7V//AAVv/aZ/bS8IE3PgzwzZaZ8NNE1AcxXk1ltmv/KYZDKk8asCDhklRh1rU/4JY+J/Dfg79o/9uLxx4x1C30rSdN+J1xNeXt3KsMEENvAxd5JHIVFUZJYkACgD986K/Hb/AIJtftb/ABy/bu+O/wAXf2j9GuDb/s+w3Fr4d8CW9za+XPqFxp277bqMbna4hldtoDA5+VfkeJw37E0AFFFFAH5v/t6kJ4i8FY6vFqYJ9QDa4/nXxPX2r+3x/wAjJ4H/AOuWq/zta+KqACiiigCOX/Vn6V9I/wDBGOKM/sk3l5geZJ4hvgzdyFWLGfpk183S/wCrb6V9Kf8ABGH/AJM/uP8AsYtQ/wDQYa6af8Gp6r9TCf8AFh8/0P1oooormNwr80PiN/wT0Vv28/CH7eX7PHiJfAmu4k0/x5ZxW/m23ifSfLPlpLGGRRcxyKgSc5IXBOfLVW/S+v52v2hf2WPhz+zj/wAFaf2afiP8MNQ16G8+J3i3xjfa/b3WsXd1ZTSnTZroCO2kkaKJFllYqqKABgdAKAPyW/aa8T/EP9o34Paz+1l+zr8Ifhz8MU+C2oeIjDNba1ZKNQttEkdbqO80GbTTDeCWOA+SpdXVyCrjocnwLffFj9nnS9O/4Kj/ALSnwf8Ahf481O7Gjz6FDpeu2+n22hWurzQpbCz0S2sWX7Sjzq0k8800y7ch1284Hhj9lT4h+OP+Cfv7QPxx0j4L/CbxFpFhe/EOeTxbrktwviu2W0lu2eS3VbKSMy24G62zOoLBclatftH/ALInxH8Cf8ExfCPxl1j4G/Brw3pkln4KuV8U6BPcN4pZLy6sQkpV7GKPzbjeBcfvyMO+C3cA/pE/4KIX/wC234g/al/Z8+Bn7KXjTV/h74f8aSeKl8V69puh2usQ2i6fZQ3Fl55u4JYofMlV4o8tHvLnG4qAP5efhX8Nbv4w/sy6j4I+DuvftDa58KvG3iCTxO8Gk/C/SptMm1S3ugzy2zwXhSFEuYOYbdkhDIV2dRX9ov7cn7XvhH9hT9mrXP2mvHWj3+vaZoU1jDLZaZ5f2mRr+5itU2+ayJw8oJyw4r+OP49WXxx/Ya/ZOg0/9m+w/aj+Gml6PqNnbWi6/qmkxaHbpqN6DOix2aCQSzPK/lY+XznBbIzQB9JfC/Q/jd49/wCChvhPW/Enxb+NXgr4yfEHRtS0XQtb8bfDXRLG2On6RbtfXMNuk00kcIwo3m2gDM8g3nDk1+4/7EngbxZ/wUG/4JN+F/B//BR/S7nxBrnjOy1GLxDDq9ium3Ykjv7hIJBCkUPkSxRpG0TpGpGFcZJyfxf1P4k2n7IXxK8Nft//ALSPgH9qPxFD8I0vzZT+Or7RLzS7Ma5D/Z8pcRiORfM8yMDY4y6pnIGK/p+/ae/ZV+E/7ZXw6034ffGE6tFptjqEWrQjSdSuNLuBcRxSxKGltZEcptmfKbtpOD2FAH4rfGbRfiL/AME+/wBn/wCB/wCyp8XNC8LftI+INc8Q6t4Y8Oar4yMel/2ZpXlGa2je7liuiJBDCivIoT7qKM7FY/iJa/AT9tHTfjPrv/BPbwxpfw5h8P6jpEXi9mvdZ0291m00W4uXtZbC18SS6cZFd5QxXfbyTwxbdkg5Le0+HfBnin4r/sOfsa+AbbSNJ+IGp3/xW8ZWcWm+NbiWXTr4QTagiJeS7J5CgRBghG5A4rvrb9hn4tf8PRdQ+FLfs5/Ab+0YfhZbau3hxp7oeHUgbVpoftyt/Z2/7cWHlMPJC+SF+fPygA/YL/gkt47eDwl8Yv2NvhN8MvCvwk1D4SHTbS1fQtTfXrK8v9XsnuI7m4uTFDJcMgEQkZiztyuRtFfh/wCIvjz+zdpmoX+k+J/if+y4L+2mlhu0k+E967idGIkDHYdx3A5ODk1+vH/BFT4da18J/wBq79rT4feIfCvhrwTeadrPhNZNE8Hu76LamTS2kAtmkigchwweTMa/vGbqOT8JfED9u34g6JZ+L/GSftLfGm38K+HNVv8AT73U7P4X6bc6PZy2s7QvF9t8kx7Y3wgLyAnjOCaAPl3/AIKMXH/BHrxH+zh8U9Xl1vxJ4l+OqQzhPPi8TJo1vrqTBbk2ccqLYxWwkEnkpIzRomAOgr9v/wDgnx+3j/wSL8G6d4E+BH7M9nbeHvFXia3sNNKaf4Q1DTRd30ka7vOu2sYo33ODmSSUg9c14n+2d8eP22/2+tM/aD/4Js/s1/CvStdsPDVtpWiX/ijUPEKWE+dUtYr2OX7G9ttYnDAqsoA9a+rf2W/21/2uvDX7U3gD9gP9qP4Q6V4Km1Lwlc6lZ6pp/iIasZYtIWOE5iS1iCl2xwX4B4zQB+1tFFFABX5Kf8FnYox+yRZ3eB5kfiGxCt3AZZc4/IV+tdfkv/wWe/5M/t/+xi0//wBBmrpwf8aPqYYn+FI+a4v9WPpUlRxf6tfpUlcxuFFFFAH2x+wUQ/iLxrnqkWmAH0BN1n+VfpBX5ufsD/8AIyeOP+uWlfzuq/SOgAooooAztXtr+90m6s9LuTZXUsLpDcBBIYpGBCvtb5W2nBweDjBr+HTxj4+/au/Z5/aS+KvwS/aW8Z6lp3xl1q40JfEPxltY1isdD+FunNFtubKO1Uvb3N5d4ili8va0z8nOXr+3jxnoN34q8H6r4X0/UbjR7jUrOe1jv7MgXFq8yFBNESCBJGTuUkEbgK/gO+IXgzwdPr+qfFvRfHXxb8X+Gvih4Z8eX/je2utdtbS+1+PwI4tIz5tvbbDaCMzMY5Ff92u0AdwD7t/bz8NftNfGL4jeF/2/P+ChngrUtK/Zu+HXiGTQLfwzY6jLF4h07Trg/Z18TTTafKod2uViO2J2zER5YKsJn+3/APgi9+znaeM/jp42/wCCgfw3n8UaD8I9Xt38P/D7RNb1m+v5dSsopF+06tdJdzSsomlixbRnAVdxK5Cu3iWuf8E5v2x/Fv7MXgL4l/EDxXF+1X4N8EWeiXHg/wCGyuPDOl6po0ECNHd37Ezfbb3ydvlwzOY8kkvIC0L7/wDwT7+HfjPXvHd78Rf+CTPjW8+GXhjT/EUFt8Sfgt8RdNuJLfQLmd83RsCMPDIUDvHFHIqOcB3QARqAfuh8eP8Agnx+xT+1B47i+J37Qnw10Txdr8NnHp6XupQebIttEzukYycYDSOemea/Kr9uP9n7/giZ+wdpvh60+In7PuneIvFHjVrqDwx4d8PaDJf3+rXVp5W+GLYPLRh50Z/eMpIJ2hiCK/ocr8NP+CkP/KUf9hj/ALD3jH/02wUAfHf7DX/BFDSfiL+0fpn7eP7VPw00H4S2WizxXnhD4ZeHlXbZNCwkhutWukwZ7lWAcRLhQwG4KA0Vf1H0UUAFFFFABXzB+2SVX9nXXJCOVm0/B9CbyAfyNfT9fL37Zv8Aybjr3/XbTv8A0tgoA/KSL/Vj6VJUcX+rX6VJQAUUUUAFFFFABRRRQAUUUUAFFFFABRRRQAUUUUAUtR/49Fz0+0Wv/pRHX1HpkfyDd24r5c1AZtlA73Fr2z/y3jr6o0s/dI6+3X8qAO604HIyOvr3ru7AY28evFcTpsfAPTpz2/TrXcaeMgDgdO1AHZWYIxnpxXW2o+Xntke3SuUshkAjv7ZrrLM85HX26/lQB0ltnqe/f1rct+MD68ViWi4AJ49+36da3IAPoOB0oA14enPTiryDgZ7Aj26VQhyQCB19s9a0oSM5HX260AWk5HPc1OgwMfpVeNcLnp7/AP6utToOvboKAJ0GDU1Qp94HHrU1ABRRRQB//9P+/iiiigCtjn/61Rycc9vwqQDOMdaafu4H+B5oArMMN+XTr+fFUpc/5+lW5Bk474x0qvL1PYk55oAypsHPTP0rIuDjk5455+n51syjsOp5/wA5rIlHHy/X0ODQBgXK/wCR14965i7Bx+H9K6m5UEEdeo6Vzd6OvYk55oA46+AJJ46elcVqHHJz684//XXdXq5GB+v/ANeuLvl4OPy74NAHA6hGck/y69PXivD/AIqD/ih9Vx/z6y/+gmvdtRj3Zz7jpXivxSjL+CtVUDBNvL1/3T9aAPGbn/j5k/3j/OoKklYPKzjoxJH41HQAUUUUAFFFFABRRRQAUUUUAFFFFABRRRQAUUUUAesfs6FU/aO8ISucATXgz7tZzgfqa/aCvwKs9Y1jwvrVh4u8PEC+0u4S5hDfdZozna2P4WGVPsa/YX4SftB/DX4waZFLoV/Fb6ltHn6bO4S5hfuNpwXXPR1BU/XgAHuFFFFAHgX7TH/DUP8AwqO9H7Hf/CMf8J551v8AY/8AhMPtX9k+V5i+f5v2L9/u8vds2/xYzxX4q3X7If8AwWfuv2itX/arjh+Adt4013wwPCV7cwSeJ0hl09ZTMC0Ify3lViAsrqzBQFGBkV/RPRQB/J/4P/4JO/8ABWrwz8C/g5+ztq9/8Ftf8MfBLV21zRrXUZvEBS8vfMllje/jiWOKcQvMzRgIgGMHILBv148KaD/wWA8RfB74qeH/AI36l8LdP8T3+hPbeB7vwgNVVLfUpY5VaS9+3BiAhMRiMYbDAlgRxX6kUUAfiN8Df+CMHh74b/s//Dz4Wf8AC4fib4RuvCvh6306+tPBfiefRtKuL95Zbq7uRbxoQXkuLiT5yclAgPSvmb4gf8EcfiTdf8FAfh74k0P4n/GLUPA9p4Y1iHU/Fk/jVm1TT7yV4zBawTORcJDMFJlWONlYhdxGK/pSooA/MD4f/wDBL7SPh98QNC+IEXx4+NOstoV/BfjT9X8aXF5p92YHD+VcwOm2WF8bXQ43KSM15f8Atx/Br9r++/bz+En7Un7Mvgez8Xw/D/wn4ttpFv8AVINNt21DUooltoGLFpv3hQ4ZIigOA7xglx+x9FAH4Bxf8Ejviz+3H4oPx5/4K2+Ll1PxPZ27ReE/D3gW5n03TPCTSOkhuLe4yJp73dGhMkm5AVwfMUJs7iy+BX/Ba39lKxk0T4D/ABN8I/HfwvaE/Y7X4iW9xYeIEg/hi+32bGO4kHeW4wW68cAfuJRQB+RXxp/ZL/aW/am/bV/Z++JPxqj0jT/hx8KNNfxTf2mn3Lyy3HjXakccex1B+zW5Jlt5QSTtcOF3LXvn/BUL9l74jftofsIfED9mP4TXWnWXiHxXBZQ2k+rSyQ2aGC8gncyPFFM4/dxNt2xtlsA4GSPvmigD8m/2zJf+CoOp2Gu/Bj9m34feC/EfhDXfDp0sapqeszWN5b3F1A0M5aHymV1QncmCpYcHBr6u/YL+Avir9l39jL4Z/s9eObi2u9Z8I+H7PTr6WzZmt2uIkHmeWzKrMgbIUlVJAzgdK+tqKACiiigAr8X/ANova37R/i+RDkGWzHHqLOAH9RX6YfFv9oP4a/B/TJZddv4rjUtp+z6bA4e5mfsNoyUXPV2AUfXg/j1e6xrHijWr/wAXeISPt2qXD3MwX7qtIc7VzztUYUewoAZRRRQAVzni1DJ4fukHeJv5V0dVby3W6tngbkMCPzoA/f8AjkSWNZYzuVgCCO4NPr4g/Zp/ag8Ja54bsvh78Q7+LTNf0+NbZGuXEcd7HGMI6O2F8wgDcmck5IBHT7dR0kQSRkMrDII5BFADqayq6lHAKkYIPIIp1FAH4S+K/wBjr9tb/goR+0/Z6z+33Z6J4Q+BXw3157/QvA+lXX9pSeJbq0Zltr3UZ8Kv2fB3rAUUkEo8S5Ln6e/b7/Z4+Mnxs+PX7NXjP4X6QupaZ8PvHy65r8xuIYPstiLZ4vMCyurSHc/3YwzcdK/TyigAr8//AI6/sl+O/ir+3z8B/wBq/R9TsLbQvhRZ+KLfULObzPtdy+vWiW8Zh2qUwjIC+9l46ZNfoBRQB+YHx5/Z++NHjP8A4Kl/AP8AaG8MaJ9p8E+CtA8VWWtal9pgT7NPqcMa26+S0gmk3smMxxsFz8xFea6F+xB+218Qv25vhr+1D+1P8RfDGseH/hFN4hl0DTtC0iazu5/7dtTZ4upJJnQ+XHtbKAZZemDkfsTRQAUUUUAVb6xstTsptN1KFLi3uEaKWKVQ6OjjDKynIIIOCDwRXwL8cv2HWk/Ym179kH9hvW4fggmp+f8AZbzSrXzEtlvbhp7tY13q0fnb5FDRurRBgI9oVQP0EooA+Xv2Nf2R/hN+w5+zt4e/Zt+DMDppGhRHzLibBuLy6lO6a5mYYBklcknHCjCqAqgD8eNQ/wCDf7w98T/2m/iZ8Uv2g/itr+s/Dfx/4rl8UyeAtJZ9MsLqeUh1F/IsrGcRklF2LG21QwdSxA/ooooA5vwd4O8J/Dzwpp3gXwJptto+i6Rbx2llY2cawwW8EQCpHGigKqqBgACukoooAKKK43xn8Q/A3w70t9Y8carbaZboM5nkCs3sq/eYnsFBJ7CgD4P/AG9dreJPBIB5WLVCR7E2uP5GvimvQ/jH8WZvjd8RJPFtvC9vpVpF9l0+OQYcxAktIw7NITnHZQoPINeeUAFFFFAEcv8Aqz9K+kP+CMUsY/ZJvLPP7yLxDfFl7gMsWP5GvnIjIxXkP7NH7Qsv7A/xe1fRPHsUsnw/8Vz+elxGN32SbPHGcADJz6jr2rqoLnhOmt3a3yOes+WUZvbX8T+leivFPC37SHwD8aaPFrvh3xhpE1tMMqzXccZ/75dlI/Kuk/4XH8Iv+hq0f/wOh/8Ai6wdOfZmynF7M9Hr8Evil/wSc/aa/ai+MPiT9pv4/fGq60X4g+HNWlb4TSeGoSul+GLGGYtFLPaSnF1PdxhVu1diCuV3uu0J+03/AAuP4Rf9DVo//gdD/wDF0f8AC4/hF/0NWj/+B0P/AMXR7OXYfMu5+DPgT9kz/grd8F/gdr/7MHh/wV8CfE3grxI+otqcT33iC1bUDqu77W08cnnBGn3MXSKQRjJ2gDivFviz/wAE7f8Agph8cde8G+JvGHwY/Zxk1H4f6daaT4fn1C98R3CWNjYNut4RHEyI6RHJUSK455zX9J//AAuP4Rf9DVo//gdD/wDF0f8AC4/hF/0NWj/+B0P/AMXR7OXYOZdz4X/b7/ZF+O37bP8AwT1n/ZkutZ0Sw8d6xHoE2qX+yePSzeaddW13dGFQJJljd4WEQYFgCNx6ms//AIK/fs/fGj9pv9i29+E3wD0T/hIPEM+v6BeraG5gtR5Fjfw3EzeZcSRR/KkZON2T0AJ4r74/4XH8Iv8AoatH/wDA6H/4uj/hcfwi/wChq0f/AMDof/i6PZy7BzLufmB/wUn/AGI/23P26NB1/wDZ78KfEXwv4c+EHiyLTo9RtLrSJrjWovsk8VxIYbhZliO94lIDJwCRnvX1R+3b8Hf2rvjp8IdP+En7KPjq0+Hcus6jFaeItbkheXULfRHjkE509lICXRbYqE4wGJV0YA19L/8AC4/hF/0NWj/+B0P/AMXR/wALj+EX/Q1aP/4HQ/8AxdHs5dg5l3P5/wC5/wCCN/7SH7KvjDwxqP7A/iTwx4q8IeENTOvaF4Y+J76if7F1eWIRXN1Z32mssj/aQCzwzxNCrFiFyxNdv40+CP8AwWA8eeONb+I3iX4T/AS91/xJ4bl8H6nfz6prjNc6HM7O9mwEa/umZmYgAHJ61+5P/C4/hF/0NWj/APgdD/8AF0f8Lj+EX/Q1aP8A+B0P/wAXR7OXYOZdz8mP+CUv7GH7Wf7HPiLxLofxM8G/CTwL4H1i3E6WXw+Orz6hcamrosb3U+pyODFHD5ihUP3mBAHzZ/OHX/8Agm7/AMFd/Ev7Dvxh/Zk0C58FaR4e8c+KNd1O30DUI3l1eaC/1EXSONQgumtYt4AYK0RZQCrcnj+oX/hcfwi/6GrR/wDwOh/+Lo/4XH8Iv+hq0f8A8Dof/i6PZy7BzLufhv4M/Y7/AOCqPgT9tD48/Gf4AeIPB/gfw38Qr3QJ7c+IbJtYkvf7O05bZmjFtcRmAI4YESDL5BHANdv8J/2Sf+CkK/8ABTnwH+05+1TrXhbxb4d8PeEdY0f+0fDtq2mC2lvXRkje3nnlklLFch0+VRwa/ZH/AIXH8Iv+hq0f/wADof8A4uj/AIXH8Iv+hq0f/wADof8A4uj2cuwcy7no9Fecf8Lj+EX/AENWj/8AgdD/APF0f8Lj+EX/AENWj/8AgdD/APF0ezl2DmXc9Hr8lP8Ags7LH/wyPaWuR5kniGwKr3IVZc4/MV+gHin9pD4B+C9Hl13xF4w0iG2hGWZbuOQ/98ozE/lX4K/tLftET/t7/FzSdB8BRSx/D7wrcfaHuJF2/a5ge3OCGwMeg/GunC05Rn7SSskc9eaceSL1Z6zF/qx9KkpAMDFLXGdIUUUUAfa37BRVPEnjZSfmeHTCB6hTdZ/mK/SKvxK+DnxZm+CPxEj8W3ET3GlXcX2XUI4xlxESCsiju0ZGcd1LAckV+wfgz4h+B/iJpiax4I1W21O3cZzBIGZfZl+8pHdWAI7igDsqKKKAOZ8a6Vr+u+DtW0TwpqI0fVLyyngs78xeeLW4kQrHN5e5N/lsQ23cu7GMjrX4EfDb/glP43+DvxP/AGcvg19gbxL8O/BPw78aeGPFuuxzQQBr3xMBJKVgklM5E8ry7SqSBQRvNf0O0UAfkP8AEj/gkB8O9V0XwhcfAb4o/ED4X+JvAfh2x8MaPq2ja1I6Np+mhhbxXdpJmCdF3HcqiPdnk13n7F+jf8FNvhl8WNX+E/7Yh8KeO/B/2Fryx+IOjINL1K8uo2iiSC/05QUMzRZbzIsRosYXcxIA/TyigDjfiLJ49h+H2uzfCuOym8Tpp902jpqW8WTX4jb7OJ/LIfyjLtEm0htucc1+Fmn/ALPX/BUn9qD9uf4EfHb9rfwn4I8G+G/gzd63fSy6Bqs97NfPqloIAqRSJ8uHRD8zDCljkkAH+gWigAooooAKKKKACvl/9svaf2dNcQnBabTwPci8gP8AIV9Iapq2laJZPqOs3MVpbxjLyzuI0Ue7MQB+dflv+1J+0PoXxYmtvh58OpheaPZzi4vL5M+XPKmQkcZ/iRSdxboxxt4BJAPluL/Vj6VJSAYGKWgAooooAKKKKACiiigAooooAKKKKACiiigAooooAqXwzboP+ni1/wDR8dfVum4AXP15x/jmvlS6G5Iox1a5tQPwmQ/0r6z0tBtAH/1+e1AHa6bGVIx7dOv513FgCNpHcVxunxnp17dK7iwToDxk55oA62yAz2/L1rqrXjGfrzj/APXXM2S5x6+9dXZgYwPy6HmgDoLUEEfh06/nW1BnAx6Vj2659zyOlbcIwfQk96ANSPBP4elaMZwOe3POO361QgGcY68f55rQi6ED/A4PagC1GMD8QOP8eKmXIXPqKrouVI79OlWz+RJ70AOQfP8A55qeoExuFT0AFFFFAH//1P7+KKKKAK3Qc+1Mf7hyenrT+3HH4ZprH06+2c/lQBA4yMnv3+tU5ARnI7HirbLhM9OnP/6utVpMcDoPpQBmzcDnpxWPcLwc9sj24rZl5XIHXPbPNZU2C2R19uvPtQBgXS8n3/Wucu1IHT14rp7hMDPT3/8A1da527UHPQDjtQByF6p2nPtXGX8fBz2yPbNd1eoSOO/tmuQvVG7I6+3UD6UAef6hHknIzn1/z/WvLvGGnHUdEu7A/wDLaJ1x9Qa9dv4cDPT3/wD1VxGow5yOADxjH9aAPjrS5Wn0y2lf75iUP7Ooww+oYEH6VerR8VaU3hXWJJJBt068cuj/AMMMrfeVuwVjyD2OfXjPKlTtYYNACUUUUAFFFFABRRRQAUUUUAFFFFABRRRQAUUUUAFc/q3hfQ9bG3UrdJR/tAGugooA81Pwk8BMctp0P/fA/wAKT/hUXgD/AKB0P/fA/wAK9LooA80/4VF4A/6B0P8A3wP8KP8AhUXgD/oHQ/8AfA/wr0uigDzT/hUXgD/oHQ/98D/Cj/hUXgD/AKB0P/fA/wAK9LooA80/4VF4A/6B0P8A3wP8KP8AhUXgD/oHQ/8AfA/wr0uigDzT/hUXgD/oHQ/98D/Cj/hUXgD/AKB0P/fA/wAK9LooA80/4VF4A/6B0P8A3wP8KP8AhUXgD/oHQ/8AfA/wr0uigDzT/hUXgD/oHQ/98D/Cj/hUXgD/AKB0P/fA/wAK9LooA80/4VF4A/6B0P8A3wP8KP8AhUXgD/oHQ/8AfA/wr0uigDzT/hUXgD/oHQ/98D/ClHwk8BKcrp0P/fA/wr0qigDn9J8L6Hog26bbpEP9kAV0FFFABRRRQAUUUUAZ2oaVYapEYb2JZFPZhmuJl+FHgSZi76dCSf8AYFej0UAeaf8ACovAH/QOh/74H+FH/CovAH/QOh/74H+Fel0UAeaf8Ki8Af8AQOh/74H+FH/CovAH/QOh/wC+B/hXpdFAHmn/AAqLwB/0Dof++B/hR/wqLwB/0Dof++B/hXpdFAHmn/CovAH/AEDof++B/hR/wqLwB/0Dof8Avgf4V6XRQB5p/wAKi8Af9A6H/vgf4Uf8Ki8Af9A6H/vgf4V6XRQB5p/wqLwB/wBA6H/vgf4Uf8Ki8Af9A6H/AL4H+Fel0UAeaf8ACovAH/QOh/74H+FH/CovAH/QOh/74H+Fel0UAeaf8Ki8Af8AQOh/74H+FH/CovAH/QOh/wC+B/hXpdFAHmn/AAqLwD/0Dof++B/hW1pfgPwto7+Zp9nFG3qqgGuxooARVVRtUYFLRRQAUUUUAFZWs6HpHiHT5NK1y2ju7eUYaOVQyn8DWrRQmB8u6j+xx+z9qV091PogVnOSEldR+ADVQ/4Yn/Z4/wCgM3/f6T/4qvrGit/rNX+d/eZewp/yo+Tv+GJ/2eP+gM3/AH+k/wDiqP8Ahif9nj/oDN/3+k/+Kr6xoo+s1v5394ewp/yo+Tv+GJ/2eP8AoDN/3+k/+Ko/4Yn/AGeP+gM3/f6T/wCKr6xoo+s1v5394ewp/wAqPk7/AIYn/Z4/6Azf9/pP/iqP+GJ/2eP+gM3/AH+k/wDiq+saKPrNb+d/eHsKf8qPk7/hif8AZ4/6Azf9/pP/AIqj/hif9nj/AKAzf9/pP/iq+saKPrNb+d/eHsKf8qPk7/hif9nj/oDN/wB/pP8A4qj/AIYn/Z4/6Azf9/pP/iq+saKPrNb+d/eHsKf8qPk7/hif9nj/AKAzf9/pP/iqP+GJ/wBnj/oDN/3+k/8Aiq+saKPrNb+d/eHsKf8AKj5O/wCGJ/2eP+gM3/f6T/4qj/hif9nj/oDN/wB/pP8A4qvrGij6zW/nf3h7Cn/Kj5O/4Yn/AGeP+gM3/f6T/wCKo/4Yn/Z4/wCgM3/f6T/4qvrGij6zW/nf3h7Cn/Kj5d079jj9n7TbpLqDRAzIcgPK7D8QWr6N0bQ9I8PafHpWh20dpbxDCxxKFUfgK1aKidWc/ibZUYRj8KsFFFFZlhRRRQAjKrDawyK4/VPAfhbWH8zULOKRvVlBNdjRQB5p/wAKi8A/9A6H/vgf4Uf8Ki8Af9A6H/vgf4V6XRQB5p/wqLwB/wBA6H/vgf4Uf8Ki8Af9A6H/AL4H+Fel0UAeaf8ACovAH/QOh/74H+FH/CovAH/QOh/74H+Fel0UAeaf8Ki8Af8AQOh/74H+FH/CovAH/QOh/wC+B/hXpdFAHmn/AAqLwB/0Dof++B/hR/wqLwB/0Dof++B/hXpdFAHmn/CovAH/AEDof++B/hR/wqLwB/0Dof8Avgf4V6XRQBwNn8MvBdhKJrawhVhyCEFdxBbw20YigUKo7CpqKACiiigAooooAKKKKACiiigAooooAKKKKACiiigAoopkssNvC1xcuI40GWZuAP8APagB9vbNfa1plgh5kuldh/sRAsT9A2386+ttPj+UZwccc9P1rwb4baBdXF03ijUI2iMi+XbRsMskZOSxHZnPJ9AAO1fROnJyCOvt1/KgDqtPjPHofWu1sEwAPxxXK6fDgBunTnt/9euzsoxwOAOB06UAdPZqQB6cV09sny8/TnpXP2inAwOvtnk109pwQe/t1oA3Lce3XufetqAY6+5xWTbJgA9Pf/8AVWxCB06DgdKANSLgc9Mj+lXVHykt9PaqcXOCB1z2zyavIehHX26/lQBaxjjse571P/nFV9uBnp05/wD1dasEdunagB6DBqaoU+8Dj1qagAooooA//9X+/iiiigCtjn/61Nc/L+v5frTgM4x1oAGMD8u/NAEBU9PoOP8AHiqcnQVcYZJA9x0qs4yD2Oc80AZsoGe35VmT5HXtzz7frWxKM8Dr/n1rMkUYOPr74PagDDnTnv8Ah1/PiudugSPwrpriMHI6nkdKw7pM5PTJzzQBx95GCTnH5df89a5O+XHX69vz9a7m7j7D9f8A69crdxcED/6/NAHAXsJB/wAOv51xV/Fx+Fej30GcjGTyOlchfw5J7EnvQB5VrOnW99C9tdxrIjghgwzkH17V4ZqXgK+0sn/hG7vZEAdtvcL5kY4/hIIcD0AbA9K+lr63z06/59a468tuCB/9fBoA+cZLLxtbEiWztZ+eqTNH/NGrMlvvF0X/ADCID/2+Ef8AtCvc72zzkYz1HSuWvLTk8ck55oA8jl1/xZGf+QNAf+30/wDxis+Xxb4si66HD/4HH/4xXo9zZ5OO/vXPz2XBAH/6jQBxz+N/FaH/AJAMJ+l8f/keqbfEHxUv/MAh/wDA8j/23rpJrDORjPbpWbNZcnjBJ7/5NAGM3xJ8VA/8i/D/AOB5/wDkeon+J3ilR/yL0P46h/8Ac9X3sSenX3/+vVQ2PHAx/PntQBCfif4qBx/wj0P4X5/+R6j/AOFp+Kh/zL0P/gef/kantp+cjHt0qNrHn3JzzQAn/C1fFGf+Reh/8GB/+R6D8VfFAH/Iuw/+DD/7npv2AnAA59//AK9MFhxgce3fB7UATf8AC1PFOf8AkXYfw1A//I9J/wALV8U/9C7D/wCDA/8AyPUJ0/PH4dKcbE59yc80ASf8LV8UZ/5F6H/wYH/5HoPxV8UAf8i7D/4MP/ueohYk4A6+/wD9egWHGB/9fBoAm/4Wp4pz/wAi7D+GoH/5HpP+Fq+Kf+hdh/8ABgf/AJHqE6fnj8OlONic+5OeaAJP+Fq+KM/8i9D/AODA/wDyPQfir4oA/wCRdh/8GH/3PUQsScAdff8A+vQLDjA/+vg0ATf8LU8U5/5F2H8NQP8A8j0n/C1fFP8A0LsP/gwP/wAj1CdPzx+HSnGxOfcnPNAEn/C1fFGf+Reh/wDBgf8A5HoPxV8UAf8AIuw/+DD/AO56iFiTgDr7/wD16BYcYH/18GgCb/haninP/Iuw/hqB/wDkek/4Wr4p/wChdh/8GB/+R6hOn54/DpTjYnPuTnmgCT/havijP/IvQ/8AgwP/AMj0H4q+KAP+Rdh/8GH/ANz1ELEnAHX3/wDr0Cw4wP8A6+DQBN/wtTxTn/kXYfw1A/8AyPSf8LV8U/8AQuw/+DA//I9QnT88fh0pxsTn3JzzQBJ/wtXxRn/kXof/AAYH/wCR6D8VfFAH/Iuw/wDgw/8AueohYk4A6+//ANegWHGB/wDXwaAJv+FqeKc/8i7D+GoH/wCR6T/havin/oXYf/Bgf/keoTp+ePw6U42Jz7k55oAk/wCFq+KM/wDIvQ/+DA//ACPQfir4oA/5F2H/AMGH/wBz1ELEnAHX3/8Ar0Cw4wP/AK+DQBN/wtTxTn/kXYfw1A//ACPSf8LV8U/9C7D/AODA/wDyPUJ0/PH4dKcbE59yc80ASf8AC1fFGf8AkXof/Bgf/keg/FXxQB/yLsP/AIMP/ueohYk4A6+//wBegWHGB/8AXwaAJv8AhaninP8AyLsP4agf/kek/wCFq+Kf+hdh/wDBgf8A5HqE6fnj8OlONic+5OeaAJP+Fq+KM/8AIvQ/+DA//I9B+KvigD/kXYf/AAYf/c9RCxJwB19//r0Cw4wP/r4NAE3/AAtTxTn/AJF2H8NQP/yPSf8AC1fFP/Quw/8AgwP/AMj1CdPzx+HSnGxOfcnPNAEn/C1fFGf+Reh/8GB/+R6D8VfFAH/Iuw/+DD/7nqIWJOAOvv8A/XoFhxgf/XwaAJv+FqeKc/8AIuw/hqB/+R6T/havin/oXYf/AAYH/wCR6hOn54/DpTjYnPuTnmgCT/havijP/IvQ/wDgwP8A8j0H4q+KAP8AkXYf/Bh/9z1ELEnAHX3/APr0Cw4wP/r4NAE3/C1PFOf+Rdh/DUD/API9J/wtXxT/ANC7D/4MD/8AI9QnT88fh0pxsTn3JzzQBJ/wtXxRn/kXof8AwYH/AOR6D8VfFAH/ACLsP/gw/wDueohYk4A6+/8A9egWHGB/9fBoAm/4Wp4pz/yLsP4agf8A5HpP+Fq+Kf8AoXYf/Bgf/keoTp+ePw6U42Jz7k55oAk/4Wr4oz/yL0P/AIMD/wDI9B+KvigD/kXYf/Bh/wDc9RCxJwB19/8A69AsOMD/AOvg0ATf8LU8U5/5F2H8NQP/AMj0n/C1fFP/AELsP/gwP/yPUJ0/PH4dKcbE59yc80ASf8LV8UZ/5F6H/wAGB/8Akeg/FXxQB/yLsP8A4MP/ALnqIWJOAOvv/wDXoFhxgf8A18GgCb/haninP/Iuw/hqB/8Akek/4Wr4p/6F2H/wYH/5HqE6fnj8OlONic+5OeaAJP8AhavijP8AyL0P/gwP/wAj0H4q+KAP+Rdh/wDBh/8Ac9RCxJwB19//AK9AsOMD/wCvg0ATf8LU8U5/5F2H8NQP/wAj0n/C1fFP/Quw/wDgwP8A8j1CdPzx+HSnGxOfcnPNAEn/AAtXxRn/AJF6H/wYH/5HoPxV8UAf8i7D/wCDD/7nqIWJOAOvv/8AXoFhxgf/AF8GgCb/AIWp4pz/AMi7D+GoH/5HpP8Ahavin/oXYf8AwYH/AOR6hOn54/DpTjYnPuTnmgCT/havijP/ACL0P/gwP/yPQfir4oA/5F2H/wAGH/3PUQsScAdff/69AsOMD/6+DQBN/wALU8U5/wCRdh/DUD/8j0n/AAtXxT/0LsP/AIMD/wDI9QnT88fh0pxsTn3JzzQBJ/wtXxRn/kXof/Bgf/keg/FXxQB/yLsP/gw/+56iFiTgDr7/AP16BYcYH/18GgCb/haninP/ACLsP4agf/kek/4Wr4p/6F2H/wAGB/8AkeoTp+ePw6U42Jz7k55oAk/4Wr4oz/yL0P8A4MD/API9B+KvigD/AJF2H/wYf/c9RCxJwB19/wD69AsOMD/6+DQBN/wtTxTn/kXYfw1A/wDyPSf8LV8U/wDQuw/+DA//ACPUJ0/PH4dKcbE59yc80ASf8LV8UZ/5F6H/AMGB/wDkeg/FXxQB/wAi7D/4MP8A7nqIWJOAOvv/APXoFhxgf/XwaAJv+FqeKc/8i7D+GoH/AOR6T/havin/AKF2H/wYH/5HqE6fnj8OlONic+5OeaAJP+Fq+KM/8i9D/wCDA/8AyPQfir4oA/5F2H/wYf8A3PUQsScAdff/AOvQLDjA/wDr4NAE3/C1PFOf+Rdh/DUD/wDI9J/wtXxT/wBC7D/4MD/8j1CdPzx+HSnGxOfcnPNAEn/C1fFGf+Reh/8ABgf/AJHoPxV8UAf8i7D/AODD/wC56iFiTgDr7/8A16BYcYH/ANfBoAm/4Wp4pz/yLsP4agf/AJHpP+Fq+Kf+hdh/8GB/+R6hOn54/DpTjYnPuTnmgCT/AIWr4oz/AMi9D/4MD/8AI9B+KvigD/kXYf8AwYf/AHPUQsScAdff/wCvQLDjA/8Ar4NAE3/C1PFOf+Rdh/DUD/8AI9J/wtXxT/0LsP8A4MD/API9QnT88fh0pxsTn3JzzQBJ/wALV8UZ/wCReh/8GB/+R6D8VfFAH/Iuw/8Agw/+56iFiTgDr7//AF6BYcYH/wBfBoAm/wCFqeKc/wDIuw/hqB/+R6T/AIWr4p/6F2H/AMGB/wDkeoTp+ePw6U42Jz7k55oAk/4Wr4oz/wAi9D/4MD/8j0H4q+KAP+Rdh/8ABh/9z1ELEnAHX3/+vQLDjA/+vg0ATf8AC1PFOf8AkXYfw1A//I9J/wALV8U/9C7D/wCDA/8AyPUJ0/PH4dKd9hOfcnPNAEo+Knignjw9D/4MD/8AI1Kfin4pA/5F2H8dQP8A8j0wWPTjn/PrTkseMDj+eDQBMPif4qJ/5F6Hr2vz/wDI9OHxM8VH/mX4f/A8/wDyPTBp/YjnpwKsrYkHkYJOef8AJoAF+I/ipj/yAIf/AAPP/wAj1YX4geKmH/IAhH/b+f8A5HqSKxOQMc/59avwWPHA/wAcGgCBPGvitz/yAoeva+P/AMj1bi8VeLZMf8SSEZ5/4/j/API9aEVhnjHPTp+lbdvZ89MEnPNAGJFrXiyU4GjwD/t9P/yPWnDc+Lpf+YTAv1vCf/aNdRaWecY6/wCfWumsrTjAH9Dg0AcNb6R43u3AENpbg46s82Py8uu60HwBCLmO/wBena+mjO5FYbY0PqqDjPXk5Pviuqs7TtjPbpXYWdtyPUnvQBrafbgYGAPwrtrGPGM/XnH6d6xLC3zgDr712GnwcAD/AOvg0Ab+nwkEfgOK66yQ4H0+lYVlB26np0rrbSP8CTnmgDbtEHt+XWult+Mbs8c/l+OaxrSPpjr+ddDaoAMD/IPagDYt1I4Gew4/xrVhzx9KzoY+3XqOla0S/gSe9AF2MAnt09Kvr0A/Hn/OaqxjOAOCfX/69W4gBwv/ANfBoAsAc4+g46/nxUueOPSo1XJI79OlSn8iT3oAcg+f/PNT1AmNwqegAooooA//1v7+KKKKAIXGDntkVGenPap3+7UOeeP/AK9AELA55HU/nUDjBwfy9qsOMfN06c1DIPoB06UAUXHHOcDFZsycfN2yK1ZFz07+2eTVGTlsjr7dfyoAxJ09e9YlxHjgj14roposDPT3/wD1dayLhM5B4HTpQByt1HgHPTiuYvIcg59x7ZrtbmLPIHX2zya565i+bI6+3X8qAODvIc5461yd7b9iOueK9DurbAz09/8APWuYvLfOR0/CgDza9tuDnpxXJXtpwc9s/SvTry1J5A6+2ea5e6tctkdfbr+VAHmF5Znnjr3/AMiuZurIjjHrxXp9zY4GcY96526scnHQfSgDzC5ssZz04rCubDg5HTI9q9OuLAnkDr7Z5NY01iC2QOR6daAPNJrAk8jr39azZNPI4x68e1ekSabgZxj3/wD1daz5dOHIwADx0oA86fT/AFHAxVR9O4yw6ZHtXoj6bkjA/TPJqs2n5fgdPTrQB5+2nEnkcH9aiNht42137abgdMdOe36VH/Zo6YwPpQBwP9nt3zjimHTOMsPXr0r0H+zSeg6+2etRGwO/gcj060AcJ/Zmeo6/rR/ZmOMevFdz/ZrAZ6dOcf4daP7OP0H0oA4f+zcDkccU06ZxyOmR7V3X9nMeg6+2eTQNPO7I6+3WgDhv7Mz1HX9aP7Mxxj14ruRppAz09/8A9XWj+zj9B9KAOH/s3A5HHFNOmccjpke1d1/ZzHoOvtnk0DTzuyOvt1oA4b+zM9R1/Wj+zMcY9eK7kaaQM9Pf/wDV1o/s4/QfSgDh/wCzcDkccU06ZxyOmR7V3X9nMeg6+2eTQNPO7I6+3WgDhv7Mz1HX9aP7Mxxj14ruRppAz09//wBXWj+zj9B9KAOH/s3A5HHFNOmccjpke1d1/ZzHoOvtnk0DTzuyOvt1oA4b+zM9R1/Wj+zMcY9eK7kaaQM9Pf8A/V1o/s4/QfSgDh/7NwORxxTTpnHI6ZHtXdf2cx6Dr7Z5NA087sjr7daAOG/szPUdf1o/szHGPXiu5GmkDPT3/wD1daP7OP0H0oA4f+zcDkccU06ZxyOmR7V3X9nMeg6+2eTQNPO7I6+3WgDhv7Mz1HX9aP7Mxxj14ruRppAz09//ANXWj+zj9B9KAOH/ALNwORxxTTpnHI6ZHtXdf2cx6Dr7Z5NA087sjr7daAOG/szPUdf1o/szHGPXiu5GmkDPT3//AFdaP7OP0H0oA4f+zcDkccU06ZxyOmR7V3X9nMeg6+2eTQNPO7I6+3WgDhv7Mz1HX9aP7Mxxj14ruRppAz09/wD9XWj+zj9B9KAOH/s3A5HHFNOmccjpke1d1/ZzHoOvtnk0DTzuyOvt1oA4b+zM9R1/Wj+zMcY9eK7kaaQM9Pf/APV1o/s4/QfSgDh/7NwORxxTTpnHI6ZHtXdf2cx6Dr7Z5NA087sjr7daAOG/szPUdf1o/szHGPXiu5GmkDPT3/8A1daP7OP0H0oA4f8As3A5HHFNOmccjpke1d1/ZzHoOvtnk0DTzuyOvt1oA4b+zM9R1/Wj+zMcY9eK7kaaQM9Pf/8AV1o/s4/QfSgDh/7NwORxxTTpnHI6ZHtXdf2cx6Dr7Z5NA087sjr7daAOG/szPUdf1o/szHGPXiu5GmkDPT3/AP1daP7OP0H0oA4f+zcDkccU06ZxyOmR7V3X9nMeg6+2eTQNPO7I6+3WgDhv7Mz1HX9aP7Mxxj14ruRppAz09/8A9XWj+zj9B9KAOH/s3A5HHFNOmccjpke1d1/ZzHoOvtnk0DTzuyOvt1oA4b+zM9R1/Wj+zMcY9eK7kaaQM9Pf/wDV1o/s4/QfSgDh/wCzcDkccU06ZxyOmR7V3X9nMeg6+2eTQNPO7I6+3WgDhv7Mz1HX9aP7Mxxj14ruRppAz09//wBXWj+zj9B9KAOH/s3A5HHFNOmccjpke1d1/ZzHoOvtnk0DTzuyOvt1oA4b+zM9R1/Wj+zMcY9eK7kaaQM9Pf8A/V1o/s4/QfSgDh/7NwORxxTTpnHI6ZHtXdf2cx6Dr7Z5NA087sjr7daAOG/szPUdf1o/szHGPXiu5GmkDPT3/wD1daP7OP0H0oA4f+zcDkccU06ZxyOmR7V3X9nMeg6+2eTQNPO7I6+3WgDhv7Mz1HX9aP7Mxxj14ruRppAz09//ANXWj+zj9B9KAOH/ALNwORxxTTpnHI6ZHtXdf2cx6Dr7Z5NA087sjr7daAOG/szPUdf1o/szHGPXiu5GmkDPT3//AFdaP7OP0H0oA4f+zcDkccU06ZxyOmR7V3X9nMeg6+2eTQNPO7I6+3WgDhv7Mz1HX9aP7Mxxj14ruRppAz09/wD9XWj+zj9B9KAOH/s3A5HHFNOmccjpke1d1/ZzHoOvtnk0DTzuyOvt1oA4b+zM9R1/Wj+zMcY9eK7kaaQM9Pf/APV1o/s4/QfSgDh/7NwORxxTTpnHI6ZHtXdf2cx6Dr7Z5NA087sjr7daAOG/szPUdf1o/szHGPXiu5GmkDPT3/8A1daP7OP0H0oA4f8As3A5HHFNOmccjpke1d1/ZzHoOvtnk0DTzuyOvt1oA4b+zM9R1/Wj+zMcY9eK7kaaQM9Pf/8AV1o/s4/QfSgDh/7NwORxxTTpnHI6ZHtXdf2cx6Dr7Z5NA087sjr7daAOG/szPUdf1pRppHGPXiu5GnMBnp74/wA5p66dn5SAPwoA4UaeV65I4p39n5HzAccc9M13f9mk9B19s9aBp3zZA59utAHFDTyDyMg+tTpp5XjHB7V2i6aMbsY6c/8A6utTJp2flPA44xQByEen44I44q7Hp/HI6Z+ma6uPTiRwP0z1q9FYfNkDnrx1/KgDmorDnkcH17/pWxb2BHBHrxW9DpuMHGOnP+eta0Gn9scfSgDJtrLHXpxXRWtlgc9sj2q9b2PQgYz7Z5rftLP5gQOfbr+VAEVpZ8jI6+vf9K6uytCMDH4Uy0scAHGPf/8AV1rp7S0HA6DpjH9aALNlbYAz04rq7O3wOfce1U7S2OAQOvtmuos4PmBHUemc/lQBo2cJyMjr611FpERjj8KzLO3wAenv/wDq610ltCOB0HTpQBp20eAM9OK3YE4+btn6Vn28fAwOvtmty3GGBHX26/l9aAL8Kc89+9acK4x+JxVOGPAB6e//AOrrWjGoPHTPtQBbjGMA5xxVpRwc9uPaoEGfmHf2zVpT0x19uv5UASqDnJ79/WpP84piLhc9PenkdunagCWNSOTUlFFABRRRQB//1/7+KKKKAGv92oCR/XnFWar7dp2j/OaAGkcY+nTrVc8r+FWCMjHf6VEeD6HOeaAKcgB54/Kqcox1z6jPr/OtFl5x6/571TZeCo7fng9qAMuSMg9+PTrWRMnH4VvSx5yO5z271nTJ7ck55oA5q4iBJ/wrCuo8dfrzXWzR56df8+tY00PBA/wOD2oA424t+eOOnTqPxrm7u34+oru7m3zkYyenSsK6tuvqTnmgDz66tQSc/wAq527tcde3PP8AnNejXFoD9fesGezBBAGP589qAPN7ixIPfPHTqPxrn7iyPYdvpXpdxY5yMZ6jpWPcWPJ45Jzz/k0AeZT2AJPA/L/IrJnscckHjnnHXt716ZNYZ/Gst9P4wB746de1AHmz6aQeAeMDiqD6ceBjt9K9Jk0zPy4yee1VH07ktjknPNAHmx00Ficfp/8AqqudOx1HTnn/ADmvRzpvHA5/z61ANN4wB/jg9qAPOm0zD9PTp16fhUf9mnHTtXoT6XliMZ7dKDpvPTBJzzQB59/ZoJ6D8qifTCDnB9f8969FGm5wAOff/wCvQNN4wB/jg9qAPOP7LIPQ9unX+lN/s046dq9IOl54xnt0px03npgk55oA82/s0E9B+VB07HUdOef85r0gabnAA59//r0DTeMAf44PagDzgaZg9PTp1/pTf7NOOnavSDpeeMZ7dKcdN56YJOeaAPNv7NBPQflQdOx1HTnn/Oa9IGm5wAOff/69A03jAH+OD2oA84GmYPT06df6U3+zTjp2r0g6XnjGe3SnHTeemCTnmgDzb+zQT0H5UHTsdR055/zmvSBpucADn3/+vQNN4wB/jg9qAPOBpmD09OnX+lN/s046dq9IOl54xnt0px03npgk55oA82/s0E9B+VB07HUdOef85r0gabnAA59//r0DTeMAf44PagDzgaZg9PTp1/pTf7NOOnavSDpeeMZ7dKcdN56YJOeaAPNv7NBPQflQdOx1HTnn/Oa9IGm5wAOff/69A03jAH+OD2oA84GmYPT06df6U3+zTjp2r0g6XnjGe3SnHTeemCTnmgDzb+zQT0H5UHTsdR055/zmvSBpucADn3/+vQNN4wB/jg9qAPOBpmD09OnX+lN/s046dq9IOl54xnt0px03npgk55oA82/s0E9B+VB07HUdOef85r0gabnAA59//r0DTeMAf44PagDzgaZg9PTp1/pTf7NOOnavSDpeeMZ7dKcdN56YJOeaAPNv7NBPQflQdOx1HTnn/Oa9IGm5wAOff/69A03jAH+OD2oA84GmYPT06df6U3+zTjp2r0g6XnjGe3SnHTeemCTnmgDzb+zQT0H5UHTsdR055/zmvSBpucADn3/+vQNN4wB/jg9qAPOBpmD09OnX+lN/s046dq9IOl54xnt0px03npgk55oA82/s0E9B+VB07HUdOef85r0gabnAA59//r0DTeMAf44PagDzgaZg9PTp1/pTf7NOOnavSDpeeMZ7dKcdN56YJOeaAPNv7NBPQflQdOx1HTnn/Oa9IGm5wAOff/69A03jAH+OD2oA84GmYPT06df6U3+zTjp2r0g6XnjGe3SnHTeemCTnmgDzb+zQT0H5UHTsdR055/zmvSBpucADn3/+vQNN4wB/jg9qAPOBpmD09OnX+lN/s046dq9IOl54xnt0px03npgk55oA82/s0E9B+VB07HUdOef85r0gabnAA59//r0DTeMAf44PagDzgaZg9PTp1/pTf7NOOnavSDpeeMZ7dKcdN56YJOeaAPNv7NBPQflQdOx1HTnn/Oa9IGm5wAOff/69A03jAH+OD2oA84GmYPT06df6U3+zTjp2r0g6XnjGe3SnHTeemCTnmgDzb+zQT0H5UHTsdR055/zmvSBpucADn3/+vQNN4wB/jg9qAPOBpmD09OnX+lN/s046dq9IOl54xnt0px03npgk55oA82/s0E9B+VB07HUdOef85r0gabnAA59//r0DTeMAf44PagDzgaZg9PTp1/pTf7NOOnavSDpeeMZ7dKcdN56YJOeaAPNv7NBPQflQdOx1HTnn/Oa9IGm5wAOff/69A03jAH+OD2oA84GmYPT06df6U3+zTjp2r0g6XnjGe3SnHTeemCTnmgDzb+zQT0H5UHTsdR055/zmvSBpucADn3/+vQNN4wB/jg9qAPOBpmD09OnX+lN/s046dq9IOl54xnt0px03npgk55oA82/s0E9B+VB07HUdOef85r0gabnAA59//r0DTeMAf44PagDzgaZg9PTp1/pTf7NOOnavSDpeeMZ7dKcdN56YJOeaAPNv7NBPQflQdOx1HTnn/Oa9IGm5wAOff/69A03jAH+OD2oA84GmYPT06df6U3+zTjp2r0g6XnjGe3SnHTeemCTnmgDzb+zQT0H5UHTsdR055/zmvSBpucADn3/+vQNN4wB/jg9qAPOBpmD09OnX+lN/s046dq9IOl54xnt0px03npgk55oA82/s0E9B+VB07HUdOef85r0gabnAA59//r0DTeMAf44PagDzgaZg9PTp1/pTf7NOOnavSDpeeMZ7dKcdN56YJOeaAPNv7NBPQflQdOx1HTnn/Oa9IGm5wAOff/69A03jAH+OD2oA84GmYPT06df6U3+zTjp2r0g6XnjGe3SnHTeemCTnmgDzb+zQT0H5UHTsdR055/zmvSBpucADn3/+vQNN4wB/jg9qAPORpZzwDxjoP68U5NLYc4xxXoZ0vPGM9ulOOm89MEnPNAHn39mgnoPyoOnY6jpzz/nNegDTc4AHPv8A/XoGm8YA/wAcHtQBwkWmYPT06df6VImmnI47f0ruk0vORjPbpU39nYOcY5zzQBxCaaN3T9KuJp+MEjpz2/8A112i6b8wwOff/wCvVmLTR90D/HntQByUWmkHoeMdOv8AStKGwPGB2rp49Nzxj26Voxafg9MHPegDnoLDnoPyrct7PGMg+vP+c1tQWGcYHP8An1rWtrEY4H9DzQBn2tjgj2x0/wAa6C1tDgfSrUFjnjGT06f0ret7Tnp1OeaAIba1Ge35f5FdJbQ4wT255x/+ukt7UcY6+/8A9et21tgBgf8A1+e1AE9rBgj8OnX8+K3beLgfSoILfjGOenStuGLn0JOeaALEEQz/APW//VWxEuMZzxzz/nNV4IumOvof/r1pwR8YH/18GgC1DGQeM9hx1H41djBAz7fSoI488dzwOKvovPpznmgCVVGccflVjPQf4dv1qOMZ57+//wBepoxnp+XfntQBKB2+g4pM8celBGRjv9KlQAkkj3oAlooooAKKKKAP/9D+/iiiigAqCUdz+tT0jcjigCuffvTGHt+FO245PB9aUjt26UAVnHH0xVWRcrk9sj2q6QR26+2etQtw2R+nX8qAM6RM9ejd6oSJ2I/CtZo8D0z3/wD1VUkTt09sUAYkseBg9OP89ayZ4cjntke1dHJHkZA6+2eTWfIgLZHX260AcvPBnqOvc1jzW/bHrxXWy2/GenvWZNADxjA/z3oA4ye1456cVi3Fnwc+/biu5mtsjgdfbNZkttlsjr7dfyoA4Oay9R19aypbHtj14rvZbLAzjHvWdLZA8dvpQBwEtj69OKzpdPGOR0z9M16DJY56Dr7Z61Seyy2QOfbqKAPP5NOPcdaqvp38OPXiu/bT8DOMdOf89artp/YDA+lAHAPp3btxUTabhcsOmR7Zrvjp/wDdHX2zzUZsMtux+XWgDz9tNJOSOtJ/ZmOMevFd9/ZygZxj3x/nNNNh2AAH0oA4T+zcDkccU1tNwPmA7jnpmu7/ALPY9B19s9aaNO+bIHPt1oA4b+zh3HX9aP7OHTHrxXcjS8DOMe+P8OtH9mjpjA+lAHD/ANnADnpxTTpwxzjjI9q7r+zSeg6+2etA075sgc+3WgDhv7OHcdf1o/s4dMevFdyNLwM4x74/w60f2aOmMD6UAcP/AGcAOenFNOnDHOOMj2ruv7NJ6Dr7Z60DTvmyBz7daAOG/s4dx1/Wj+zh0x68V3I0vAzjHvj/AA60f2aOmMD6UAcP/ZwA56cU06cMc44yPau6/s0noOvtnrQNO+bIHPt1oA4b+zh3HX9aP7OHTHrxXcjS8DOMe+P8OtH9mjpjA+lAHD/2cAOenFNOnDHOOMj2ruv7NJ6Dr7Z60DTvmyBz7daAOG/s4dx1/Wj+zh0x68V3I0vAzjHvj/DrR/Zo6YwPpQBw/wDZwA56cU06cMc44yPau6/s0noOvtnrQNO+bIHPt1oA4b+zh3HX9aP7OHTHrxXcjS8DOMe+P8OtH9mjpjA+lAHD/wBnADnpxTTpwxzjjI9q7r+zSeg6+2etA075sgc+3WgDhv7OHcdf1o/s4dMevFdyNLwM4x74/wAOtH9mjpjA+lAHD/2cAOenFNOnDHOOMj2ruv7NJ6Dr7Z60DTvmyBz7daAOG/s4dx1/Wj+zh0x68V3I0vAzjHvj/DrR/Zo6YwPpQBw/9nADnpxTTpwxzjjI9q7r+zSeg6+2etA075sgc+3WgDhv7OHcdf1o/s4dMevFdyNLwM4x74/w60f2aOmMD6UAcP8A2cAOenFNOnDHOOMj2ruv7NJ6Dr7Z60DTvmyBz7daAOG/s4dx1/Wj+zh0x68V3I0vAzjHvj/DrR/Zo6YwPpQBw/8AZwA56cU06cMc44yPau6/s0noOvtnrQNO+bIHPt1oA4b+zh3HX9aP7OHTHrxXcjS8DOMe+P8ADrR/Zo6YwPpQBw/9nADnpxTTpwxzjjI9q7r+zSeg6+2etA075sgc+3WgDhv7OHcdf1o/s4dMevFdyNLwM4x74/w60f2aOmMD6UAcP/ZwA56cU06cMc44yPau6/s0noOvtnrQNO+bIHPt1oA4b+zh3HX9aP7OHTHrxXcjS8DOMe+P8OtH9mjpjA+lAHD/ANnADnpxTTpwxzjjI9q7r+zSeg6+2etA075sgc+3WgDhv7OHcdf1o/s4dMevFdyNLwM4x74/w60f2aOmMD6UAcP/AGcAOenFNOnDHOOMj2ruv7NJ6Dr7Z60DTvmyBz7daAOG/s4dx1/Wj+zh0x68V3I0vAzjHvj/AA60f2aOmMD6UAcP/ZwA56cU06cMc44yPau6/s0noOvtnrQNO+bIHPt1oA4b+zh3HX9aP7OHTHrxXcjS8DOMe+P8OtH9mjpjA+lAHD/2cAOenFNOnDHOOMj2ruv7NJ6Dr7Z60DTvmyBz7daAOG/s4dx1/Wj+zh0x68V3I0vAzjHvj/DrR/Zo6YwPpQBw/wDZwA56cU06cMc44yPau6/s0noOvtnrQNO+bIHPt1oA4b+zh3HX9aP7OHTHrxXcjS8DOMe+P8OtH9mjpjA+lAHD/wBnADnpxTTpwxzjjI9q7r+zSeg6+2etA075sgc+3WgDhv7OHcdf1o/s4dMevFdyNLwM4x74/wAOtH9mjpjA+lAHD/2cAOenFNOnDHOOMj2ruv7NJ6Dr7Z60DTvmyBz7daAOG/s4dx1/Wj+zh0x68V3I0vAzjHvj/DrR/Zo6YwPpQBw/9nADnpxTTpwxzjjI9q7r+zSeg6+2etA075sgc+3WgDhv7OHcdf1o/s4dMevFdyNLwM4x74/w60f2aOmMD6UAcP8A2cAOenFNOnDHOOMj2ruv7NJ6Dr7Z60DTvmyBz7daAOG/s4dx1/Wj+zh0x68V3I0vAzjHvj/DrR/Zo6YwPpQBw/8AZwA56cU06cMc44yPau6/s0noOvtnrQNO+bIHPt1oA4b+zh3HX9aP7OHTHrxXcjS8DOMe+P8ADrR/Zo6YwPpQBw/9nADnpxTTpwxzjjI9q7r+zSeg6+2etA075sgc+3WgDhv7OHcdf1o/s4dMevFdyNLwM4x74/w60f2aOmMD6UAcP/ZwA56cU06cMc44yPau6/s0noOvtnrQNO+bIHPt1oA4b+zh3HX9aUabjjH4V3A0vAzjHvj/AA60v9m+2PwoA4f+zcDkccU06ZxyOmR7V3f9nseQOvtnrThYjdnHPt1/KgDhl07B5HB9alGm44x+FdsNNUDPT3/z1qQafjjGB6YoA4tNOyOe2KnXTvl5HTI9q7FdPzggYJ9s8mp0sRuz3Hp1/KgDk00/nJHB9f8A9VXotPxgY9ePaunTT8c4weOe36VbSxHTGB6Y6UAc9FY469OK0orHA5HqPat2OyzjA6+2eT/KtCK0G4EdR6dfyoAyYbM55HX1/wD1VrwWmMDH4VoQ2WADjHTmtSK1HToOnSgCpBbYAz04rYht+Mn3HPSporfpgdfbPJrUhhG4Edfbr+VACQwe3X/PpWrBFtwPrxSQwYAPTpz2rSiiHTp+FAD4o8DnoMVfSPjn3HtTI4+mB19s81ejUbuPxx1/KgCRFPU96tIpA2/Xio40wN3T3/8A1VZRe54HTpQBIBtGO3FSAYXn/wCtTVBJBA/TPNS554/+vQAH371LGMDPrUSoT06+tWaACiiigAooooA//9H+/iiiigAooooAhdefr6VHnjj0qw67lK+tQH8iT3oAY65OR1+lRMRjn6/l+tWAM4x1qIrgfL09Oh57UAVimDtOe3Tr+dVHU4x0OK0GTcMd+QOKhdc8Hg5zzQBlyICT0z34qnInr9ecf/rrXZM8dD7/AP16rGMYwOP8D2oAxHhwe/4dRWdJDx+FdBJDnIxk8jpzVWSLn3Jzz/k0Ac1Lbgnt+VUJYPX684//AF11DwZ+vvVNrcYwP8Dg0Acq9pg9/wAOv51QktP5f59q62S1zkY56dO9VntuenJOeaAOPkswT0/TrVWS0x1HTnn2/Wuxa1zjHWqxtRjAH9DzQByBsMHp0wOKrtZZHTt06V2LWXbGTyOneo2s+enOc80AcabEE9vyqNrIDkgnvz7frXZfY/wPv/8AXqMWYxgD8M84PagDkf7PI7dMdP8AHio/sRI9OK7A2IPGPUdKU2fPTBJzzQBx32HJ7flTTZY6545rsfsfTHX6f40gs+MAH+uDQByAsMHv26dfzpv2Hj8PeuwNjnjBPbpTjZnPTBJzzQBx32EE/wD1qDZY65455/zmuwFmTjHX3/8Ar0Cz4wAf64NAHICwwe/bp1/Om/YePw967A2OeME9ulONmc9MEnPNAHHfYQT/APWoNljrnjnn/Oa7AWZOMdff/wCvQLPjAB/rg0AcgLDB79unX86b9h4/D3rsDY54wT26U42Zz0wSc80Acd9hBP8A9ag2WOueOef85rsBZk4x19//AK9As+MAH+uDQByAsMHv26dfzpv2Hj8PeuwNjnjBPbpTjZnPTBJzzQBx32EE/wD1qDZY65455/zmuwFmTjHX3/8Ar0Cz4wAf64NAHICwwe/bp1/Om/YePw967A2OeME9ulONmc9MEnPNAHHfYQT/APWoNljrnjnn/Oa7AWZOMdff/wCvQLPjAB/rg0AcgLDB79unX86b9h4/D3rsDY54wT26U42Zz0wSc80Acd9hBP8A9ag2WOueOef85rsBZk4x19//AK9As+MAH+uDQByAsMHv26dfzpv2Hj8PeuwNjnjBPbpTjZnPTBJzzQBx32EE/wD1qDZY65455/zmuwFmTjHX3/8Ar0Cz4wAf64NAHICwwe/bp1/Om/YePw967A2OeME9ulONmc9MEnPNAHHfYQT/APWoNljrnjnn/Oa7AWZOMdff/wCvQLPjAB/rg0AcgLDB79unX86b9h4/D3rsDY54wT26U42Zz0wSc80Acd9hBP8A9ag2WOueOef85rsBZk4x19//AK9As+MAH+uDQByAsMHv26dfzpv2Hj8PeuwNjnjBPbpTjZnPTBJzzQBx32EE/wD1qDZY65455/zmuwFmTjHX3/8Ar0Cz4wAf64NAHICwwe/bp1/Om/YePw967A2OeME9ulONmc9MEnPNAHHfYQT/APWoNljrnjnn/Oa7AWZOMdff/wCvQLPjAB/rg0AcgLDB79unX86b9h4/D3rsDY54wT26U42Zz0wSc80Acd9hBP8A9ag2WOueOef85rsBZk4x19//AK9As+MAH+uDQByAsMHv26dfzpv2Hj8PeuwNjnjBPbpTjZnPTBJzzQBx32EE/wD1qDZY65455/zmuwFmTjHX3/8Ar0Cz4wAf64NAHICwwe/bp1/Om/YePw967A2OeME9ulONmc9MEnPNAHHfYQT/APWoNljrnjnn/Oa7AWZOMdff/wCvQLPjAB/rg0AcgLDB79unX86b9h4/D3rsDY54wT26U42Zz0wSc80Acd9hBP8A9ag2WOueOef85rsBZk4x19//AK9As+MAH+uDQByAsMHv26dfzpv2Hj8PeuwNjnjBPbpTjZnPTBJzzQBx32EE/wD1qDZY65455/zmuwFmTjHX3/8Ar0Cz4wAf64NAHICwwe/bp1/Om/YePw967A2OeME9ulONmc9MEnPNAHHfYQT/APWoNljrnjnn/Oa7AWZOMdff/wCvQLPjAB/rg0AcgLDB79unX86b9h4/D3rsDY54wT26U42Zz0wSc80Acd9hBP8A9ag2WOueOef85rsBZk4x19//AK9As+MAH+uDQByAsMHv26dfzpv2Hj8PeuwNjnjBPbpTjZnPTBJzzQBx32EE/wD1qDZY65455/zmuwFmTjHX3/8Ar0Cz4wAf64NAHICwwe/bp1/Om/YePw967A2OeME9ulONmc9MEnPNAHHfYQT/APWoNljrnjnn/Oa7AWZOMdff/wCvQLPjAB/rg0AcgLDB79unX86b9h4/D3rsDY54wT26U42Zz0wSc80Acd9hBP8A9ag2WOueOef85rsBZk4x19//AK9As+MAH+uDQByAsMHv26dfzpv2Hj8PeuwNjnjBPbpTjZnPTBJzzQBx32EE/wD1qDZY65455/zmuwFmTjHX3/8Ar0Cz4wAf64NAHICwwe/bp1/Om/YePw967A2OeME9ulONmc9MEnPNAHHfYQT/APWoNljrnjnn/Oa7AWZOMdff/wCvQLPjAB/rg0AcgLDB79unX86b9h4/D3rsDY54wT26U42Zz0wSc80Acd9hBP8A9ag2WOueOef85rsBZk4x19//AK9As+MAH+uDQByAsMHv26dfzpBY+npXXmxzxgnt0pxsznpgk55oA5D7Dk9vypTZ4xke/OP/ANddcLLOPX3FKLMYwB/jg0AcmNPwfunjHTr/AEpRY46cceldX9hB4xk9OlSfZOfTJzzQBygsQT0B/Dk1MLPGM9ucH2/WuoWzzjH6809LMYwo/pwaAOcSxweh7dP8anSz4H0roRZZ7Z6jpVhbXnpyTnmgDBSzGeR+nX+hq6ltjrnjnn2/WtlLXOAOtWI7YYwB/jzQBmxWmCPwHHX8/wD9dXY7fgfT6VoLa54xk9OlXEg59CTnmgCnHbjPb8q0I48Yznjn8v1qxHD0A/X/AOvVuKIYwPy74PY0AMihwR7Y6dvx4q5HH0+nSnJDnjqenSripzxwSc80ANSMZ7Z78VbUdM9Bzzj/APXQiZwBx9f/AK9TouRtXp/Q0AOROfpgcf48VJngY9KNvG0e46VMBjk8EnvQAoGDj8+KUkf15xQBnGOtKig8D6+/NAD41xkmpaKKACiiigAooooA/9L+/iiiigAooooAKjkHGakooArdBz7UhHy89vyqR1x93v7ZpmeeP/r0ARsuOexqMrng+9T4wM/TmmMnpwKAKrLgYbpxVaSP5fm6c/TNXyNw6dfbPJqMjDZH6dfyoAznjJ68g96rtF7evFaRiAGRx79v0qJox0PH4UAZLRce3FVZIODn3HtW00RPIHX0GetQlAWyOvt1oAxHgz26+tV2t8cY9eP8/wCNbhgwMnj3xx+nWozCOnQUAYLW/r0GKge2+U7vf6VvmDOMDGfameSN2R1Hp1oA59rX1HXv60z7L2I9eK3/ALNgZxj3xx+nWmG3B4OAPSgDA+y4HPTimNacc+456V0H2fPQdfYHrSeT82R+nWgDnzbHPI6+tJ9lHcfhXQC0wM9Pf/8AV1pDbjp0/CgDA+ygDnpxTTaDHIHGR7V0P2fPQdfbPJoEI3ZHX2zn8qAOfNpz9aT7Jjj68cV0ItgBnp74/wA5o+zjp0H0oA5/7IAOenFNNmAOfce1dF9nz0HX2zyaBCN2R19s5/KgDnvsnr370fZMcfXjiuhFsAM9PfH+c0fZx06D6UAc/wDZABz04ppswBz7j2rovs+eg6+2eTQIRuyOvtnP5UAc99k9e/ej7Jjj68cV0ItgBnp74/zmj7OOnQfSgDn/ALIAOenFNNmAOfce1dF9nz0HX2zyaBCN2R19s5/KgDnvsnr370fZMcfXjiuhFsAM9PfH+c0fZx06D6UAc/8AZABz04ppswBz7j2rovs+eg6+2eTQIRuyOvtnP5UAc99k9e/ej7Jjj68cV0ItgBnp74/zmj7OOnQfSgDn/sgA56cU02YA59x7V0X2fPQdfbPJoEI3ZHX2zn8qAOe+yevfvR9kxx9eOK6EWwAz098f5zR9nHToPpQBz/2QAc9OKabMAc+49q6L7PnoOvtnk0CEbsjr7Zz+VAHPfZPXv3o+yY4+vHFdCLYAZ6e+P85o+zjp0H0oA5/7IAOenFNNmAOfce1dF9nz0HX2zyaBCN2R19s5/KgDnvsnr370fZMcfXjiuhFsAM9PfH+c0fZx06D6UAc/9kAHPTimmzAHPuPaui+z56Dr7Z5NAhG7I6+2c/lQBz32T1796PsmOPrxxXQi2AGenvj/ADmj7OOnQfSgDn/sgA56cU02YA59x7V0X2fPQdfbPJoEI3ZHX2zn8qAOe+yevfvR9kxx9eOK6EWwAz098f5zR9nHToPpQBz/ANkAHPTimmzAHPuPaui+z56Dr7Z5NAhG7I6+2c/lQBz32T1796PsmOPrxxXQi2AGenvj/OaPs46dB9KAOf8AsgA56cU02YA59x7V0X2fPQdfbPJoEI3ZHX2zn8qAOe+yevfvR9kxx9eOK6EWwAz098f5zR9nHToPpQBz/wBkAHPTimmzAHPuPaui+z56Dr7Z5NAhG7I6+2c/lQBz32T1796PsmOPrxxXQi2AGenvj/OaPs46dB9KAOf+yADnpxTTZgDn3HtXRfZ89B19s8mgQjdkdfbOfyoA577J69+9H2THH144roRbADPT3x/nNH2cdOg+lAHP/ZABz04ppswBz7j2rovs+eg6+2eTQIRuyOvtnP5UAc99k9e/ej7Jjj68cV0ItgBnp74/zmj7OOnQfSgDn/sgA56cU02YA59x7V0X2fPQdfbPJoEI3ZHX2zn8qAOe+yevfvR9kxx9eOK6EWwAz098f5zR9nHToPpQBz/2QAc9OKabMAc+49q6L7PnoOvtnk0CEbsjr7Zz+VAHPfZPXv3o+yY4+vHFdCLYAZ6e+P8AOaPs46dB9KAOf+yADnpxTTZgDn3HtXRfZ89B19s8mgQjdkdfbOfyoA577J69+9H2THH144roRbADPT3x/nNH2cdOg+lAHP8A2QAc9OKabMAc+49q6L7PnoOvtnk0CEbsjr7Zz+VAHPfZPXv3o+yY4+vHFdCLYAZ6e+P85o+zjp0H0oA5/wCyADnpxTTZgDn3HtXRfZ89B19s8mgQjdkdfbOfyoA577J69+9H2THH144roRbADPT3x/nNH2cdOg+lAHP/AGQAc9OKabMAc+49q6L7PnoOvtnk0CEbsjr7Zz+VAHPfZPXv3o+yY4+vHFdCLYAZ6e+P85o+zjp0H0oA5/7IAOenFNNmAOfce1dF9nz0HX2zyaBCN2R19s5/KgDnvsnr370fZMcfXjiuhFsAM9PfH+c0fZx06D6UAc/9kAHPTimmzAHPuPaui+z56Dr7Z5NAhG7I6+2c/lQBz32T1796PsmOPrxxXQi2AGenvj/OaPs46dB9KAOf+yADnpxTTZgDn3HtXRfZ89B19s8mgQjdkdfbOfyoA577J69+9H2THH144roRbADPT3x/nNH2cdOg+lAHP/ZABz04ppswBz7j2rovs+eg6+2eTQIRuyOvtnP5UAc/9kHcZz60fZAOMevFdALYAZ6e+P8AOaPs46dB9KAMD7KAOenFIbUAc47/AEroPs+eg6+2eTSiAFsjqPTOfyoAwPspJ+veni0x29eK3Ba4Genv/wDq60v2cdCBj6UAYYtfXpxTja4HPbP0rb+zg9BjPtnrT1h+bI6j0zn8qAMb7L6jg9/X9KlW2xxj14rXW2wM4x05xTxAOnAHpQBmLb4HPTipRb8c9sj2zWmsGcEDr7Z5qVYhuz3H5/lQBQWD1HX1/wAMVYSHHGPXiriwYGcY6c9B+nWphEOnAHpigCskWOvTipxFgfN7j8asLH6DGfbNTovzZUc+3WgCIR/3uhqwqHvx14pyxhRnv6/561MEz14HpQA1Vz16DFSbQFwe2RTvoOvtmpAMHPf2oAAvc96f/nFJjHPTpzSkdunagBcY/SplGBg9aai9yMVJQAUUUUAFFFFABRRRQB//0/7+KKKKACiiigAooooACM8GoXXbz1HWpqKAKwHb8OKTPHHpUrxgg7etRn8iT3oAYyAnjGe/HWo2JHX6847VOBnGOtAAxj9O/NAFfYM+mMDj/IqEqQPwq00YOQOvTpTSCDzwSc80AUyik5/pUbKR94Z79v8A9dXtobjv/n1pgjGML/8AX57UAUfKwe4Ix06/nxURjOPw+laBjJyCM9ulNKDPIwSc80AZxiGf/rUxkA5P15x/+utLywcAHn35/nTRHxhf/r89qAM4Q4P5dOv9KZ5R+nFaRh7YyenSgxc9MEnPNAGYYuf/AK1NMWOx9eQP/wBdanlg8Ac/n/OmiIYwAf64NAGcIMHp6dBz+dN8k4/D0rSMOeME9ulOMfPcEnPP+TQBmeQCe35UGLHX68gf/rrREYOADz7/AP16BGuMDP8AXB7UAZwhAP0x0HP58U3yhj8PStIxA8c56dKcUGfQk55oAzPKXPb8qDGB1+vOP8c1pCMHAB59/wD69AjXGBn+uD2oAzhCAfpjoOfz4pvlDH4elaRiB45z06U4oM+hJzzQBmeUue35UGMDr9ecf45rSEYOADz7/wD16BGuMDP9cHtQBnCEA/THQc/nxTfKGPw9K0jEDxznp0pxQZ9CTnmgDM8pc9vyoMYHX684/wAc1pCMHAB59/8A69AjXGBn+uD2oAzhCAfpjoOfz4pvlDH4elaRiB45z06U4oM+hJzzQBmeUue35UGMDr9ecf45rSEYOADz7/8A16BGuMDP9cHtQBnCEA/THQc/nxTfKGPw9K0jEDxznp0pxQZ9CTnmgDM8pc9vyoMYHX684/xzWkIwcAHn3/8Ar0CNcYGf64PagDOEIB+mOg5/Pim+UMfh6VpGIHjnPTpTigz6EnPNAGZ5S57flQYwOv15x/jmtIRg4APPv/8AXoEa4wM/1we1AGcIQD9MdBz+fFN8oY/D0rSMQPHOenSnFBn0JOeaAMzylz2/Kgxgdfrzj/HNaQjBwAeff/69AjXGBn+uD2oAzhCAfpjoOfz4pvlDH4elaRiB45z06U4oM+hJzzQBmeUue35UGMDr9ecf45rSEYOADz7/AP16BGuMDP8AXB7UAZwhAP0x0HP58U3yhj8PStIxA8c56dKcUGfQk55oAzPKXPb8qDGB1+vOP8c1pCMHAB59/wD69AjXGBn+uD2oAzhCAfpjoOfz4pvlDH4elaRiB45z06U4oM+hJzzQBmeUue35UGMDr9ecf45rSEYOADz7/wD16BGuMDP9cHtQBnCEA/THQc/nxTfKGPw9K0jEDxznp0pxQZ9CTnmgDM8pc9vyoMYHX684/wAc1pCMHAB59/8A69AjXGBn+uD2oAzhCAfpjoOfz4pvlDH4elaRiB45z06U4oM+hJzzQBmeUue35UGMDr9ecf45rSEYOADz7/8A16BGuMDP9cHtQBnCEA/THQc/nxTfKGPw9K0jEDxznp0pxQZ9CTnmgDM8pc9vyoMYHX684/xzWkIwcAHn3/8Ar0CNcYGf64PagDOEIB+mOg5/Pim+UMfh6VpGIHjnPTpTigz6EnPNAGZ5S57flQYwOv15x/jmtIRg4APPv/8AXoEa4wM/1we1AGcIQD9MdBz+fFN8oY/D0rSMQPHOenSnFBn0JOeaAMzylz2/Kgxgdfrzj/HNaQjBwAeff/69AjXGBn+uD2oAzhCAfpjoOfz4pvlDH4elaRiB45z06U4oM+hJzzQBmeUue35UGMDr9ecf45rSEYOADz7/AP16BGuMDP8AXB7UAZwhAP0x0HP58U3yhj8PStIxA8c56dKcUGfQk55oAzPKXPb8qDGB1+vOP8c1pCMHAB59/wD69AjXGBn+uD2oAzhCAfpjoOfz4pvlDH4elaRiB45z06U4oM+hJzzQBmeUue35UGMDr9ecf45rSEYOADz7/wD16BGuMDP9cHtQBnCEA/THQc/nxTfKGPw9K0jEDxznp0pxQZ9CTnmgDM8pc9vyoMYHX684/wAc1pCMHAB59/8A69AjXGBn+uD2oAzhCAfpjoOfz4pvlDH4elaRiB45z06U4oM+hJzzQBmeUue35UGMDr9ecf45rSEYOADz7/8A16BGuMDP9cHtQBnCEA/THQc/nxTfKGPw9K0jEDxznp0pxQZ9CTnmgDM8pc9vyoMYHX684/xzWkIwcAHn3/8Ar0CNcYGf64PagDOEIB+mOg5/Pim+UMfh6VpGIHjnPTpTigz6EnPNAGZ5S57flQYwOv15x/jmtIRg4APPv/8AXoEa4wM/1we1AGcIQD9MdBz+fFN8oY/D0rSMQPHOenSnFBn0JOeaAMzylz2/Kgxgdfrzj/HNaQjBwAeff/69AjXGBn+uD2oAzhCAfpjoOfz4pvlDH4elaRiB45z06U4oM+hJzzQBmeUue35UGMDr9ecf45rSEYOADz7/AP16BGuMDP8AXB7UAZwhAP5dBz/Sk8k4/D0rRMQPHOenSnFBn0JOeaAM3yAT2/KgxY6/Xkf5NaQjBwBnP5/zoEXGBn+uDQBnCDB6enQc/nSCHHPt6YrRMOeME9ulO8vnpyTnmgDO8nJz/n+lO8vHUH15x/8ArrQEWcADn3/+vQsWBwP8cHtQBREOD+Q4/wAilEfp3HTpV7yc8Y55HSn7D34JOeaAKQiBPT9P/wBVSbNuM/X/ADzmrQQHHPP+fWnKgxhR/jg0AV1iweM8Y6f408IcenH0qx5RPHfp0p+wZ56k55oAgCLn1P0qXB6t255x/wDrqUAcAcGlVSRgf4cHtQAioF6ew46/nSgEj8KdsHQ8np0qQ/kSe9ADQoB/nxTiR/XnFAGcY60KM8D646HmgAA7fQcVKi45NKqAcnrT6ACiiigAooooAKKKKACiiigD/9T+/iiiigAooooAKKKKACiiigApCoPWlooAhKFffpUZ6c9qtU0qCc96AID796McY/SnmLBytNI7dO1ADSgxz7VGycf41L244/DNGeeP/r0ARFW7jr+tJgjgj8Klxjnp05pSO3bpQBX2jHPTimsi457Z+n61ZwCOBjPtmkwucjr7ZzQBX8sd889/8ik8vHH14qcRgDPT3pTGOg47dKAIPLwOTxx/nrTDGcc44yOas7PTjPtml285B59utAFby279+/8AkUeWw4+vFWBHgZ6dOcUGM5xwB0oAg2EDk8cU0xnHOOMj2qzsbtxn8aNpzkY/Dr+VAFfy279+/wDkUeWw4+vFT+WQM/Tml8s9OAOlAEGwgcnjimmM45xxke1WdjduM/jRtOcjH4dfyoAr+W3fv3/yKPLYcfXip/LIGfpzS+WenAHSgCDYQOTxxTTGcc44yParOxu3Gfxo2nORj8Ov5UAV/Lbv37/5FHlsOPrxU/lkDP05pfLPTgDpQBBsIHJ44ppjOOccZHtVnY3bjP40bTnIx+HX8qAK/lt379/8ijy2HH14qfyyBn6c0vlnpwB0oAg2EDk8cU0xnHOOMj2qzsbtxn8aNpzkY/Dr+VAFfy279+/+RR5bDj68VP5ZAz9OaXyz04A6UAQbCByeOKaYzjnHGR7VZ2N24z+NG05yMfh1/KgCv5bd+/f/ACKPLYcfXip/LIGfpzS+WenAHSgCDYQOTxxTTGcc44yParOxu3Gfxo2nORj8Ov5UAV/Lbv37/wCRR5bDj68VP5ZAz9OaXyz04A6UAQbCByeOKaYzjnHGR7VZ2N24z+NG05yMfh1/KgCv5bd+/f8AyKPLYcfXip/LIGfpzS+WenAHSgCDYQOTxxTTGcc44yParOxu3Gfxo2nORj8Ov5UAV/Lbv37/AORR5bDj68VP5ZAz9OaXyz04A6UAQbCByeOKaYzjnHGR7VZ2N24z+NG05yMfh1/KgCv5bd+/f/Io8thx9eKn8sgZ+nNL5Z6cAdKAINhA5PHFNMZxzjjI9qs7G7cZ/Gjac5GPw6/lQBX8tu/fv/kUeWw4+vFT+WQM/Tml8s9OAOlAEGwgcnjimmM45xxke1WdjduM/jRtOcjH4dfyoAr+W3fv3/yKPLYcfXip/LIGfpzS+WenAHSgCDYQOTxxTTGcc44yParOxu3Gfxo2nORj8Ov5UAV/Lbv37/5FHlsOPrxU/lkDP05pfLPTgDpQBBsIHJ44ppjOOccZHtVnY3bjP40bTnIx+HX8qAK/lt379/8AIo8thx9eKn8sgZ+nNL5Z6cAdKAINhA5PHFNMZxzjjI9qs7G7cZ/Gjac5GPw6/lQBX8tu/fv/AJFHlsOPrxU/lkDP05pfLPTgDpQBBsIHJ44ppjOOccZHtVnY3bjP40bTnIx+HX8qAK/lt379/wDIo8thx9eKn8sgZ+nNL5Z6cAdKAINhA5PHFNMZxzjjI9qs7G7cZ/Gjac5GPw6/lQBX8tu/fv8A5FHlsOPrxU/lkDP05pfLPTgDpQBBsIHJ44ppjOOccZHtVnY3bjP40bTnIx+HX8qAK/lt379/8ijy2HH14qfyyBn6c0vlnpwB0oAg2EDk8cU0xnHOOMj2qzsbtxn8aNpzkY/Dr+VAFfy279+/+RR5bDj68VP5ZAz9OaXyz04A6UAQbCByeOKaYzjnHGR7VZ2N24z+NG05yMfh1/KgCv5bd+/f/Io8thx9eKn8sgZ+nNL5Z6cAdKAINhA5PHFNMZxzjjI9qs7G7cZ/Gjac5GPw6/lQBX8tu/fv/kUeWw4+vFT+WQM/Tml8s9OAOlAEGwgcnjimmM45xxke1WdjduM/jRtOcjH4dfyoAr+W3fv3/wAijy2HH14qfyyBn6c0vlnpwB0oAg2EDk8cU0xnHOOMj2qzsbtxn8aNpzkY/Dr+VAFfy279+/8AkUeWw4+vFT+WQM/Tml8s9OAOlAEGwgcnjimmM45xxke1WdjduM/jRtOcjH4dfyoAr+W3fv3/AMijy2HH14qfyyBn6c0vlnpwB0oAg2EDk8cU0xnHOOMj2qzsbtxn8aNpzkY/Dr+VAFfy279+/wDkUeWw4+vFT+WQM/Tml8s9OAOlAEGwgcnjimmM45xxke1WdjduM/jRt5z39utAFfy279+/+RSiMjg/lU4jwM9OnOKDH+HbpQBD5eByeOP89aaY+PmPTIqxs9OM+2aXaM57+3WgCDyx3zz3/wAilCAcY/CpRGAM/rTii9MYoAiwB9OKCCRz2yPapsDsMfhmlzzx/wDXoAi2seo69z3pwTA5/KnYxz06c0pHbp2oAQKFH5daD057Uvbjj8M04KScgf0oAaffvRg9P0qRYscnrx0qQADpQBGsfrUgAHSlooAKKKKACiiigAooooAKKKKACiiigD//1f7+KKKKACiiigAooooAKKKKACiiigAooooAKKKKAG7FznHWmmMetSUUARCL3pux8cVPRQBX2nPT68UjHHX9cVZooArAdvw4pM8celWqTavpQBXxz/8AWoJH9ecVY2j0oCqOgoArgdvw4pM8celWdqntRtX0oAr45/8ArUEj+vOKn2rnOKTYoGAKAIQO34cUmeOPSp/LT0pdi+lAEGOf/rUEj+vOKnCKO1JsUDAFAEIHb8OKTPHHpU/lp6UuxfSgCDHP/wBagkf15xU4RR2pNigYAoAhA7fhxSZ449Kn8tPSl2L6UAQY5/8ArUEj+vOKnCKO1JsUDAFAEIHb8OKTPHHpU/lp6UuxfSgCDHP/ANagkf15xU4RR2pNigYAoAhA7fhxSZ449Kn8tPSl2L6UAQY5/wDrUEj+vOKnCKO1JsUDAFAEIHb8OKTPHHpU/lp6UuxfSgCDHP8A9agkf15xU4RR2pNigYAoAhA7fhxSZ449Kn8tPSl2L6UAQY5/+tQSP684qcIo7UmxQMAUAQgdvw4pM8celT+WnpS7F9KAIMc//WoJH9ecVOEUdqTYoGAKAIQO34cUmeOPSp/LT0pdi+lAEGOf/rUEj+vOKnCKO1JsUDAFAEIHb8OKTPHHpU/lp6UuxfSgCDHP/wBagkf15xU4RR2pNigYAoAhA7fhxSZ449Kn8tPSl2L6UAQY5/8ArUEj+vOKnCKO1JsUDAFAEIHb8OKTPHHpU/lp6UuxfSgCDHP/ANagkf15xU4RR2pNigYAoAhA7fhxSZ449Kn8tPSl2L6UAQY5/wDrUEj+vOKnCKO1JsUDAFAEIHb8OKTPHHpU/lp6UuxfSgCDHP8A9agkf15xU4RR2pNigYAoAhA7fhxSZ449Kn8tPSl2L6UAQY5/+tQSP684qcIo7UmxQMAUAQgdvw4pM8celT+WnpS7F9KAIMc//WoJH9ecVOEUdqTYoGAKAIQO34cUmeOPSp/LT0pdi+lAEGOf/rUEj+vOKnCKO1JsUDAFAEIHb8OKTPHHpU/lp6UuxfSgCDHP/wBagkf15xU4RR2pNigYAoAhA7fhxSZ449Kn8tPSl2L6UAQY5/8ArUEj+vOKnCKO1JsUDAFAEIHb8OKTPHHpU/lp6UuxfSgCDHP/ANagkf15xU4RR2pNigYAoAhA7fhxSZ449Kn8tPSl2L6UAQY5/wDrUEj+vOKnCKO1JsUDAFAEIHb8OKTPHHpU/lp6UuxfSgCDHP8A9agkf15xU4RR2pNigYAoAhA7fhxSZ449Kn8tPSl2L6UAQY5/+tQSP684qcIo7UmxQMAUAQgdvw4pM8celT+WnpS7F9KAIMc//WoJH9ecVOEUdqTYoGAKAIQO34cUmeOPSp/LT0pdi+lAEGOf/rUEj+vOKnCKO1KFUdBQBXA7fhxSZ449Ks7VPajavpQBXxz/APWoJH9ecVY2j0oCqOgoArgdvw4oGSOKs0UAV9h3dPrxTtjE4xx71NRQBCIz3P5U8IBT6KAECqDkDmloooAKKKKACiiigAooooAKKKKACiiigAooooAKKKKAP//W/v4ooooAKKKKACiiigAooooAKKKKACiiigAooooAKKKKACiiigAooooAKKKKACiiigAooooAKKKKACiiigAooooAKKKKACiiigAooooAKKKKACiiigAooooAKKKKACiiigAooooAKKKKACiiigAooooAKKKKACiiigAooooAKKKKACiiigAooooAKKKKACiiigAooooAKKKKACiiigAooooAKKKKACiiigAooooAKKKKACiiigAooooAKKKKACiiigAooooAKKKKACiiigAooooAKKKKACiiigAooooAKKKKACiiigAooooAKKKKACiiigAooooAKKKKACiiigAooooAKKKKACiiigAooooAKKKKACiiigAooooAKKKKACiiigAooooAKKKKACiiigAooooAKKKKAP/Z;" vertex="1" parent="1">
                    <mxGeometry x="1150" y="40" width="831.05" height="516.21" as="geometry"/>
                </mxCell>
            </root>
        </mxGraphModel>
    </diagram>
</mxfile>